STARTFONT 2.1
FONT -CBS-Song-Medium-R-Normal-Fantizi-40-400-75-75-C-400-CNS11643.1992-1
SIZE 40 80 80
FONTBOUNDINGBOX 40 40 0 -6
STARTPROPERTIES 23
FONTNAME_REGISTRY ""
FOUNDRY "CBS"
FAMILY_NAME "Song"
WEIGHT_NAME "Medium"
SLANT "R"
SETWIDTH_NAME "Normal"
ADD_STYLE_NAME "Fantizi"
PIXEL_SIZE 40
POINT_SIZE 400
RESOLUTION_X 75
RESOLUTION_Y 75
SPACING "C"
AVERAGE_WIDTH 400
CHARSET_REGISTRY "CNS11643.1992"
CHARSET_ENCODING "1"
COPYRIGHT "March 1994 by Central Bureau of Standards, Ministry of Economy, ROC"
WEIGHT 19329
RESOLUTION 110
X_HEIGHT 34
QUAD_WIDTH 40
DEFAULT_CHAR 32382
FONT_ASCENT 34
FONT_DESCENT 6
ENDPROPERTIES
CHARS 6086
STARTCHAR 2121
ENCODING 8481
SWIDTH 903 0
DWIDTH 40 0
BBX 40 40 0 -6
BITMAP
0000000000
0000000000
0000000000
0000000000
0000000000
0000000000
0000000000
0000000000
0000000000
0000000000
0000000000
0000000000
0000000000
0000000000
0000000000
0000000000
0000000000
0000000000
0000000000
0000000000
0000000000
0000000000
0000000000
0000000000
0000000000
0000000000
0000000000
0000000000
0000000000
0000000000
0000000000
0000000000
0000000000
0000000000
0000000000
0000000000
0000000000
0000000000
0000000000
0000000000
ENDCHAR
STARTCHAR 2122
ENCODING 8482
SWIDTH 903 0
DWIDTH 40 0
BBX 40 40 0 -6
BITMAP
0000000000
0000000000
0000000000
0000000000
0000000000
0000000000
0000000000
0000000000
0000000000
0000000000
0000000000
0000000000
0000000000
0000000000
00003c0000
00007e0000
0000ff0000
0000ff8000
00007f8000
00001f8000
0000078000
0000070000
00000f0000
00000e0000
00001c0000
0000780000
0001e00000
0000000000
0000000000
0000000000
0000000000
0000000000
0000000000
0000000000
0000000000
0000000000
0000000000
0000000000
0000000000
0000000000
ENDCHAR
STARTCHAR 2123
ENCODING 8483
SWIDTH 903 0
DWIDTH 40 0
BBX 40 40 0 -6
BITMAP
0000000000
0000000000
0000000000
0000000000
0000000000
0000000000
0000000000
0000000000
0000000000
0000000000
0000000000
0000000000
0000000000
0000000000
0003c00000
0000f00000
00003c0000
00001e0000
00000f0000
00000f0000
0000078000
0000078000
000007c000
000007c000
000003c000
000003c000
0000018000
0000000000
0000000000
0000000000
0000000000
0000000000
0000000000
0000000000
0000000000
0000000000
0000000000
0000000000
0000000000
0000000000
ENDCHAR
STARTCHAR 2124
ENCODING 8484
SWIDTH 903 0
DWIDTH 40 0
BBX 40 40 0 -6
BITMAP
0000000000
0000000000
0000000000
0000000000
0000000000
0000000000
0000000000
0000000000
0000000000
0000000000
0000000000
0000000000
0000000000
00003c0000
0000ff0000
0001c38000
000300c000
000300c000
0006006000
0006006000
0006006000
0006006000
000300c000
000300c000
0001c38000
0000ff0000
00003c0000
0000000000
0000000000
0000000000
0000000000
0000000000
0000000000
0000000000
0000000000
0000000000
0000000000
0000000000
0000000000
0000000000
ENDCHAR
STARTCHAR 2125
ENCODING 8485
SWIDTH 903 0
DWIDTH 40 0
BBX 40 40 0 -6
BITMAP
0000000000
0000000000
0000000000
0000000000
0000000000
0000000000
0000000000
0000000000
0000000000
0000000000
0000000000
0000000000
0000000000
0000000000
0000000000
0000000000
00003c0000
00007e0000
0000ff0000
0000ff0000
0000ff0000
0000ff0000
00007e0000
00003c0000
0000000000
0000000000
0000000000
0000000000
0000000000
0000000000
0000000000
0000000000
0000000000
0000000000
0000000000
0000000000
0000000000
0000000000
0000000000
0000000000
ENDCHAR
STARTCHAR 2126
ENCODING 8486
SWIDTH 903 0
DWIDTH 40 0
BBX 40 40 0 -6
BITMAP
0000000000
0000000000
0000000000
0000000000
0000000000
0000000000
0000000000
0000000000
0000000000
0000000000
0000000000
0000000000
0000000000
0000000000
00003c0000
0000ff0000
0001ff8000
0001ff8000
0003ffc000
0003ffc000
0003ffc000
0003ffc000
0001ff8000
0001ff8000
0000ff0000
00003c0000
0000000000
0000000000
0000000000
0000000000
0000000000
0000000000
0000000000
0000000000
0000000000
0000000000
0000000000
0000000000
0000000000
0000000000
ENDCHAR
STARTCHAR 2127
ENCODING 8487
SWIDTH 903 0
DWIDTH 40 0
BBX 40 40 0 -6
BITMAP
0000000000
0000000000
0000000000
0000000000
0000000000
0000000000
00007c0000
0000fe0000
0001ff0000
0001ff0000
0001ff0000
0001ff0000
0000fe0000
00007c0000
0000000000
0000000000
0000000000
0000000000
0000000000
0000000000
0000000000
0000000000
0000000000
00007c0000
0000fe0000
0001ff0000
0001ff0000
0000ff0000
00003f0000
00000f0000
00000e0000
00001e0000
00001c0000
0000380000
0000f00000
0003c00000
0000000000
0000000000
0000000000
0000000000
ENDCHAR
STARTCHAR 2128
ENCODING 8488
SWIDTH 903 0
DWIDTH 40 0
BBX 40 40 0 -6
BITMAP
0000000000
0000000000
0000000000
0000000000
0000000000
0000000000
00007c0000
0000fe0000
0001ff0000
0001ff0000
0001ff0000
0001ff0000
0000fe0000
00007c0000
0000000000
0000000000
0000000000
0000000000
0000000000
0000000000
0000000000
0000000000
0000000000
00007c0000
0000fe0000
0001ff0000
0001ff0000
0001ff0000
0001ff0000
0000fe0000
00007c0000
0000000000
0000000000
0000000000
0000000000
0000000000
0000000000
0000000000
0000000000
0000000000
ENDCHAR
STARTCHAR 2129
ENCODING 8489
SWIDTH 903 0
DWIDTH 40 0
BBX 40 40 0 -6
BITMAP
0000000000
0000000000
0000fe0000
0003ff8000
000783c000
000701e000
000e01e000
000e00f000
001e00f000
001f00f000
001f00f000
001f00f000
000e01e000
000001e000
000003c000
0000078000
00000f0000
00000e0000
00001c0000
00001c0000
0000380000
0000380000
0000380000
0000380000
0000380000
0000380000
0000000000
0000000000
0000000000
00007c0000
0000fe0000
0001ff0000
0001ff0000
0001ff0000
0000fe0000
00007c0000
0000000000
0000000000
0000000000
0000000000
ENDCHAR
STARTCHAR 212a
ENCODING 8490
SWIDTH 903 0
DWIDTH 40 0
BBX 40 40 0 -6
BITMAP
0000000000
0000000000
0000100000
0000380000
00007c0000
0000fe0000
0000fe0000
0000fe0000
0000fe0000
0000fe0000
0000fe0000
00007c0000
00007c0000
00007c0000
00007c0000
00007c0000
00007c0000
00007c0000
00007c0000
0000380000
0000380000
0000380000
0000380000
0000380000
0000380000
0000380000
0000000000
0000000000
0000000000
0000380000
00007c0000
0000fe0000
0000fe0000
0000fe0000
00007c0000
0000380000
0000000000
0000000000
0000000000
0000000000
ENDCHAR
STARTCHAR 212b
ENCODING 8491
SWIDTH 903 0
DWIDTH 40 0
BBX 40 40 0 -6
BITMAP
0000000000
0000000000
0000000000
0000000000
0000000000
0000000000
0000000000
0000000000
0000380000
00007c0000
0000fe0000
0000fe0000
0000fe0000
00007c0000
0000380000
0000000000
0000000000
0000000000
0000000000
0000000000
0000000000
0000000000
0000000000
0000000000
0000380000
00007c0000
0000fe0000
0000fe0000
0000fe0000
00007c0000
0000380000
0000000000
0000000000
0000000000
0000000000
0000000000
0000000000
0000000000
0000000000
0000000000
ENDCHAR
STARTCHAR 212c
ENCODING 8492
SWIDTH 903 0
DWIDTH 40 0
BBX 40 40 0 -6
BITMAP
0000000000
0000000000
0000000000
0000000000
0000000000
0000000000
0000000000
0000000000
0000000000
0000000000
0000000000
0000000000
0000000000
0000000000
0000000000
0000000000
07003801c0
0f807c03e0
1fc0fe07f0
1fc0fe07f0
1fc0fe07f0
0f807c03e0
07003801c0
0000000000
0000000000
0000000000
0000000000
0000000000
0000000000
0000000000
0000000000
0000000000
0000000000
0000000000
0000000000
0000000000
0000000000
0000000000
0000000000
0000000000
ENDCHAR
STARTCHAR 212d
ENCODING 8493
SWIDTH 903 0
DWIDTH 40 0
BBX 40 40 0 -6
BITMAP
0000000000
0000000000
0000000000
0000000000
0000000000
0000000000
0000000000
0000000000
0000000000
0000000000
0000000000
0000000000
0000000000
0000000000
0000000000
0000000000
00e0000e00
01f0001f00
03f8003f80
03f8003f80
03f8003f80
01f0001f00
00e0000e00
0000000000
0000000000
0000000000
0000000000
0000000000
0000000000
0000000000
0000000000
0000000000
0000000000
0000000000
0000000000
0000000000
0000000000
0000000000
0000000000
0000000000
ENDCHAR
STARTCHAR 212e
ENCODING 8494
SWIDTH 903 0
DWIDTH 40 0
BBX 40 40 0 -6
BITMAP
0000000000
0000000000
0000000000
0000000000
0000000000
0000000000
0000000000
0000000000
0000000000
0000000000
0000000000
0000000000
0000000000
0000000000
0000000000
0000000000
0000000000
0000000000
0000000000
0000000000
0000000000
0000000000
0000000000
0000000000
0000000000
0000000000
0000000000
00001c0000
00003e0000
00007f0000
00007f0000
00003f0000
0000070000
0000070000
00000e0000
00001c0000
0000380000
0000e00000
0000000000
0000000000
ENDCHAR
STARTCHAR 212f
ENCODING 8495
SWIDTH 903 0
DWIDTH 40 0
BBX 40 40 0 -6
BITMAP
0000000000
0000000000
0000000000
0000000000
0000000000
0000000000
0000000000
0000000000
0000000000
0000000000
0000000000
0000000000
0000000000
0000000000
0000000000
0000000000
0000000000
0000000000
0000000000
0000000000
0000000000
0000000000
0000000000
0000000000
0000000000
0000000000
0000000000
0001800000
0000e00000
0000700000
0000380000
00001c0000
00001e0000
00000e0000
00000f0000
00000f0000
0000070000
0000070000
0000000000
0000000000
ENDCHAR
STARTCHAR 2130
ENCODING 8496
SWIDTH 903 0
DWIDTH 40 0
BBX 40 40 0 -6
BITMAP
0000000000
0000000000
0000000000
0000000000
0000000000
0000000000
0000000000
0000000000
0000000000
0000000000
0000000000
0000000000
0000000000
0000000000
0000000000
0000000000
0000000000
0000000000
0000000000
0000000000
0000000000
0000000000
0000000000
0000000000
0000000000
0000000000
0000000000
0000000000
0000000000
0000000000
0000000000
00001c0000
00003e0000
00003e0000
00003e0000
00001c0000
0000000000
0000000000
0000000000
0000000000
ENDCHAR
STARTCHAR 2131
ENCODING 8497
SWIDTH 903 0
DWIDTH 40 0
BBX 40 40 0 -6
BITMAP
0000000000
0000000000
0000000000
0000000000
0000000000
0000000000
0000000000
0000000000
0000000000
0000000000
0000000000
0000000000
0000000000
0000000000
0000000000
0000000000
00001c0000
00003e0000
00007f0000
00007f0000
00007f0000
00003e0000
00001c0000
0000000000
0000000000
0000000000
0000000000
0000000000
0000000000
0000000000
0000000000
0000000000
0000000000
0000000000
0000000000
0000000000
0000000000
0000000000
0000000000
0000000000
ENDCHAR
STARTCHAR 2132
ENCODING 8498
SWIDTH 903 0
DWIDTH 40 0
BBX 40 40 0 -6
BITMAP
0000000000
0000000000
0000000000
0000000000
0000000000
0000000000
0000000000
0000000000
00001c0000
00003e0000
00007f0000
00007f0000
00007f0000
00003e0000
00001c0000
0000000000
0000000000
0000000000
0000000000
0000000000
0000000000
0000000000
0000000000
0000000000
00001c0000
00003e0000
00007f0000
00007f0000
00007f0000
00003f0000
0000070000
0000070000
00000e0000
00000e0000
00001c0000
0000380000
0000e00000
0000000000
0000000000
0000000000
ENDCHAR
STARTCHAR 2133
ENCODING 8499
SWIDTH 903 0
DWIDTH 40 0
BBX 40 40 0 -6
BITMAP
0000000000
0000000000
0000000000
0000000000
0000000000
0000000000
0000000000
0000000000
00001c0000
00003e0000
00007f0000
00007f0000
00007f0000
00003e0000
00001c0000
0000000000
0000000000
0000000000
0000000000
0000000000
0000000000
0000000000
0000000000
0000000000
00001c0000
00003e0000
00007f0000
00007f0000
00007f0000
00003e0000
00001c0000
0000000000
0000000000
0000000000
0000000000
0000000000
0000000000
0000000000
0000000000
0000000000
ENDCHAR
STARTCHAR 2134
ENCODING 8500
SWIDTH 903 0
DWIDTH 40 0
BBX 40 40 0 -6
BITMAP
0000000000
0000000000
00003e0000
0000ff8000
0001e3c000
0001c1c000
000381e000
000380e000
000700e000
000781e000
0007c1e000
0003c1e000
000181c000
000003c000
0000038000
0000070000
0000070000
00000e0000
00000e0000
00000c0000
00001c0000
0000180000
0000180000
0000180000
0000180000
0000180000
0000180000
0000000000
0000000000
0000000000
0000180000
00003c0000
00007e0000
00007e0000
00003c0000
0000180000
0000000000
0000000000
0000000000
0000000000
ENDCHAR
STARTCHAR 2135
ENCODING 8501
SWIDTH 903 0
DWIDTH 40 0
BBX 40 40 0 -6
BITMAP
0000000000
0000000000
00000c0000
00000c0000
00001e0000
00003f0000
00003f0000
00003f0000
00003f0000
00003f0000
00003f0000
00001e0000
00001e0000
00001e0000
00001e0000
00001e0000
00001e0000
00001e0000
00001e0000
00000c0000
00000c0000
00000c0000
00000c0000
00000c0000
00000c0000
00000c0000
00000c0000
0000000000
0000000000
0000000000
00000c0000
00001e0000
00003f0000
00003f0000
00001e0000
00000c0000
0000000000
0000000000
0000000000
0000000000
ENDCHAR
STARTCHAR 2136
ENCODING 8502
SWIDTH 903 0
DWIDTH 40 0
BBX 40 40 0 -6
BITMAP
0000380000
0000380000
0000380000
0000380000
0000380000
0000380000
0000380000
0000380000
0000380000
0000380000
0000380000
0000380000
0000380000
0000380000
0000380000
0000380000
0000380000
0000380000
0000380000
0000380000
0000380000
0000380000
0000380000
0000380000
0000380000
0000380000
0000380000
0000380000
0000380000
0000380000
0000380000
0000380000
0000380000
0000380000
0000380000
0000380000
0000380000
0000380000
0000380000
0000380000
ENDCHAR
STARTCHAR 2137
ENCODING 8503
SWIDTH 903 0
DWIDTH 40 0
BBX 40 40 0 -6
BITMAP
0000000000
0000000000
0000000000
0000000000
0000000000
0000000000
0000000000
0000000000
0000000000
0000000000
0000000000
0000000000
0000000000
0000000000
0000000000
0000000000
0000000000
0000000000
ffffffffff
ffffffffff
ffffffffff
0000000000
0000000000
0000000000
0000000000
0000000000
0000000000
0000000000
0000000000
0000000000
0000000000
0000000000
0000000000
0000000000
0000000000
0000000000
0000000000
0000000000
0000000000
0000000000
ENDCHAR
STARTCHAR 2138
ENCODING 8504
SWIDTH 903 0
DWIDTH 40 0
BBX 40 40 0 -6
BITMAP
0000100000
0000100000
0000100000
0000100000
0000100000
0000100000
0000100000
0000100000
0000100000
0000100000
0000100000
0000100000
0000100000
0000100000
0000100000
0000100000
0000100000
0000100000
0000100000
0000100000
0000100000
0000100000
0000100000
0000100000
0000100000
0000100000
0000100000
0000100000
0000100000
0000100000
0000100000
0000100000
0000100000
0000100000
0000100000
0000100000
0000100000
0000100000
0000100000
0000100000
ENDCHAR
STARTCHAR 2139
ENCODING 8505
SWIDTH 903 0
DWIDTH 40 0
BBX 40 40 0 -6
BITMAP
0000000000
0000000000
0000000000
0000000000
0000000000
0000000000
0000000000
0000000000
0000000000
0000000000
0000000000
0000000000
0000000000
0000000000
0000000000
0000000000
0000000000
0000000000
0000000000
ffffffffff
0000000000
0000000000
0000000000
0000000000
0000000000
0000000000
0000000000
0000000000
0000000000
0000000000
0000000000
0000000000
0000000000
0000000000
0000000000
0000000000
0000000000
0000000000
0000000000
0000000000
ENDCHAR
STARTCHAR 213a
ENCODING 8506
SWIDTH 903 0
DWIDTH 40 0
BBX 40 40 0 -6
BITMAP
0000000007
0000000007
0000000007
0000000007
0000000007
0000000007
0000000007
0000000007
0000000007
0000000007
0000000007
0000000007
0000000007
0000000007
0000000007
0000000007
0000000007
0000000007
0000000007
0000000007
0000000007
0000000007
0000000007
0000000007
0000000007
0000000007
0000000007
0000000007
0000000007
0000000007
0000000007
0000000007
0000000007
0000000007
0000000007
0000000007
0000000007
0000000007
0000000007
0000000007
ENDCHAR
STARTCHAR 213b
ENCODING 8507
SWIDTH 903 0
DWIDTH 40 0
BBX 40 40 0 -6
BITMAP
ffffffffff
ffffffffff
ffffffffff
0000000000
0000000000
0000000000
0000000000
0000000000
0000000000
0000000000
0000000000
0000000000
0000000000
0000000000
0000000000
0000000000
0000000000
0000000000
0000000000
0000000000
0000000000
0000000000
0000000000
0000000000
0000000000
0000000000
0000000000
0000000000
0000000000
0000000000
0000000000
0000000000
0000000000
0000000000
0000000000
0000000000
0000000000
0000000000
0000000000
0000000000
ENDCHAR
STARTCHAR 213c
ENCODING 8508
SWIDTH 903 0
DWIDTH 40 0
BBX 40 40 0 -6
BITMAP
00000000c0
00000000c0
00000000f0
000000007c
000000001e
0000000007
0000000003
0000000003
0000000007
000000001e
000000007c
00000000f0
00000000c0
00000000c0
00000000c0
00000000f0
000000007c
000000001e
0000000007
0000000003
0000000003
0000000007
000000001e
000000007c
00000000f0
00000000c0
00000000c0
00000000c0
00000000f0
000000007c
000000001e
0000000007
0000000003
0000000003
0000000007
000000001e
000000007c
00000000f0
00000000c0
00000000c0
ENDCHAR
STARTCHAR 213d
ENCODING 8509
SWIDTH 903 0
DWIDTH 40 0
BBX 40 40 0 -6
BITMAP
07803c01e0
0fc07e03f0
1ce0e70738
1860c30618
3871c38e1c
3031818c0c
f03f81fc0f
e01f00f807
0000000000
0000000000
0000000000
0000000000
0000000000
0000000000
0000000000
0000000000
0000000000
0000000000
0000000000
0000000000
0000000000
0000000000
0000000000
0000000000
0000000000
0000000000
0000000000
0000000000
0000000000
0000000000
0000000000
0000000000
0000000000
0000000000
0000000000
0000000000
0000000000
0000000000
0000000000
0000000000
ENDCHAR
STARTCHAR 213e
ENCODING 8510
SWIDTH 903 0
DWIDTH 40 0
BBX 40 40 0 -6
BITMAP
0000000006
000000000c
0000000038
0000000070
00000000e0
00000001c0
0000000380
0000000780
0000000700
0000000f00
0000000f00
0000000e00
0000001e00
0000001e00
0000001c00
0000003c00
0000003c00
0000003c00
0000003c00
0000003c00
0000003c00
0000003c00
0000003c00
0000003c00
0000003c00
0000001c00
0000001e00
0000001e00
0000000e00
0000000f00
0000000f00
0000000700
0000000780
0000000380
00000001c0
00000000e0
0000000070
0000000038
000000000c
0000000006
ENDCHAR
STARTCHAR 213f
ENCODING 8511
SWIDTH 903 0
DWIDTH 40 0
BBX 40 40 0 -6
BITMAP
6000000000
3000000000
1c00000000
0e00000000
0700000000
0380000000
01c0000000
01e0000000
00e0000000
00f0000000
00f0000000
0070000000
0078000000
0078000000
0038000000
003c000000
003c000000
003c000000
003c000000
003c000000
003c000000
003c000000
003c000000
003c000000
003c000000
0038000000
0078000000
0078000000
0070000000
00f0000000
00f0000000
00e0000000
01e0000000
01c0000000
0380000000
0700000000
0e00000000
1c00000000
3000000000
6000000000
ENDCHAR
STARTCHAR 2140
ENCODING 8512
SWIDTH 903 0
DWIDTH 40 0
BBX 40 40 0 -6
BITMAP
0000000000
0000000000
0000000000
0000000000
0000000000
0000000000
0000000000
0000000000
0000000000
0000000000
0000000000
0000000000
0000000000
0000000000
0000000000
0000000000
0000000000
0000000000
0000000000
0000000000
0000000000
0000000000
0000000000
0000000000
0000000000
0000000000
0001ff8000
000ffff000
007ffffe00
01ffffff80
03fc003fc0
07e00007e0
0f000000f0
1c00000038
380000001c
300000000c
6000000006
c000000003
8000000001
0000000000
ENDCHAR
STARTCHAR 2141
ENCODING 8513
SWIDTH 903 0
DWIDTH 40 0
BBX 40 40 0 -6
BITMAP
0000000000
8000000001
c000000003
6000000006
300000000c
380000001c
1c00000038
0f000000f0
07e00007e0
03fc003fc0
01ffffff80
007ffffe00
000ffff000
0001ff8000
0000000000
0000000000
0000000000
0000000000
0000000000
0000000000
0000000000
0000000000
0000000000
0000000000
0000000000
0000000000
0000000000
0000000000
0000000000
0000000000
0000000000
0000000000
0000000000
0000000000
0000000000
0000000000
0000000000
0000000000
0000000000
0000000000
ENDCHAR
STARTCHAR 2142
ENCODING 8514
SWIDTH 903 0
DWIDTH 40 0
BBX 40 40 0 -6
BITMAP
000000000e
000000003c
00000000f0
00000001e0
00000003c0
00000003c0
0000000780
0000000780
0000000780
0000000780
00000007c0
00000003c0
00000003c0
00000001c0
00000001c0
00000003c0
0000000380
0000000700
0000000e00
0000003800
0000003800
0000000e00
0000000700
0000000380
00000003c0
00000001c0
00000001c0
00000003c0
00000003c0
00000007c0
0000000780
0000000780
0000000780
0000000780
00000003c0
00000003c0
00000001e0
00000000f0
000000003c
000000000e
ENDCHAR
STARTCHAR 2143
ENCODING 8515
SWIDTH 903 0
DWIDTH 40 0
BBX 40 40 0 -6
BITMAP
7000000000
3c00000000
0f00000000
0780000000
03c0000000
03c0000000
01e0000000
01e0000000
01e0000000
01e0000000
03e0000000
03c0000000
03c0000000
0380000000
0380000000
03c0000000
01c0000000
00e0000000
0070000000
001c000000
001c000000
0070000000
00e0000000
01c0000000
03c0000000
0380000000
0380000000
03c0000000
03c0000000
03e0000000
01e0000000
01e0000000
01e0000000
01e0000000
03c0000000
03c0000000
0780000000
0f00000000
3c00000000
7000000000
ENDCHAR
STARTCHAR 2144
ENCODING 8516
SWIDTH 903 0
DWIDTH 40 0
BBX 40 40 0 -6
BITMAP
0000000000
0000000000
0000000000
0000000000
0000000000
0000000000
0000000000
0000000000
0000000000
0000000000
0000000000
0000000000
0000000000
0000000000
0000000000
0000000000
0000000000
0000000000
0000000000
0000000000
0000000000
0000000000
0000000000
0000000000
0000000000
0000180000
0000180000
00003c0000
03e06607c0
0ff9e79ff0
1fffc3fff8
3fff81fffc
3c3f00fc3c
780000001e
700000000e
6000000006
c000000003
c000000003
8000000001
0000000000
ENDCHAR
STARTCHAR 2145
ENCODING 8517
SWIDTH 903 0
DWIDTH 40 0
BBX 40 40 0 -6
BITMAP
0000000000
8000000001
c000000003
c000000003
6000000006
700000000e
780000001e
3c3f00fc3c
3fff81fffc
1fffc3fff8
0ff9e7cff0
03e06603e0
00003c0000
0000180000
0000180000
0000000000
0000000000
0000000000
0000000000
0000000000
0000000000
0000000000
0000000000
0000000000
0000000000
0000000000
0000000000
0000000000
0000000000
0000000000
0000000000
0000000000
0000000000
0000000000
0000000000
0000000000
0000000000
0000000000
0000000000
0000000000
ENDCHAR
STARTCHAR 2146
ENCODING 8518
SWIDTH 903 0
DWIDTH 40 0
BBX 40 40 0 -6
BITMAP
000000000e
000000007e
00000003fe
0000003ff0
000000ff80
000000fc00
000000e000
000000e000
000000e000
000000e000
000000e000
000000e000
000000e000
000000e000
000000e000
000000e000
000000e000
000000e000
000000e000
000000e000
000000e000
000000e000
000000e000
000000e000
000000e000
000000e000
000000e000
000000e000
000000e000
000000e000
000000e000
000000e000
000000e000
000000e000
000000fc00
000000ff80
0000003ff0
00000003fe
000000007e
000000000e
ENDCHAR
STARTCHAR 2147
ENCODING 8519
SWIDTH 903 0
DWIDTH 40 0
BBX 40 40 0 -6
BITMAP
7000000000
7e00000000
7fc0000000
0ffc000000
01ff000000
003f000000
0007000000
0007000000
0007000000
0007000000
0007000000
0007000000
0007000000
0007000000
0007000000
0007000000
0007000000
0007000000
0007000000
0007000000
0007000000
0007000000
0007000000
0007000000
0007000000
0007000000
0007000000
0007000000
0007000000
0007000000
0007000000
0007000000
0007000000
0007000000
003f000000
01ff000000
0ffc000000
7fc0000000
7e00000000
7000000000
ENDCHAR
STARTCHAR 2148
ENCODING 8520
SWIDTH 903 0
DWIDTH 40 0
BBX 40 40 0 -6
BITMAP
0000000000
0000000000
0000000000
0000000000
0000000000
0000000000
0000000000
0000000000
0000000000
0000000000
0000000000
0000000000
0000000000
0000000000
0000000000
0000000000
0000000000
0000000000
0000000000
0000000000
0000000000
0000000000
0000000000
0000000000
0ffffffff0
0ffffffff0
1ffffffff8
1c00000038
1c00000038
1c00000038
380000001c
380000001c
380000001c
700000000e
700000000e
700000000e
e000000007
e000000007
e000000007
0000000000
ENDCHAR
STARTCHAR 2149
ENCODING 8521
SWIDTH 903 0
DWIDTH 40 0
BBX 40 40 0 -6
BITMAP
0000000000
e000000007
e000000007
e000000007
700000000e
700000000e
700000000e
380000001c
380000001c
380000001c
1c00000038
1c00000038
1c00000038
1ffffffff8
0ffffffff0
0ffffffff0
0000000000
0000000000
0000000000
0000000000
0000000000
0000000000
0000000000
0000000000
0000000000
0000000000
0000000000
0000000000
0000000000
0000000000
0000000000
0000000000
0000000000
0000000000
0000000000
0000000000
0000000000
0000000000
0000000000
0000000000
ENDCHAR
STARTCHAR 214a
ENCODING 8522
SWIDTH 903 0
DWIDTH 40 0
BBX 40 40 0 -6
BITMAP
000001fffe
000001fff0
000001ff80
000001ff00
000001fe00
000001fc00
000001f800
000001f800
000001f000
000001f000
000001f000
000001e000
000001e000
000001e000
000001c000
000001c000
000001c000
000001c000
000001c000
000001c000
000001c000
000001c000
000001c000
000001c000
000001c000
000001c000
000001e000
000001e000
000001e000
000001f000
000001f000
000001f000
000001f800
000001f800
000001fc00
000001fe00
000001ff00
000001ff80
000001fff0
000001fffe
ENDCHAR
STARTCHAR 214b
ENCODING 8523
SWIDTH 903 0
DWIDTH 40 0
BBX 40 40 0 -6
BITMAP
7fff000000
1fff000000
03ff000000
01ff000000
00ff000000
007f000000
003f000000
003f000000
001f000000
001f000000
001f000000
000f000000
000f000000
000f000000
0007000000
0007000000
0007000000
0007000000
0007000000
0007000000
0007000000
0007000000
0007000000
0007000000
0007000000
0007000000
000f000000
000f000000
000f000000
001f000000
001f000000
001f000000
003f000000
003f000000
007f000000
00ff000000
01ff000000
03ff000000
1fff000000
7fff000000
ENDCHAR
STARTCHAR 214c
ENCODING 8524
SWIDTH 903 0
DWIDTH 40 0
BBX 40 40 0 -6
BITMAP
0000000000
0000000000
0000000000
0000000000
0000000000
0000000000
0000000000
0000000000
0000000000
0000000000
0000000000
0000000000
0000000000
0000000000
0000000000
0000000000
0000000000
0000000000
0000000000
0000000000
0000000000
0000000000
0000000000
0000000000
ffffffffff
ffffffffff
ffffffffff
fff8001fff
ffc00003ff
fe0000007f
fc0000003f
f80000001f
f00000000f
e000000007
e000000007
c000000003
c000000003
8000000001
8000000001
0000000000
ENDCHAR
STARTCHAR 214d
ENCODING 8525
SWIDTH 903 0
DWIDTH 40 0
BBX 40 40 0 -6
BITMAP
0000000000
8000000001
8000000001
c000000003
c000000003
e000000007
e000000007
f00000000f
f80000001f
fc0000003f
ff000000ff
ffe00007ff
fffc003fff
ffffffffff
ffffffffff
ffffffffff
0000000000
0000000000
0000000000
0000000000
0000000000
0000000000
0000000000
0000000000
0000000000
0000000000
0000000000
0000000000
0000000000
0000000000
0000000000
0000000000
0000000000
0000000000
0000000000
0000000000
0000000000
0000000000
0000000000
0000000000
ENDCHAR
STARTCHAR 214e
ENCODING 8526
SWIDTH 903 0
DWIDTH 40 0
BBX 40 40 0 -6
BITMAP
0000000606
0000000e0e
0000001e1e
0000003c3c
0000007878
000000f0f0
000001e1e0
000003c3c0
0000078780
00000f0f00
00001e1e00
00003c3c00
0000787800
0000f0f000
0001e1e000
0003c3c000
0007878000
000f0f0000
001e1e0000
003c3c0000
003c3c0000
001e1e0000
000f0f0000
0007878000
0003c3c000
0001e1e000
0000f0f000
0000787800
00003c3c00
00001e1e00
00000f0f00
0000078780
000003c3c0
000001e1e0
000000f0f0
0000007878
0000003c3c
0000001e1e
0000000e0e
0000000606
ENDCHAR
STARTCHAR 214f
ENCODING 8527
SWIDTH 903 0
DWIDTH 40 0
BBX 40 40 0 -6
BITMAP
6060000000
7070000000
7878000000
3c3c000000
1e1e000000
0f0f000000
0787800000
03c3c00000
01e1e00000
00f0f00000
0078780000
003c3c0000
001e1e0000
000f0f0000
0007878000
0003c3c000
0001e1e000
0000f0f000
0000787800
00003c3c00
00003c3c00
0000787800
0000f0f000
0001e1e000
0003c3c000
0007878000
000f0f0000
001e1e0000
003c3c0000
0078780000
00f0f00000
01e1e00000
03c3c00000
0787800000
0f0f000000
1e1e000000
3c3c000000
7878000000
7070000000
6060000000
ENDCHAR
STARTCHAR 2150
ENCODING 8528
SWIDTH 903 0
DWIDTH 40 0
BBX 40 40 0 -6
BITMAP
0000000000
0000000000
0000000000
0000000000
0000000000
0000000000
0000000000
0000000000
0000000000
0000000000
0000180000
00003c0000
00007e0000
0000ff0000
0001e78000
0003c3c000
000781e000
000f00f000
001e187800
003c3c3c00
00787e1e00
00f0ff0f00
01e1e78780
03c3c3c3c0
078781e1e0
0f0f00f0f0
1e1e007878
3c3c003c3c
7878001e1e
f0f0000f0f
e1e0000787
03c00003c0
07800001e0
0f000000f0
1e00000078
3c0000003c
780000001e
f00000000f
e000000007
0000000000
ENDCHAR
STARTCHAR 2151
ENCODING 8529
SWIDTH 903 0
DWIDTH 40 0
BBX 40 40 0 -6
BITMAP
0000000000
e000000007
f00000000f
780000001e
3c0000003c
1e00000078
0f000000f0
07800001e0
03c00003c0
e1e0000787
f0f0000f0f
7878001e1e
3c3c003c3c
1e1e007878
0f0f00f0f0
078781e1e0
03c3c3c3c0
01e1e78780
00f0ff0f00
00787e1e00
003c3c3c00
001e187800
000f00f000
000781e000
0003c3c000
0001e78000
0000ff0000
00007e0000
00003c0000
0000180000
0000000000
0000000000
0000000000
0000000000
0000000000
0000000000
0000000000
0000000000
0000000000
0000000000
ENDCHAR
STARTCHAR 2152
ENCODING 8530
SWIDTH 903 0
DWIDTH 40 0
BBX 40 40 0 -6
BITMAP
0000000006
000000000e
000000001e
000000003c
0000000078
00000000f0
00000001e0
00000003c0
0000000780
0000000f00
0000001e00
0000003c00
0000007800
000000f000
000001e000
000003c000
0000078000
00000f0000
00001e0000
00003c0000
00003c0000
00001e0000
00000f0000
0000078000
000003c000
000001e000
000000f000
0000007800
0000003c00
0000001e00
0000000f00
0000000780
00000003c0
00000001e0
00000000f0
0000000078
000000003c
000000001e
000000000e
0000000006
ENDCHAR
STARTCHAR 2153
ENCODING 8531
SWIDTH 903 0
DWIDTH 40 0
BBX 40 40 0 -6
BITMAP
6000000000
7000000000
7800000000
3c00000000
1e00000000
0f00000000
0780000000
03c0000000
01e0000000
00f0000000
0078000000
003c000000
001e000000
000f000000
0007800000
0003c00000
0001e00000
0000f00000
0000780000
00003c0000
00003c0000
0000780000
0000f00000
0001e00000
0003c00000
0007800000
000f000000
001e000000
003c000000
0078000000
00f0000000
01e0000000
03c0000000
0780000000
0f00000000
1e00000000
3c00000000
7800000000
7000000000
6000000000
ENDCHAR
STARTCHAR 2154
ENCODING 8532
SWIDTH 903 0
DWIDTH 40 0
BBX 40 40 0 -6
BITMAP
0000000000
0000000000
0000000000
0000000000
0000000000
0000000000
0000000000
0000000000
0000000000
0000000000
0000000000
0000000000
0000000000
0000000000
0000000000
0000000000
0000000000
0000000000
0000180000
00003c0000
00007e0000
0000ff0000
0001e78000
0003c3c000
000781e000
000f00f000
001e007800
003c003c00
0078001e00
00f0000f00
01e0000780
03c00003c0
07800001e0
0f000000f0
1e00000078
3c0000003c
780000001e
f00000000f
e000000007
0000000000
ENDCHAR
STARTCHAR 2155
ENCODING 8533
SWIDTH 903 0
DWIDTH 40 0
BBX 40 40 0 -6
BITMAP
0000000000
e000000007
f00000000f
780000001e
3c0000003c
1e00000078
0f000000f0
07800001e0
03c00003c0
01e0000780
00f0000f00
0078001e00
003c003c00
001e007800
000f00f000
000781e000
0003c3c000
0001e78000
0000ff0000
00007e0000
00003c0000
0000180000
0000000000
0000000000
0000000000
0000000000
0000000000
0000000000
0000000000
0000000000
0000000000
0000000000
0000000000
0000000000
0000000000
0000000000
0000000000
0000000000
0000000000
0000000000
ENDCHAR
STARTCHAR 2156
ENCODING 8534
SWIDTH 903 0
DWIDTH 40 0
BBX 40 40 0 -6
BITMAP
000001fffe
000001fffe
000001fffe
000001c000
000001c000
000001c000
000001c000
000001c000
000001c000
000001c000
000001c000
000001c000
000001c000
000001c000
000001c000
000001c000
000001c000
000001c000
000001c000
000001c000
000001c000
000001c000
000001c000
000001c000
000001c000
000001c000
000001c000
000001c000
000001c000
000001c000
000001c000
000001c000
000001c000
0000000000
0000000000
0000000000
0000000000
0000000000
0000000000
0000000000
ENDCHAR
STARTCHAR 2157
ENCODING 8535
SWIDTH 903 0
DWIDTH 40 0
BBX 40 40 0 -6
BITMAP
0000000000
0000000000
0000000000
0000000000
0000000000
0000000000
0000000000
0003800000
0003800000
0003800000
0003800000
0003800000
0003800000
0003800000
0003800000
0003800000
0003800000
0003800000
0003800000
0003800000
0003800000
0003800000
0003800000
0003800000
0003800000
0003800000
0003800000
0003800000
0003800000
0003800000
0003800000
0003800000
0003800000
0003800000
0003800000
0003800000
0003800000
7fff800000
7fff800000
7fff800000
ENDCHAR
STARTCHAR 2158
ENCODING 8536
SWIDTH 903 0
DWIDTH 40 0
BBX 40 40 0 -6
BITMAP
0000000000
0000000000
0000000000
0000000000
0000000000
0000000000
0000000000
0000000000
0000000000
0000000000
0000000000
0000000000
0000000000
0000000000
0000000000
0000000000
0000000000
0000000000
0000000000
0000000000
0000000000
0000000000
0000000000
01ffffffff
01ffffffff
01ffffffff
0000000007
0000000007
0000000007
0000000007
0000000007
0000000007
0000000007
0000000007
0000000007
0000000007
0000000007
0000000007
0000000007
0000000000
ENDCHAR
STARTCHAR 2159
ENCODING 8537
SWIDTH 903 0
DWIDTH 40 0
BBX 40 40 0 -6
BITMAP
0000000000
e000000000
e000000000
e000000000
e000000000
e000000000
e000000000
e000000000
e000000000
e000000000
e000000000
e000000000
e000000000
e000000000
ffffffff80
ffffffff80
ffffffff80
0000000000
0000000000
0000000000
0000000000
0000000000
0000000000
0000000000
0000000000
0000000000
0000000000
0000000000
0000000000
0000000000
0000000000
0000000000
0000000000
0000000000
0000000000
0000000000
0000000000
0000000000
0000000000
0000000000
ENDCHAR
STARTCHAR 215a
ENCODING 8538
SWIDTH 903 0
DWIDTH 40 0
BBX 40 40 0 -6
BITMAP
000007fffc
000007fffc
000006000c
000006000c
000006000c
0000063ffc
0000063ffc
0000063000
0000063000
0000063000
0000063000
0000063000
0000063000
0000063000
0000063000
0000063000
0000063000
0000063000
0000063000
0000063000
0000063000
0000063000
0000063000
0000063000
0000063000
0000063000
0000063000
0000063000
0000063000
000007f000
000007f000
0000000000
0000000000
0000000000
0000000000
0000000000
0000000000
0000000000
0000000000
0000000000
ENDCHAR
STARTCHAR 215b
ENCODING 8539
SWIDTH 903 0
DWIDTH 40 0
BBX 40 40 0 -6
BITMAP
0000000000
0000000000
0000000000
0000000000
0000000000
0000000000
0000000000
0000000000
0000000000
000fe00000
000fe00000
000c600000
000c600000
000c600000
000c600000
000c600000
000c600000
000c600000
000c600000
000c600000
000c600000
000c600000
000c600000
000c600000
000c600000
000c600000
000c600000
000c600000
000c600000
000c600000
000c600000
000c600000
000c600000
3ffc600000
3ffc600000
3000600000
3000600000
3000600000
3fffe00000
3fffe00000
ENDCHAR
STARTCHAR 215c
ENCODING 8540
SWIDTH 903 0
DWIDTH 40 0
BBX 40 40 0 -6
BITMAP
0000000000
0000000000
0000000000
0000000000
0000000000
0000000000
0000000000
0000000000
0000000000
0000000000
0000000000
0000000000
0000000000
0000000000
0000000000
0000000000
0000000000
0000000000
0000000000
0000000000
0000000000
007fffffff
007fffffff
0060000003
0060000003
0060000003
007fffffe3
007fffffe3
0000000063
0000000063
0000000063
0000000063
0000000063
0000000063
0000000063
0000000063
000000007f
000000007f
0000000000
0000000000
ENDCHAR
STARTCHAR 215d
ENCODING 8541
SWIDTH 903 0
DWIDTH 40 0
BBX 40 40 0 -6
BITMAP
0000000000
0000000000
fe00000000
fe00000000
c600000000
c600000000
c600000000
c600000000
c600000000
c600000000
c600000000
c600000000
c7fffffe00
c7fffffe00
c000000e00
c000000e00
c000000e00
fffffffe00
fffffffe00
0000000000
0000000000
0000000000
0000000000
0000000000
0000000000
0000000000
0000000000
0000000000
0000000000
0000000000
0000000000
0000000000
0000000000
0000000000
0000000000
0000000000
0000000000
0000000000
0000000000
0000000000
ENDCHAR
STARTCHAR 215e
ENCODING 8542
SWIDTH 903 0
DWIDTH 40 0
BBX 40 40 0 -6
BITMAP
0000000000
0000000000
0000000000
0000000000
000000000c
0000000018
0000000030
0000000070
00000000e0
00000001c0
0000000380
0000000380
0000000700
0000000700
0000000700
0000000e00
0000000e00
0000000e00
0000000e00
0000000e00
0000000e00
0000000e00
0000000e00
0000000e00
0000000e00
0000000700
0000000700
0000000700
0000000380
0000000380
00000001c0
00000000e0
0000000070
0000000030
0000000018
000000000c
0000000000
0000000000
0000000000
0000000000
ENDCHAR
STARTCHAR 215f
ENCODING 8543
SWIDTH 903 0
DWIDTH 40 0
BBX 40 40 0 -6
BITMAP
0000000000
0000000000
0000000000
0000000000
6000000000
3000000000
1800000000
0c00000000
0e00000000
0700000000
0380000000
0380000000
01c0000000
01c0000000
01c0000000
00e0000000
00e0000000
00e0000000
00e0000000
00e0000000
00e0000000
00e0000000
00e0000000
00e0000000
00e0000000
01c0000000
01c0000000
01c0000000
0380000000
0380000000
0700000000
0e00000000
0c00000000
1800000000
3000000000
6000000000
0000000000
0000000000
0000000000
0000000000
ENDCHAR
STARTCHAR 2160
ENCODING 8544
SWIDTH 903 0
DWIDTH 40 0
BBX 40 40 0 -6
BITMAP
0000000000
0000000000
0000000000
0000000000
0000000006
000000001c
0000000038
0000000070
0000000070
00000000e0
00000000e0
00000000e0
00000000c0
00000000c0
00000000c0
00000000c0
00000000c0
00000000c0
0000000180
0000000300
0000000300
0000000180
00000000c0
00000000c0
00000000c0
00000000c0
00000000c0
00000000c0
00000000e0
00000000e0
00000000e0
0000000070
0000000070
0000000038
000000001c
0000000006
0000000000
0000000000
0000000000
0000000000
ENDCHAR
STARTCHAR 2161
ENCODING 8545
SWIDTH 903 0
DWIDTH 40 0
BBX 40 40 0 -6
BITMAP
0000000000
0000000000
0000000000
0000000000
6000000000
3800000000
1c00000000
0e00000000
0e00000000
0700000000
0700000000
0700000000
0300000000
0300000000
0300000000
0300000000
0300000000
0300000000
0180000000
00c0000000
00c0000000
0380000000
0300000000
0300000000
0300000000
0300000000
0300000000
0300000000
0700000000
0700000000
0700000000
0e00000000
0e00000000
1c00000000
3800000000
6000000000
0000000000
0000000000
0000000000
0000000000
ENDCHAR
STARTCHAR 2162
ENCODING 8546
SWIDTH 903 0
DWIDTH 40 0
BBX 40 40 0 -6
BITMAP
0000000000
0000000000
0000000000
0000000000
000000000e
000000003e
0000000078
00000000e0
00000001c0
0000000380
0000000380
0000000380
0000000380
0000000380
0000000380
0000000380
0000000380
0000000380
0000000380
0000000380
0000000380
0000000380
0000000380
0000000380
0000000380
0000000380
0000000380
0000000380
0000000380
0000000380
0000000380
00000001c0
00000000e0
0000000078
000000003e
000000000e
0000000000
0000000000
0000000000
0000000000
ENDCHAR
STARTCHAR 2163
ENCODING 8547
SWIDTH 903 0
DWIDTH 40 0
BBX 40 40 0 -6
BITMAP
0000000000
0000000000
0000000000
0000000000
7000000000
7c00000000
1e00000000
0700000000
0380000000
01c0000000
01c0000000
01c0000000
01c0000000
01c0000000
01c0000000
01c0000000
01c0000000
01c0000000
01c0000000
01c0000000
01c0000000
01c0000000
01c0000000
01c0000000
01c0000000
01c0000000
01c0000000
01c0000000
01c0000000
01c0000000
01c0000000
0380000000
0700000000
1e00000000
7c00000000
7000000000
0000000000
0000000000
0000000000
0000000000
ENDCHAR
STARTCHAR 2164
ENCODING 8548
SWIDTH 903 0
DWIDTH 40 0
BBX 40 40 0 -6
BITMAP
0000000000
0000000000
0000000380
0000000e00
0000001c00
0000003800
0000007000
0000007000
0000007e00
0000007f00
0000007f00
0000003e00
0000001c00
0000000000
0000000000
0000000000
0000000000
0000000000
0000000000
0000000000
0000000000
0000000000
0000000000
0000000000
0000000000
0000000000
0000000000
0000000000
0000000000
0000000000
0000000000
0000000000
0000000000
0000000000
0000000000
0000000000
0000000000
0000000000
0000000000
0000000000
ENDCHAR
STARTCHAR 2165
ENCODING 8549
SWIDTH 903 0
DWIDTH 40 0
BBX 40 40 0 -6
BITMAP
0000000000
0000000000
0038000000
007c000000
00fe000000
00fe000000
007e000000
000e000000
000e000000
001c000000
0038000000
0070000000
01c0000000
0000000000
0000000000
0000000000
0000000000
0000000000
0000000000
0000000000
0000000000
0000000000
0000000000
0000000000
0000000000
0000000000
0000000000
0000000000
0000000000
0000000000
0000000000
0000000000
0000000000
0000000000
0000000000
0000000000
0000000000
0000000000
0000000000
0000000000
ENDCHAR
STARTCHAR 2166
ENCODING 8550
SWIDTH 903 0
DWIDTH 40 0
BBX 40 40 0 -6
BITMAP
0000000000
0000000000
000000e038
00000380e0
00000701c0
00000e0380
00001c0700
00001c0700
00001f87e0
00001fc7f0
00001fc7f0
00000f83e0
00000701c0
0000000000
0000000000
0000000000
0000000000
0000000000
0000000000
0000000000
0000000000
0000000000
0000000000
0000000000
0000000000
0000000000
0000000000
0000000000
0000000000
0000000000
0000000000
0000000000
0000000000
0000000000
0000000000
0000000000
0000000000
0000000000
0000000000
0000000000
ENDCHAR
STARTCHAR 2167
ENCODING 8551
SWIDTH 903 0
DWIDTH 40 0
BBX 40 40 0 -6
BITMAP
0000000000
0000000000
0380e00000
07c1f00000
0fe3f80000
0fe3f80000
07e1f80000
00e0380000
00e0380000
01c0700000
0380e00000
0701c00000
1c07000000
0000000000
0000000000
0000000000
0000000000
0000000000
0000000000
0000000000
0000000000
0000000000
0000000000
0000000000
0000000000
0000000000
0000000000
0000000000
0000000000
0000000000
0000000000
0000000000
0000000000
0000000000
0000000000
0000000000
0000000000
0000000000
0000000000
0000000000
ENDCHAR
STARTCHAR 2168
ENCODING 8552
SWIDTH 903 0
DWIDTH 40 0
BBX 40 40 0 -6
BITMAP
0000000380
000000e1c0
00000070f0
0000003c78
0000001e3c
0000000f3c
0000000f1c
0000000700
0000000000
0000000000
0000000000
0000000000
0000000000
0000000000
0000000000
0000000000
0000000000
0000000000
0000000000
0000000000
0000000000
0000000000
0000000000
0000000000
0000000000
0000000000
0000000000
0000000000
0000000000
0000000000
0000000000
0000000000
0000000000
0000000000
0000000000
0000000000
0000000000
0000000000
0000000000
0000000000
ENDCHAR
STARTCHAR 2169
ENCODING 8553
SWIDTH 903 0
DWIDTH 40 0
BBX 40 40 0 -6
BITMAP
01c0000000
03c3800000
03c7800000
0787800000
0f0f000000
1c1e000000
3838000000
0070000000
0000000000
0000000000
0000000000
0000000000
0000000000
0000000000
0000000000
0000000000
0000000000
0000000000
0000000000
0000000000
0000000000
0000000000
0000000000
0000000000
0000000000
0000000000
0000000000
0000000000
0000000000
0000000000
0000000000
0000000000
0000000000
0000000000
0000000000
0000000000
0000000000
0000000000
0000000000
0000000000
ENDCHAR
STARTCHAR 216a
ENCODING 8554
SWIDTH 903 0
DWIDTH 40 0
BBX 40 40 0 -6
BITMAP
0000000700
0000000380
00000001e0
00000000f0
0000000078
0000000078
0000000038
0000000000
0000000000
0000000000
0000000000
0000000000
0000000000
0000000000
0000000000
0000000000
0000000000
0000000000
0000000000
0000000000
0000000000
0000000000
0000000000
0000000000
0000000000
0000000000
0000000000
0000000000
0000000000
0000000000
0000000000
0000000000
0000000000
0000000000
0000000000
0000000000
0000000000
0000000000
0000000000
0000000000
ENDCHAR
STARTCHAR 216b
ENCODING 8555
SWIDTH 903 0
DWIDTH 40 0
BBX 40 40 0 -6
BITMAP
00e0000000
01e0000000
01e0000000
03c0000000
0780000000
0e00000000
1c00000000
0000000000
0000000000
0000000000
0000000000
0000000000
0000000000
0000000000
0000000000
0000000000
0000000000
0000000000
0000000000
0000000000
0000000000
0000000000
0000000000
0000000000
0000000000
0000000000
0000000000
0000000000
0000000000
0000000000
0000000000
0000000000
0000000000
0000000000
0000000000
0000000000
0000000000
0000000000
0000000000
0000000000
ENDCHAR
STARTCHAR 216c
ENCODING 8556
SWIDTH 903 0
DWIDTH 40 0
BBX 40 40 0 -6
BITMAP
0000000000
0000000000
001c003800
001c003800
001c003800
001c003800
001c003800
001c003800
001c003800
001c003ff8
001c0ffff8
001ffffff8
1ffffffff8
1ffffff800
1ffff03800
1ffc003800
001c003800
001c003800
001c003800
001c003800
001c003800
001c003800
001c003ff8
001c0ffff8
001ffffff8
1ffffffff8
1ffffff800
1ffff03800
1ffc003800
001c003800
001c003800
001c003800
001c003800
001c003800
001c003800
001c003800
0000000000
0000000000
0000000000
0000000000
ENDCHAR
STARTCHAR 216d
ENCODING 8557
SWIDTH 903 0
DWIDTH 40 0
BBX 40 40 0 -6
BITMAP
0000000000
0000000000
0000fc0000
0003fe0000
0007870000
0007038000
000f03c000
000e01c000
001e01c000
001e01c000
001e03c000
001e038000
001e038000
001e070000
000e1e0000
000f3c0000
0007f00000
0007e07fc0
000fc01f00
003fc00c00
0079e00c00
00f1e00c00
00f0f01c00
00e0f01800
01e0783800
01e07c3000
01e03f7040
01e01fe040
01e00fc040
00e007c0c0
00f007e0c0
00780ff1c0
007e3efb80
003ffe7f80
001ffc3f00
0007f01c00
0000000000
0000000000
0000000000
0000000000
ENDCHAR
STARTCHAR 216e
ENCODING 8558
SWIDTH 903 0
DWIDTH 40 0
BBX 40 40 0 -6
BITMAP
0000000000
0000000000
0000000000
0000000000
0000000000
0000000000
0000080000
0000080000
0000080000
0000080000
0000080000
180008000c
0600080030
01800800c0
0060080300
0018080c00
0006083000
000188c000
00007f0000
3ffffffffe
00007f0000
000188c000
0006083000
0018080c00
0060080300
01800800c0
0600080030
180008000c
0000080000
0000080000
0000080000
0000080000
0000080000
0000000000
0000000000
0000000000
0000000000
0000000000
0000000000
0000000000
ENDCHAR
STARTCHAR 216f
ENCODING 8559
SWIDTH 903 0
DWIDTH 40 0
BBX 40 40 0 -6
BITMAP
0000000000
0000000000
0600000030
0f001c0078
0f803e00f8
07c07f01f0
03e07f03e0
01f07f07c0
00f83e0f80
007c1c1f00
003e003e00
001f007c00
000f80f800
0007c1f000
0003e3e000
00e1f7c380
01f0ff87c0
03f87f0fe0
03f83e0fe0
03f87f0fe0
01f0ff07c0
00e1ff8380
0003e7c000
0007c3e000
000f81f000
001f00f800
003e007c00
007c1c3e00
00f83e1f00
01f07f0f80
03e07f07c0
07c07f03e0
0f803e01f0
1f001c00f8
1e00000078
0c00000030
0000000000
0000000000
0000000000
0000000000
ENDCHAR
STARTCHAR 2170
ENCODING 8560
SWIDTH 903 0
DWIDTH 40 0
BBX 40 40 0 -6
BITMAP
0000000000
0000000000
0001ff8000
0007ffe000
000f80f000
000f007800
001e003800
001e007800
001e01f800
001f01f800
000fc0f000
0007e00000
0001fc0000
0001ff0000
00070fc000
000e03f000
001c00f800
001c007c00
001c003c00
001e001c00
000f001c00
0007c01800
0003e07000
0000fce000
00003f8000
00000fe000
000003f000
000600f800
000f807c00
000f803c00
000f003c00
000e007c00
000f00f800
0007c1f000
0003ffe000
0000ff8000
0000000000
0000000000
0000000000
0000000000
ENDCHAR
STARTCHAR 2171
ENCODING 8561
SWIDTH 903 0
DWIDTH 40 0
BBX 40 40 0 -6
BITMAP
0000000000
0000000000
0000000000
0000000000
0000000000
0000000000
0000000000
0000000000
0000000000
0000000000
0000c01800
0001f03e00
0001f83f00
0001f83f00
0001f83f00
0001f03e00
0001f03e00
0001e03c00
0003e07c00
0003e07c00
0003c07800
0003c07800
000780f000
000780f000
000700e000
000f01e000
000e01c000
001c038000
0018070000
0030060000
00600c0000
00c0180000
0000000000
0000000000
0000000000
0000000000
0000000000
0000000000
0000000000
0000000000
ENDCHAR
STARTCHAR 2172
ENCODING 8562
SWIDTH 903 0
DWIDTH 40 0
BBX 40 40 0 -6
BITMAP
0000000000
0000000000
0001ff8000
000ffff000
003e00fc00
0078001e00
00e0000700
01c0000380
03800001c0
07000000e0
07000000e0
0e00000070
0e00000070
0e00000070
1c00000038
1c00000038
1c00000038
1c00000038
1c00000038
1c00000038
1c00000038
1c00000038
1c00000038
1c00000038
0e00000070
0e00000070
0e00000070
07000000e0
07000000e0
03800001c0
01c0000380
00f0000700
007c001e00
001e00fc00
0007fff000
0001ff8000
0000000000
0000000000
0000000000
0000000000
ENDCHAR
STARTCHAR 2173
ENCODING 8563
SWIDTH 903 0
DWIDTH 40 0
BBX 40 40 0 -6
BITMAP
0000000000
0000000000
0001ff8000
000ffff000
003ffffc00
007ffffe00
00ffffff00
01ffffff80
03ffffffc0
07ffffffe0
07ffffffe0
0ffffffff0
0ffffffff0
0ffffffff0
1ffffffff8
1ffffffff8
1ffffffff8
1ffffffff8
1ffffffff8
1ffffffff8
1ffffffff8
1ffffffff8
1ffffffff8
1ffffffff8
0ffffffff0
0ffffffff0
0ffffffff0
07ffffffe0
07ffffffe0
03ffffffc0
01ffffff80
00ffffff00
007ffffe00
001ffffc00
0007fff000
0001ff8000
0000000000
0000000000
0000000000
0000000000
ENDCHAR
STARTCHAR 2174
ENCODING 8564
SWIDTH 903 0
DWIDTH 40 0
BBX 40 40 0 -6
BITMAP
0000000000
0000000000
0000180000
0000180000
00003c0000
00003c0000
00007e0000
0000660000
0000e70000
0000c30000
0001c38000
0001818000
000381c000
000300c000
000700e000
0006006000
000e007000
000c003000
001c003800
0018001800
0038001c00
0030000c00
0070000e00
0060000600
00e0000700
00c0000300
01c0000380
0180000180
03800001c0
03000000c0
07000000e0
0600000060
0e00000070
0ffffffff0
1ffffffff8
1ffffffff8
0000000000
0000000000
0000000000
0000000000
ENDCHAR
STARTCHAR 2175
ENCODING 8565
SWIDTH 903 0
DWIDTH 40 0
BBX 40 40 0 -6
BITMAP
0000000000
0000000000
0000180000
0000180000
00003c0000
00003c0000
00007e0000
00007e0000
0000ff0000
0000ff0000
0001ff8000
0001ff8000
0003ffc000
0003ffc000
0007ffe000
0007ffe000
000ffff000
000ffff000
001ffff800
001ffff800
003ffffc00
003ffffc00
007ffffe00
007ffffe00
00ffffff00
00ffffff00
01ffffff80
01ffffff80
03ffffffc0
03ffffffc0
07ffffffe0
07ffffffe0
0ffffffff0
0ffffffff0
1ffffffff8
1ffffffff8
0000000000
0000000000
0000000000
0000000000
ENDCHAR
STARTCHAR 2176
ENCODING 8566
SWIDTH 903 0
DWIDTH 40 0
BBX 40 40 0 -6
BITMAP
0000000000
0000000000
0001ff8000
000ffff000
003f00fc00
0078001e00
00e0000700
01c0000380
03800001c0
07000000e0
07007e00e0
0e01ff8070
0e0781e070
0e0e007070
1c1c003838
1c1c003838
1c38001c38
1c38001c38
1c38001c38
1c38001c38
1c38001c38
1c38001c38
1c38001c38
1c1c003838
0e1c003870
0e0e007070
0e0781e070
0701ff80e0
07007e00e0
03800001c0
01c0000380
00f0000700
007c001e00
001f00fc00
0007fff000
0001ff8000
0000000000
0000000000
0000000000
0000000000
ENDCHAR
STARTCHAR 2177
ENCODING 8567
SWIDTH 903 0
DWIDTH 40 0
BBX 40 40 0 -6
BITMAP
0000000000
0000000000
0000180000
00003c0000
00003c0000
00007e0000
0000660000
0000660000
0000e70000
0000c30000
0000c30000
0001c38000
0001818000
0001818000
000381c000
3fff00fffc
380000001c
1e00000078
07000000e0
03c00003c0
00e0000700
0070000e00
0038001c00
001c003800
000e007000
000e007000
001c003800
001c003800
0038181c00
00703c0e00
0070660e00
00e1c38700
00e381c700
01c6006380
01dc003b80
03f0000fc0
03c00003c0
0180000180
0000000000
0000000000
ENDCHAR
STARTCHAR 2178
ENCODING 8568
SWIDTH 903 0
DWIDTH 40 0
BBX 40 40 0 -6
BITMAP
0000000000
0000000000
0000180000
00003c0000
00003c0000
00007e0000
00007e0000
00007e0000
0000ff0000
0000ff0000
0000ff0000
0001ff8000
0001ff8000
0003ffc000
0003ffc000
3ffffffffc
3ffffffffc
1ffffffff8
0ffffffff0
07ffffffe0
03ffffffc0
00ffffff00
007ffffe00
001ffff800
000ffff000
001ffff800
003ffffc00
003ffffc00
007ffffe00
00ffffff00
00ffe7ff00
01ffc3ff80
01ff81ff80
03fe007fc0
03fc003fc0
07f0000fe0
07c00003e0
03000000c0
0000000000
0000000000
ENDCHAR
STARTCHAR 2179
ENCODING 8569
SWIDTH 903 0
DWIDTH 40 0
BBX 40 40 0 -6
BITMAP
0000000000
0000000000
0000180000
00003c0000
00007e0000
0000ff0000
0001e78000
0003c3c000
000781e000
000f00f000
001e007800
003c003c00
0078001e00
00f0000f00
01e0000780
03c00003c0
07800001e0
0f000000f0
1e00000078
3c0000003c
3c0000003c
1e00000078
0f000000f0
07800001e0
03c00003c0
01e0000780
00f0000f00
0078001e00
003c003c00
001e007800
000f00f000
000781e000
0003c3c000
0001e78000
0000ff0000
00007e0000
00003c0000
0000180000
0000000000
0000000000
ENDCHAR
STARTCHAR 217a
ENCODING 8570
SWIDTH 903 0
DWIDTH 40 0
BBX 40 40 0 -6
BITMAP
0000000000
0000000000
0000180000
00003c0000
00007e0000
0000ff0000
0001ff8000
0003ffc000
0007ffe000
000ffff000
001ffff800
003ffffc00
007ffffe00
00ffffff00
01ffffff80
03ffffffc0
07ffffffe0
0ffffffff0
1ffffffff8
3ffffffffc
3ffffffffc
1ffffffff8
0ffffffff0
07ffffffe0
03ffffffc0
01ffffff80
00ffffff00
007ffffe00
003ffffc00
001ffff800
000ffff000
0007ffe000
0003ffc000
0001ff8000
0000ff0000
00007e0000
00003c0000
0000180000
0000000000
0000000000
ENDCHAR
STARTCHAR 217b
ENCODING 8571
SWIDTH 903 0
DWIDTH 40 0
BBX 40 40 0 -6
BITMAP
0000000000
0000000000
1ffffffff8
1ffffffff8
1ffffffff8
1c00000038
1c00000038
1c00000038
1c00000038
1c00000038
1c00000038
1c00000038
1c00000038
1c00000038
1c00000038
1c00000038
1c00000038
1c00000038
1c00000038
1c00000038
1c00000038
1c00000038
1c00000038
1c00000038
1c00000038
1c00000038
1c00000038
1c00000038
1c00000038
1c00000038
1c00000038
1c00000038
1c00000038
1ffffffff8
1ffffffff8
1ffffffff8
0000000000
0000000000
0000000000
0000000000
ENDCHAR
STARTCHAR 217c
ENCODING 8572
SWIDTH 903 0
DWIDTH 40 0
BBX 40 40 0 -6
BITMAP
0000000000
0000000000
1ffffffff8
1ffffffff8
1ffffffff8
1ffffffff8
1ffffffff8
1ffffffff8
1ffffffff8
1ffffffff8
1ffffffff8
1ffffffff8
1ffffffff8
1ffffffff8
1ffffffff8
1ffffffff8
1ffffffff8
1ffffffff8
1ffffffff8
1ffffffff8
1ffffffff8
1ffffffff8
1ffffffff8
1ffffffff8
1ffffffff8
1ffffffff8
1ffffffff8
1ffffffff8
1ffffffff8
1ffffffff8
1ffffffff8
1ffffffff8
1ffffffff8
1ffffffff8
1ffffffff8
1ffffffff8
0000000000
0000000000
0000000000
0000000000
ENDCHAR
STARTCHAR 217d
ENCODING 8573
SWIDTH 903 0
DWIDTH 40 0
BBX 40 40 0 -6
BITMAP
0000000000
0000000000
1ffffffff8
1ffffffff8
0ffffffff0
0e00000070
0600000060
07000000e0
03000000c0
03800001c0
0180000180
01c0000380
00c0000300
00e0000700
0060000600
0070000e00
0030000c00
0038001c00
0018001800
001c003800
000c003000
000e007000
0006006000
000700e000
000300c000
000381c000
0001818000
0001c38000
0000c30000
0000e70000
0000660000
00007e0000
00003c0000
00003c0000
0000180000
0000180000
0000000000
0000000000
0000000000
0000000000
ENDCHAR
STARTCHAR 217e
ENCODING 8574
SWIDTH 903 0
DWIDTH 40 0
BBX 40 40 0 -6
BITMAP
0000000000
0000000000
1ffffffff8
1ffffffff8
0ffffffff0
0ffffffff0
07ffffffe0
07ffffffe0
03ffffffc0
03ffffffc0
01ffffff80
01ffffff80
00ffffff00
00ffffff00
007ffffe00
007ffffe00
003ffffc00
003ffffc00
001ffff800
001ffff800
000ffff000
000ffff000
0007ffe000
0007ffe000
0003ffc000
0003ffc000
0001ff8000
0001ff8000
0000ff0000
0000ff0000
00007e0000
00007e0000
00003c0000
00003c0000
0000180000
0000180000
0000000000
0000000000
0000000000
0000000000
ENDCHAR
STARTCHAR 2221
ENCODING 8737
SWIDTH 903 0
DWIDTH 40 0
BBX 40 40 0 -6
BITMAP
0000000000
0000000000
0001ff8000
000ffff000
003e00fc00
0078001e00
00e0000700
01c0000b80
0380001dc0
071ffffce0
07001c00e0
0e001c0070
0e001c0070
0e001c0070
1c001c0038
1c001c0038
1c061c0038
1c079c1038
1c071c3838
1c071ff838
1c071c0038
1c071c0038
1c071c0038
1c071c0038
0e071c0070
0e071c0070
0e071c0470
07071c0ee0
077ffffee0
03800001c0
01c0000380
00f0000700
007c001e00
001e00fc00
0007fff000
0001ff8000
0000000000
0000000000
0000000000
0000000000
ENDCHAR
STARTCHAR 2222
ENCODING 8738
SWIDTH 903 0
DWIDTH 40 0
BBX 40 40 0 -6
BITMAP
0000000000
0000000000
000000001c
00f8000038
03fe000070
07070000e0
0e038001c0
1c01800380
1c01800700
3800800e00
3800001c00
3800003800
3800007000
380000e000
380081c000
3800838000
1c01870000
1c030e1f00
0e071c7fc0
070e38e0e0
03fc71c070
00f0e38038
0001c38038
000387001c
000707001c
000e07001c
001c07001c
003807001c
007007001c
00e007001c
01c0038038
0380038038
070001c070
0e0000e0e0
1c00007fc0
3800001f00
0000000000
0000000000
0000000000
0000000000
ENDCHAR
STARTCHAR 2223
ENCODING 8739
SWIDTH 903 0
DWIDTH 40 0
BBX 40 40 0 -6
BITMAP
ffffffffff
0000000000
0000000000
0000000000
0000000000
0000000000
0000000000
0000000000
0000000000
0000000000
0000000000
0000000000
0000000000
0000000000
0000000000
0000000000
0000000000
0000000000
0000000000
0000000000
0000000000
0000000000
0000000000
0000000000
0000000000
0000000000
0000000000
0000000000
0000000000
0000000000
0000000000
0000000000
0000000000
0000000000
0000000000
0000000000
0000000000
0000000000
0000000000
0000000000
ENDCHAR
STARTCHAR 2224
ENCODING 8740
SWIDTH 903 0
DWIDTH 40 0
BBX 40 40 0 -6
BITMAP
ffffffffff
ffffffffff
ffffffffff
0000000000
0000000000
0000000000
0000000000
0000000000
0000000000
0000000000
0000000000
0000000000
0000000000
0000000000
0000000000
0000000000
0000000000
0000000000
0000000000
0000000000
0000000000
0000000000
0000000000
0000000000
0000000000
0000000000
0000000000
0000000000
0000000000
0000000000
0000000000
0000000000
0000000000
0000000000
0000000000
0000000000
0000000000
0000000000
0000000000
0000000000
ENDCHAR
STARTCHAR 2225
ENCODING 8741
SWIDTH 903 0
DWIDTH 40 0
BBX 40 40 0 -6
BITMAP
0000000000
0000000000
0000000000
0000000000
0000000000
0000000000
0000000000
0000000000
0000000000
0000000000
0000000000
0000000000
0000000000
0000000000
0000000000
0000000000
0000000000
0000000000
0000000000
0000000000
0000000000
0000000000
0000000000
0000000000
0000000000
0000000000
0000000000
0000000000
0000000000
0000000000
0000000000
0000000000
0000000000
0000000000
0000000000
0000000000
0000000000
0000000000
0000000000
ffffffffff
ENDCHAR
STARTCHAR 2226
ENCODING 8742
SWIDTH 903 0
DWIDTH 40 0
BBX 40 40 0 -6
BITMAP
0000000000
0000000000
0000000000
0000000000
0000000000
0000000000
0000000000
0000000000
0000000000
0000000000
0000000000
0000000000
0000000000
0000000000
0000000000
0000000000
0000000000
0000000000
0000000000
0000000000
0000000000
0000000000
0000000000
0000000000
0000000000
0000000000
0000000000
0000000000
0000000000
0000000000
0000000000
0000000000
0000000000
0000000000
0000000000
0000000000
0000000000
ffffffffff
ffffffffff
ffffffffff
ENDCHAR
STARTCHAR 2227
ENCODING 8743
SWIDTH 903 0
DWIDTH 40 0
BBX 40 40 0 -6
BITMAP
3fe1ff87fc
3fe1ff87fc
3fe1ff87fc
0000000000
0000000000
0000000000
0000000000
0000000000
0000000000
0000000000
0000000000
0000000000
0000000000
0000000000
0000000000
0000000000
0000000000
0000000000
0000000000
0000000000
0000000000
0000000000
0000000000
0000000000
0000000000
0000000000
0000000000
0000000000
0000000000
0000000000
0000000000
0000000000
0000000000
0000000000
0000000000
0000000000
0000000000
0000000000
0000000000
0000000000
ENDCHAR
STARTCHAR 2228
ENCODING 8744
SWIDTH 903 0
DWIDTH 40 0
BBX 40 40 0 -6
BITMAP
3ffe7e7ffc
3ffe7e7ffc
3ffe7e7ffc
0000000000
0000000000
0000000000
0000000000
0000000000
0000000000
0000000000
0000000000
0000000000
0000000000
0000000000
0000000000
0000000000
0000000000
0000000000
0000000000
0000000000
0000000000
0000000000
0000000000
0000000000
0000000000
0000000000
0000000000
0000000000
0000000000
0000000000
0000000000
0000000000
0000000000
0000000000
0000000000
0000000000
0000000000
0000000000
0000000000
0000000000
ENDCHAR
STARTCHAR 2229
ENCODING 8745
SWIDTH 903 0
DWIDTH 40 0
BBX 40 40 0 -6
BITMAP
0000000000
0000000000
0000000000
0000000000
0000000000
0000000000
0000000000
0000000000
0000000000
0000000000
0000000000
0000000000
0000000000
0000000000
0000000000
0000000000
0000000000
0000000000
0000000000
0000000000
0000000000
0000000000
0000000000
0000000000
0000000000
0000000000
0000000000
0000000000
0000000000
0000000000
0000000000
0000000000
0000000000
0000000000
0000000000
0000000000
0000000000
3ff0ff87fc
3ff0ff87fc
3ff0ff87fc
ENDCHAR
STARTCHAR 222a
ENCODING 8746
SWIDTH 903 0
DWIDTH 40 0
BBX 40 40 0 -6
BITMAP
0000000000
0000000000
0000000000
0000000000
0000000000
0000000000
0000000000
0000000000
0000000000
0000000000
0000000000
0000000000
0000000000
0000000000
0000000000
0000000000
0000000000
0000000000
0000000000
0000000000
0000000000
0000000000
0000000000
0000000000
0000000000
0000000000
0000000000
0000000000
0000000000
0000000000
0000000000
0000000000
0000000000
0000000000
0000000000
0000000000
0000000000
3ffe7c7ffc
3ffe7c7ffc
3ffe7c7ffc
ENDCHAR
STARTCHAR 222b
ENCODING 8747
SWIDTH 903 0
DWIDTH 40 0
BBX 40 40 0 -6
BITMAP
01f0001f00
03f8003f80
071c0071c0
0e0e00e0e0
1c0701c070
3803838038
7001c7001c
e000fe000f
c0007c0007
0000000000
0000000000
0000000000
0000000000
0000000000
0000000000
0000000000
0000000000
0000000000
0000000000
0000000000
0000000000
0000000000
0000000000
0000000000
0000000000
0000000000
0000000000
0000000000
0000000000
0000000000
0000000000
0000000000
0000000000
0000000000
0000000000
0000000000
0000000000
0000000000
0000000000
0000000000
ENDCHAR
STARTCHAR 222c
ENCODING 8748
SWIDTH 903 0
DWIDTH 40 0
BBX 40 40 0 -6
BITMAP
01f8001f80
03fc003fc0
079e0079e0
0f0f00f0f0
1e0781e078
3c03c3c03c
7801e7801e
f000ff000f
e0007e0007
0000000000
0000000000
0000000000
0000000000
0000000000
0000000000
0000000000
0000000000
0000000000
0000000000
0000000000
0000000000
0000000000
0000000000
0000000000
0000000000
0000000000
0000000000
0000000000
0000000000
0000000000
0000000000
0000000000
0000000000
0000000000
0000000000
0000000000
0000000000
0000000000
0000000000
0000000000
ENDCHAR
STARTCHAR 222d
ENCODING 8749
SWIDTH 903 0
DWIDTH 40 0
BBX 40 40 0 -6
BITMAP
0000000000
0000000000
0001818000
0001818000
0001818000
0001818000
0001818000
0001818000
0001818000
000181f000
00018ff000
0001fff000
000fff8000
000ff18000
000f818000
0001818000
0001818000
0001818000
0001818000
0001818000
0001818000
0001818000
0001818000
000181f000
00018ff000
0001fff000
000fff8000
000ff18000
000f818000
0001818000
0001818000
0001818000
0001818000
0001818000
0001818000
0001818000
0000000000
0000000000
0000000000
0000000000
ENDCHAR
STARTCHAR 222e
ENCODING 8750
SWIDTH 903 0
DWIDTH 40 0
BBX 40 40 0 -6
BITMAP
0000000000
0000000000
00000f0000
00003f8000
000079c000
0000e1c000
0000e1c000
0001c1c000
0001c1c000
0001c18000
0001c38000
0001c30000
0001c60000
0001cc0000
0000f80000
0000f00000
0000f00000
0000e0f800
0001f07000
0003702000
0003702000
0006382000
0006386000
000e386000
000e186000
000e1ce000
000e1cc000
000e0dc000
000e0f8800
000e070800
000e071800
000f071800
00078fb000
0007fff000
0003f9e000
0001f0c000
0000000000
0000000000
0000000000
0000000000
ENDCHAR
STARTCHAR 222f
ENCODING 8751
SWIDTH 903 0
DWIDTH 40 0
BBX 40 40 0 -6
BITMAP
0000000000
0000000000
0000000000
0000000000
0000000000
0000000000
0000000000
0000080000
0000080000
0000080000
0000080000
0008080800
0004081000
0002082000
0001084000
0000888000
0000490000
00002a0000
00001c0000
0000080000
00001c0000
00002a0000
0000490000
0000888000
0001084000
0002082000
0004081000
0008080800
0000080000
0000080000
0000080000
0000080000
0000000000
0000000000
0000000000
0000000000
0000000000
0000000000
0000000000
0000000000
ENDCHAR
STARTCHAR 2230
ENCODING 8752
SWIDTH 903 0
DWIDTH 40 0
BBX 40 40 0 -6
BITMAP
0000000000
0000000000
0000000000
0000000000
0000380000
0000380000
0000380000
0000380000
0000380000
0000380000
0000380000
0000380000
0000380000
0000380000
0000380000
0000380000
0000380000
0fffffffe0
0fffffffe0
0fffffffe0
0000380000
0000380000
0000380000
0000380000
0000380000
0000380000
0000380000
0000380000
0000380000
0000380000
0000380000
0000380000
0000380000
0000380000
0000000000
0000000000
0000000000
0000000000
0000000000
0000000000
ENDCHAR
STARTCHAR 2231
ENCODING 8753
SWIDTH 903 0
DWIDTH 40 0
BBX 40 40 0 -6
BITMAP
0000000000
0000000000
0000000000
0000000000
0000000000
0000000000
0000000000
0000000000
0000000000
0000000000
0000000000
0000000000
0000000000
0000000000
0000000000
0000000000
0000000000
0fffffffe0
0fffffffe0
0fffffffe0
0000000000
0000000000
0000000000
0000000000
0000000000
0000000000
0000000000
0000000000
0000000000
0000000000
0000000000
0000000000
0000000000
0000000000
0000000000
0000000000
0000000000
0000000000
0000000000
0000000000
ENDCHAR
STARTCHAR 2232
ENCODING 8754
SWIDTH 903 0
DWIDTH 40 0
BBX 40 40 0 -6
BITMAP
0000000000
0000000000
0000000000
0000000000
01800000c0
03c00001e0
03e00003e0
01f00007c0
00f8000f80
007c001f00
003e003e00
001f007c00
000f80f800
0007c1f000
0003e3e000
0001f7c000
0000ff8000
00007f0000
00003e0000
00007f0000
0000ff0000
0001ff8000
0003e7c000
0007c3e000
000f81f000
001f00f800
003e007c00
007c003e00
00f8001f00
01f0000f80
03e00007c0
07c00003e0
07800001e0
03000000c0
0000000000
0000000000
0000000000
0000000000
0000000000
0000000000
ENDCHAR
STARTCHAR 2233
ENCODING 8755
SWIDTH 903 0
DWIDTH 40 0
BBX 40 40 0 -6
BITMAP
0000000000
0000000000
0000000000
0000000000
0000000000
0000380000
00007c0000
0000fe0000
0000fe0000
0000fe0000
00007c0000
0000380000
0000000000
0000000000
0000000000
0000000000
0000000000
0fffffffe0
0fffffffe0
0fffffffe0
0000000000
0000000000
0000000000
0000000000
0000000000
0000380000
00007c0000
0000fe0000
0000fe0000
0000fe0000
00007c0000
0000380000
0000000000
0000000000
0000000000
0000000000
0000000000
0000000000
0000000000
0000000000
ENDCHAR
STARTCHAR 2234
ENCODING 8756
SWIDTH 903 0
DWIDTH 40 0
BBX 40 40 0 -6
BITMAP
0000000000
0000000000
0000000000
0000000000
0000380000
0000380000
0000380000
0000380000
0000380000
0000380000
0000380000
0000380000
0000380000
0000380000
0fffffffe0
0fffffffe0
0fffffffe0
0000380000
0000380000
0000380000
0000380000
0000380000
0000380000
0000380000
0000380000
0000380000
0000380000
0000380000
0000000000
0000000000
0000000000
0fffffffe0
0fffffffe0
0fffffffe0
0000000000
0000000000
0000000000
0000000000
0000000000
0000000000
ENDCHAR
STARTCHAR 2235
ENCODING 8757
SWIDTH 903 0
DWIDTH 40 0
BBX 40 40 0 -6
BITMAP
00001ffffc
00001ffffc
0000180000
0000300000
0000300000
0000300000
0000600000
0000600000
0000600000
0000c00000
0000c00000
0000c00000
0001800000
0001800000
0001800000
0003000000
0003000000
0003000000
3e06000000
0e06000000
0e06000000
070c000000
070c000000
070c000000
0398000000
0398000000
0398000000
03b0000000
03b0000000
01f0000000
01e0000000
01e0000000
01e0000000
01c0000000
0000000000
0000000000
0000000000
0000000000
0000000000
0000000000
ENDCHAR
STARTCHAR 2236
ENCODING 8758
SWIDTH 903 0
DWIDTH 40 0
BBX 40 40 0 -6
BITMAP
0000000000
0000000000
0000000000
0000000000
0000000060
00000001e0
00000007e0
0000001f80
0000007e00
000001f800
000007e000
00001f8000
00007e0000
0001f80000
0007e00000
001f800000
007e000000
01f8000000
07e0000000
07e0000000
01f8000000
007e000000
001f800000
0007e00000
0001f80000
00007e0000
00001f8000
000007e000
000001f800
0000007e00
0000001f80
00000007e0
00000001e0
0000000060
0000000000
0000000000
0000000000
0000000000
0000000000
0000000000
ENDCHAR
STARTCHAR 2237
ENCODING 8759
SWIDTH 903 0
DWIDTH 40 0
BBX 40 40 0 -6
BITMAP
0000000000
0000000000
0000000000
0000000000
0600000000
0780000000
07e0000000
01f8000000
007e000000
001f800000
0007e00000
0001f80000
00007e0000
00001f8000
000007e000
000001f800
0000007e00
0000001f80
00000007e0
00000007e0
0000001f80
0000007e00
000001f800
000007e000
00001f8000
00007e0000
0001f80000
0007e00000
001f800000
007e000000
01f8000000
07e0000000
0780000000
0600000000
0000000000
0000000000
0000000000
0000000000
0000000000
0000000000
ENDCHAR
STARTCHAR 2238
ENCODING 8760
SWIDTH 903 0
DWIDTH 40 0
BBX 40 40 0 -6
BITMAP
0000000000
0000000000
0000000000
0000000000
0000000000
0000000000
0000000000
0000000000
0000000000
0000000000
0000000000
07ffffffe0
07ffffffe0
07ffffffe0
0000000000
0000000000
0000000000
0000000000
0000000000
0000000000
0000000000
0000000000
0000000000
07ffffffe0
07ffffffe0
07ffffffe0
0000000000
0000000000
0000000000
0000000000
0000000000
0000000000
0000000000
0000000000
0000000000
0000000000
0000000000
0000000000
0000000000
0000000000
ENDCHAR
STARTCHAR 2239
ENCODING 8761
SWIDTH 903 0
DWIDTH 40 0
BBX 40 40 0 -6
BITMAP
0000000000
0000000000
0000000000
0000000000
00000001e0
0000001fe0
000001ffe0
00000ffe00
00007fe000
0007fe0000
001ff00000
00ff800000
07f8000000
07e0000000
07f8000000
00ff800000
001ff00000
0007fe0000
00007fe000
00000ffe00
000001ffe0
0000001fe0
00000001e0
0000000000
0000000000
07ffffffe0
07ffffffe0
07ffffffe0
0000000000
0000000000
0000000000
07ffffffe0
07ffffffe0
07ffffffe0
0000000000
0000000000
0000000000
0000000000
0000000000
0000000000
ENDCHAR
STARTCHAR 223a
ENCODING 8762
SWIDTH 903 0
DWIDTH 40 0
BBX 40 40 0 -6
BITMAP
0000000000
0000000000
0000000000
0000000000
0780000000
07f8000000
07ff800000
007ff00000
0007fe0000
00007fe000
00000ff800
000001ff00
0000001fe0
00000007e0
0000001fe0
000001ff00
00000ff800
00007fe000
0007fe0000
007ff00000
07ff800000
07f8000000
0780000000
0000000000
0000000000
07ffffffe0
07ffffffe0
07ffffffe0
0000000000
0000000000
0000000000
07ffffffe0
07ffffffe0
07ffffffe0
0000000000
0000000000
0000000000
0000000000
0000000000
0000000000
ENDCHAR
STARTCHAR 223b
ENCODING 8763
SWIDTH 903 0
DWIDTH 40 0
BBX 40 40 0 -6
BITMAP
0000000000
0000000000
0000000000
0000000000
0000007000
0000007000
000000e000
000000e000
000001c000
000001c000
0000038000
0000038000
07ffffffe0
07ffffffe0
07ffffffe0
00000e0000
00000e0000
00001c0000
00001c0000
0000380000
0000380000
0000700000
07ffffffe0
07ffffffe0
07ffffffe0
0001c00000
0001c00000
0003800000
0003800000
0007000000
0007000000
000e000000
000e000000
0000000000
0000000000
0000000000
0000000000
0000000000
0000000000
0000000000
ENDCHAR
STARTCHAR 223c
ENCODING 8764
SWIDTH 903 0
DWIDTH 40 0
BBX 40 40 0 -6
BITMAP
0000000000
0000000000
0000000000
0000000000
0000000000
0000000000
0000000000
0000000000
0000000000
00fe003f00
03ff80ffc0
07ffc1fff0
0f03e380f0
1e01e70038
1c00760038
18003c001c
38003c001c
300018000c
300018000c
300018000c
30003c000c
38003c001c
38007e001c
18006f001c
1c00e78038
0e01c7c070
07ff83fff0
03ff01ffe0
00fc007f80
0000000000
0000000000
0000000000
0000000000
0000000000
0000000000
0000000000
0000000000
0000000000
0000000000
0000000000
ENDCHAR
STARTCHAR 223d
ENCODING 8765
SWIDTH 903 0
DWIDTH 40 0
BBX 40 40 0 -6
BITMAP
0000000000
0000000000
0000000000
0000000000
0070000000
00f8000000
01fc000000
01fc000000
01fc000000
00f8000000
0070000000
0000000000
0000000000
0000000000
1ffffffff8
1ffffffff8
1ffffffff8
0000000000
0000000000
0000000000
0000000000
1ffffffff8
1ffffffff8
1ffffffff8
0000000000
0000000000
0000000000
0000000e00
0000001f00
0000003f80
0000003f80
0000003f80
0000001f00
0000000e00
0000000000
0000000000
0000000000
0000000000
0000000000
0000000000
ENDCHAR
STARTCHAR 223e
ENCODING 8766
SWIDTH 903 0
DWIDTH 40 0
BBX 40 40 0 -6
BITMAP
0000000000
0000000000
0000000000
0000000000
0000000000
0000000000
0000000000
0000000000
07ffffffe0
07ffffffe0
07ffffffe0
0000000000
0000000000
0000000000
0000000000
0000000000
0000000000
0000000000
07ffffffe0
07ffffffe0
07ffffffe0
0000000000
0000000000
0000000000
0000000000
0000000000
0000000000
0000000000
07ffffffe0
07ffffffe0
07ffffffe0
0000000000
0000000000
0000000000
0000000000
0000000000
0000000000
0000000000
0000000000
0000000000
ENDCHAR
STARTCHAR 223f
ENCODING 8767
SWIDTH 903 0
DWIDTH 40 0
BBX 40 40 0 -6
BITMAP
0000000000
0000000000
0000000000
0000000000
0000000000
0000000000
0000180000
0000180000
0000180000
0000180000
0000180000
0000180000
0000180000
0000180000
0000180000
0000180000
0000180000
0000180000
000ffff000
000ffff000
0000180000
0000180000
0000180000
0000180000
0000180000
0000180000
0000180000
0000180000
0000180000
0000180000
0000180000
0000180000
0000000000
0000000000
0000000000
0000000000
0000000000
0000000000
0000000000
0000000000
ENDCHAR
STARTCHAR 2240
ENCODING 8768
SWIDTH 903 0
DWIDTH 40 0
BBX 40 40 0 -6
BITMAP
0000000000
0000000000
0000000000
0000000000
0000000000
0000000000
0000000000
0000000000
0000000000
0000000000
0000000000
0000000000
0000000000
0000000000
0000000000
0000000000
0000000000
0000000000
001fffe000
001fffe000
0000000000
0000000000
0000000000
0000000000
0000000000
0000000000
0000000000
0000000000
0000000000
0000000000
0000000000
0000000000
0000000000
0000000000
0000000000
0000000000
0000000000
0000000000
0000000000
0000000000
ENDCHAR
STARTCHAR 2241
ENCODING 8769
SWIDTH 903 0
DWIDTH 40 0
BBX 40 40 0 -6
BITMAP
0000000000
0000000000
0000000000
0000000000
0000000000
0000000000
0000000000
0000000000
0000000000
0000000000
0000001800
0000007800
000001f000
000007c000
00001f0000
00007c0000
0001f00000
0007c00000
001f000000
001f000000
0007c00000
0001f00000
00007c0000
00001f0000
000007c000
000001f000
0000007800
0000001800
0000000000
0000000000
0000000000
0000000000
0000000000
0000000000
0000000000
0000000000
0000000000
0000000000
0000000000
0000000000
ENDCHAR
STARTCHAR 2242
ENCODING 8770
SWIDTH 903 0
DWIDTH 40 0
BBX 40 40 0 -6
BITMAP
0000000000
0000000000
0000000000
0000000000
0000000000
0000000000
0000000000
0000000000
0000000000
0000000000
0018000000
001e000000
000f800000
0003e00000
0000f80000
00003e0000
00000f8000
000003e000
000000f800
000000f800
000003e000
00000f8000
00003e0000
0000f80000
0003e00000
000f800000
001e000000
0018000000
0000000000
0000000000
0000000000
0000000000
0000000000
0000000000
0000000000
0000000000
0000000000
0000000000
0000000000
0000000000
ENDCHAR
STARTCHAR 2243
ENCODING 8771
SWIDTH 903 0
DWIDTH 40 0
BBX 40 40 0 -6
BITMAP
0000000000
0000000000
0000000000
0000000000
0000000000
0000000000
0000000000
0000000000
0000000000
0000000000
0000000000
0000000000
0000000000
0000000000
001fffe000
001fffe000
0000000000
0000000000
0000000000
0000000000
0000000000
0000000000
001fffe000
001fffe000
0000000000
0000000000
0000000000
0000000000
0000000000
0000000000
0000000000
0000000000
0000000000
0000000000
0000000000
0000000000
0000000000
0000000000
0000000000
0000000000
ENDCHAR
STARTCHAR 2244
ENCODING 8772
SWIDTH 903 0
DWIDTH 40 0
BBX 40 40 0 -6
BITMAP
0000000000
0000000000
0000000000
0000000000
0000000000
0000000000
0000000000
0000000000
0000000000
0000000000
0000000000
0000000000
0000000000
0000000000
0000000000
003fc0000c
00fff00038
01fffc0070
03fffe00f0
07c0ff03e0
0f003fffc0
0e001fff80
1c000ffe00
300003f800
0000000000
0000000000
0000000000
0000000000
0000000000
0000000000
0000000000
0000000000
0000000000
0000000000
0000000000
0000000000
0000000000
0000000000
0000000000
0000000000
ENDCHAR
STARTCHAR 2245
ENCODING 8773
SWIDTH 903 0
DWIDTH 40 0
BBX 40 40 0 -6
BITMAP
0000000000
0000000000
0000000000
0000000000
0003ffc000
000ffff000
001e007800
003c003c00
0078001e00
0070000e00
00f0000f00
00e0000700
01e0000780
01c0000380
03c00003c0
03c00003c0
03800001c0
03800001c0
03800001c0
03800001c0
03800001c0
03800001c0
03800001c0
03800001c0
03800001c0
03800001c0
03800001c0
03800001c0
03800001c0
03800001c0
03800001c0
03800001c0
03800001c0
03800001c0
0000000000
0000000000
0000000000
0000000000
0000000000
0000000000
ENDCHAR
STARTCHAR 2246
ENCODING 8774
SWIDTH 903 0
DWIDTH 40 0
BBX 40 40 0 -6
BITMAP
0000000000
0000000000
0000000000
0000000000
03800001c0
03800001c0
03800001c0
03800001c0
03800001c0
03800001c0
03800001c0
03800001c0
03800001c0
03800001c0
03800001c0
03800001c0
03800001c0
03800001c0
03800001c0
03800001c0
03800001c0
03800001c0
03c00003c0
03c00003c0
01c0000380
01e0000780
00e0000700
00f0000f00
0070000e00
0078001e00
003c003c00
001f007800
000ffff000
0001ffc000
0000000000
0000000000
0000000000
0000000000
0000000000
0000000000
ENDCHAR
STARTCHAR 2247
ENCODING 8775
SWIDTH 903 0
DWIDTH 40 0
BBX 40 40 0 -6
BITMAP
0000000000
0000000000
0000000000
0000000000
0000380000
0000380000
0000380000
0000380000
0000380000
0000380000
0000380000
0000380000
0000380000
0000380000
0000380000
0000380000
0000380000
0000380000
0000380000
0000380000
0000380000
0000380000
0000380000
0000380000
0000380000
0000380000
0000380000
0000380000
0000380000
0000380000
0000380000
07ffffffe0
07ffffffe0
07ffffffe0
0000000000
0000000000
0000000000
0000000000
0000000000
0000000000
ENDCHAR
STARTCHAR 2248
ENCODING 8776
SWIDTH 903 0
DWIDTH 40 0
BBX 40 40 0 -6
BITMAP
0000000000
0000000000
0000000000
0000000000
0000000020
0000000060
00000000e0
00000001e0
00000003c0
0000000780
0000000f00
0000001e00
0000003c00
0000007800
000000f000
000001e000
000003c000
0000078000
00000f0000
00001e0000
00003c0000
0000780000
0000f00000
0001e00000
0003c00000
0007800000
000f000000
001e000000
003c000000
0078000000
00f0000000
01ffffffe0
03ffffffe0
07ffffffe0
0000000000
0000000000
0000000000
0000000000
0000000000
0000000000
ENDCHAR
STARTCHAR 2249
ENCODING 8777
SWIDTH 903 0
DWIDTH 40 0
BBX 40 40 0 -6
BITMAP
0000000000
0000000000
0000000000
0000000000
0700000000
0700000000
0700000000
0700000000
0700000000
0700000000
0700000000
0700000000
0700000000
0700000000
0700000000
0700000000
0700000000
0700000000
0700000000
0700000000
0700000000
0700000000
0700000000
0700000000
0700000000
0700000000
0700000000
0700000000
0700000000
0700000000
0700000000
07ffffffe0
07ffffffe0
07ffffffe0
0000000000
0000000000
0000000000
0000000000
0000000000
0000000000
ENDCHAR
STARTCHAR 224a
ENCODING 8778
SWIDTH 903 0
DWIDTH 40 0
BBX 40 40 0 -6
BITMAP
0000000000
0000000000
0000000000
0000000000
0000000020
0000000060
00000000e0
00000001e0
00000003e0
00000007e0
0000000fe0
0000001ee0
0000003ce0
00000078e0
000000f0e0
000001e0e0
000003c0e0
00000780e0
00000f00e0
00001e00e0
00003c00e0
00007800e0
0000f000e0
0001e000e0
0003c000e0
00078000e0
000f0000e0
001e0000e0
003c0000e0
00780000e0
00f00000e0
01ffffffe0
03ffffffe0
07ffffffe0
0000000000
0000000000
0000000000
0000000000
0000000000
0000000000
ENDCHAR
STARTCHAR 224b
ENCODING 8779
SWIDTH 903 0
DWIDTH 40 0
BBX 40 40 0 -6
BITMAP
0000000000
0000000000
0c00000000
1c00000000
3c00000000
7c00000000
1c00000000
1c00000000
1c00000000
1c00000000
1c00000000
1c00000000
1c00000000
1c07001f1c
1c1fc03b9e
1c38e071f6
1c7070e0e6
1c7070c0e0
1ce039c070
1ce039c070
1ce039c070
1ce039c070
1ce038e0e0
1ce03870e0
1ce03839c0
1ce0383f80
1ce0387000
1ce038e000
1ce039fc00
1c7070ff80
1c70703fe0
3e38e1f1f8
7f1fc3c07c
7f0707001c
000007001c
000007001c
0000038038
000001e0f0
0000007fc0
0000001f00
ENDCHAR
STARTCHAR 224c
ENCODING 8780
SWIDTH 903 0
DWIDTH 40 0
BBX 40 40 0 -6
BITMAP
0000000000
0000000000
0060000000
00e0000000
03e0000000
07e0000000
00e0000000
00e0000000
00e0000000
00e0000000
00e0000000
00e0000000
00e0000000
00e0707e00
00e039ff80
00e01bc3c0
00e01f00e0
00e01c00e0
00e01c00e0
00e01c00e0
00e01c00e0
00e01c00e0
00e01c00e0
00e01c00e0
00e01c00e0
00e01c00e0
00e01c00e0
00e01c00e0
00e01c00e0
00e01c00e0
00e01c00e0
01f03e01f0
07fc7f03f8
07fc7f03f8
0000000000
0000000000
0000000000
0000000000
0000000000
0000000000
ENDCHAR
STARTCHAR 224d
ENCODING 8781
SWIDTH 903 0
DWIDTH 40 0
BBX 40 40 0 -6
BITMAP
000001f000
000007fc00
00000f1e00
00000e0e00
00001c0f00
00001c1f00
0000381f00
0000380e00
0000380000
0000380000
0000380000
0000380000
0000380000
0000380000
00001c0000
00001c0000
00001c0000
00001c0000
00001c0000
00001c0000
00001c0000
00001c0000
00001c0000
00001c0000
00001c0000
00001c0000
00001c0000
00000e0000
00000e0000
00000e0000
00000e0000
00000e0000
00000e0000
00380e0000
007c1c0000
007c1c0000
0078380000
003c780000
001ff00000
0007c00000
ENDCHAR
STARTCHAR 224e
ENCODING 8782
SWIDTH 903 0
DWIDTH 40 0
BBX 40 40 0 -6
BITMAP
000001f000
000007fc00
00000f1e00
00000e0e00
00001c0f00
00001c1f00
0000381f00
0000380e00
0000380000
0000380000
00007f0000
0001ffc000
0007b8f000
000e383800
001c1c1c00
00381c0e00
00381c0e00
00701c0700
00701c0700
00701c0700
00701c0700
00701c0700
00381c0e00
00381c0e00
001c1c1c00
000e1c3800
00079cf000
0001ffc000
00007f0000
00000e0000
00000e0000
00000e0000
00000e0000
00380e0000
007c1c0000
007c1c0000
0078380000
003c780000
001ff00000
0007c00000
ENDCHAR
STARTCHAR 224f
ENCODING 8783
SWIDTH 903 0
DWIDTH 40 0
BBX 40 40 0 -6
BITMAP
0000000000
0000000000
0000000000
0000000000
0000000000
0000000000
01f00007c0
03f8000fe0
07fc001ff0
07fc001ff0
07fc001ff0
07fc001ff0
07fc001ff0
03f8000fe0
01f00007c0
0000000000
0000000000
0000000000
0000000000
0000000000
0000000000
0000000000
0000000000
00003e0000
00007f0000
0000ff8000
0000ff8000
0000ff8000
0000ff8000
0000ff8000
00007f0000
00003e0000
0000000000
0000000000
0000000000
0000000000
0000000000
0000000000
0000000000
0000000000
ENDCHAR
STARTCHAR 2250
ENCODING 8784
SWIDTH 903 0
DWIDTH 40 0
BBX 40 40 0 -6
BITMAP
0000000000
0000000000
0000000000
0000000000
0000000000
0000000000
00003e0000
00007f0000
0000ff8000
0000ff8000
0000ff8000
0000ff8000
0000ff8000
00007f0000
00003e0000
0000000000
0000000000
0000000000
0000000000
0000000000
0000000000
0000000000
0000000000
01f00007c0
03f8000fe0
07fc001ff0
07fc001ff0
07fc001ff0
07fc001ff0
07fc001ff0
03f8000fe0
01f00007c0
0000000000
0000000000
0000000000
0000000000
0000000000
0000000000
0000000000
0000000000
ENDCHAR
STARTCHAR 2251
ENCODING 8785
SWIDTH 903 0
DWIDTH 40 0
BBX 40 40 0 -6
BITMAP
0000000000
0000000000
0000000000
0000000000
00007c0000
0001ff0000
0003838000
000701c000
000600c000
000e00e000
000c006000
000e00e000
000600c000
000701c000
0003838000
0001ff0000
00007c0000
0000380000
0000380000
0000380000
0000380000
0000380000
03ffffff80
03ffffff80
0000380000
0000380000
0000380000
0000380000
0000380000
0000380000
0000380000
0000380000
0000380000
0000380000
0000000000
0000000000
0000000000
0000000000
0000000000
0000000000
ENDCHAR
STARTCHAR 2252
ENCODING 8786
SWIDTH 903 0
DWIDTH 40 0
BBX 40 40 0 -6
BITMAP
0000000000
0000000000
0000000000
0000000000
0000100000
0000380000
00007c0000
0000fe0000
0001ff0000
0003ff8000
0007bbc000
000f39e000
001e38f000
003c387800
0070381c00
00e0380e00
0000380000
0000380000
0000380000
0000380000
0000380000
00007c0000
0001ff0000
0003838000
000701c000
000600c000
000e00e000
000c006000
000e00e000
000600c000
000701c000
0003838000
0001ff0000
00007c0000
0000000000
0000000000
0000000000
0000000000
0000000000
0000000000
ENDCHAR
STARTCHAR 2253
ENCODING 8787
SWIDTH 903 0
DWIDTH 40 0
BBX 40 40 0 -6
BITMAP
0000000000
0000000000
0000000000
0001ff8000
000ffff000
003e38fc00
0078381e00
00e0380700
01c0380380
03803801c0
07003800e0
07003800e0
0e00380070
0e00380070
0e00380070
1c00380038
1c00380038
1c00380038
1ffffffff8
1ffffffff8
1ffffffff8
1c00380038
1c00380038
1c00380038
0e00380070
0e00380070
0e00380070
07003800e0
07003800e0
03803801c0
01c0380380
00f0380700
007c381e00
001e38fc00
0007fff000
0001ff8000
0000000000
0000000000
0000000000
0000000000
ENDCHAR
STARTCHAR 2254
ENCODING 8788
SWIDTH 903 0
DWIDTH 40 0
BBX 40 40 0 -6
BITMAP
0000000000
0000000000
0000000000
0001ff8000
000ffff000
003e00fc00
0078001e00
00e0000700
01c0000380
03800001c0
07000000e0
07000000e0
0e00000070
0e00000070
0e00000070
1c00000038
1c007c0038
1c00fe0038
1c00fe0038
1c00fe0038
1c00fe0038
1c00fe0038
1c007c0038
1c00000038
0e00000070
0e00000070
0e00000070
07000000e0
07000000e0
03800001c0
01c0000380
00f0000700
007c001e00
001e00fc00
0007fff000
0001ff8000
0000000000
0000000000
0000000000
0000000000
ENDCHAR
STARTCHAR 2255
ENCODING 8789
SWIDTH 903 0
DWIDTH 40 0
BBX 40 40 0 -6
BITMAP
0000000000
0000000000
0000180000
00003c0000
00003c0000
00007e0000
00007e0000
0000ff0000
0000ff0000
0001ff8000
0001ff8000
0003ffc000
0003bdc000
0007bde000
00073ce000
000e3c7000
000c3c3000
00183c1800
00103c0800
00003c0000
00003c0000
00003c0000
00003c0000
00003c0000
00003c0000
00003c0000
00003c0000
00003c0000
00003c0000
00003c0000
00003c0000
00003c0000
00003c0000
00003c0000
00003c0000
00003c0000
00003c0000
00003c0000
00003c0000
00003c0000
ENDCHAR
STARTCHAR 2256
ENCODING 8790
SWIDTH 903 0
DWIDTH 40 0
BBX 40 40 0 -6
BITMAP
00003c0000
00003c0000
00003c0000
00003c0000
00003c0000
00003c0000
00003c0000
00003c0000
00003c0000
00003c0000
00003c0000
00003c0000
00003c0000
00003c0000
00003c0000
00003c0000
00003c0000
00003c0000
00003c0000
00003c0000
00003c0000
00103c0800
00183c1800
000c3c3000
000e3c7000
00073ce000
0007bde000
0003bdc000
0003ffc000
0001ff8000
0001ff8000
0000ff0000
0000ff0000
00007e0000
00007e0000
00003c0000
00003c0000
0000180000
0000000000
0000000000
ENDCHAR
STARTCHAR 2257
ENCODING 8791
SWIDTH 903 0
DWIDTH 40 0
BBX 40 40 0 -6
BITMAP
0000000000
0000000000
0000000000
0000000000
0000000000
0000000000
0000000000
0000000000
0000060000
0000038000
000001e000
000000f800
0000007e00
0000003f80
0000000fe0
fffffffff8
fffffffffc
fffffffffc
fffffffff8
0000000fe0
0000003f80
0000007e00
000000f800
000001e000
0000038000
0000060000
0000000000
0000000000
0000000000
0000000000
0000000000
0000000000
0000000000
0000000000
0000000000
0000000000
0000000000
0000000000
0000000000
0000000000
ENDCHAR
STARTCHAR 2258
ENCODING 8792
SWIDTH 903 0
DWIDTH 40 0
BBX 40 40 0 -6
BITMAP
0000000000
0000000000
0000000000
0000000000
0000000000
0000000000
0000000000
0000000000
0000600000
0001c00000
0007800000
001f000000
007e000000
01fc000000
07f0000000
1fffffffff
3fffffffff
3fffffffff
1fffffffff
07f0000000
01fc000000
007e000000
001f000000
0007800000
0001c00000
0000600000
0000000000
0000000000
0000000000
0000000000
0000000000
0000000000
0000000000
0000000000
0000000000
0000000000
0000000000
0000000000
0000000000
0000000000
ENDCHAR
STARTCHAR 2259
ENCODING 8793
SWIDTH 903 0
DWIDTH 40 0
BBX 40 40 0 -6
BITMAP
0000000000
0000000000
1c00000000
1fc0000000
1ffe000000
0ffff00000
0fffff8000
0fffff8000
0ff0000000
07f8000000
07fc000000
07be000000
079f000000
078f800000
0387c00000
0383e00000
0381f00000
0380f80000
03807c0000
01803e0000
01801f0000
01800f8000
018007c000
018003e000
000001f000
000000f800
0000007c00
0000003e00
0000001f00
0000000f80
00000007c0
00000003e0
00000001f0
00000000f8
000000007c
000000003e
000000001f
000000000f
0000000007
0000000003
ENDCHAR
STARTCHAR 225a
ENCODING 8794
SWIDTH 903 0
DWIDTH 40 0
BBX 40 40 0 -6
BITMAP
0000000000
0000000000
0000000038
00000003f8
0000007ff8
00000ffff0
0001fffff0
0001fffff0
0000000fe0
0000001fe0
0000003fe0
0000007de0
000000f9e0
000001f1c0
000003e1c0
000007c1c0
00000f81c0
00001f01c0
00003e0180
00007c0180
0000f80180
0001f00180
0003e00180
0007c00000
000f800000
001f000000
003e000000
007c000000
00f8000000
01f0000000
03e0000000
07c0000000
0f80000000
1f00000000
3e00000000
7c00000000
f800000000
f000000000
e000000000
c000000000
ENDCHAR
STARTCHAR 225b
ENCODING 8795
SWIDTH 903 0
DWIDTH 40 0
BBX 40 40 0 -6
BITMAP
000000000f
000000001f
000000003e
000000007c
00000000f8
00000001f0
00000003e0
00000007c0
0000000f80
0000001f00
0000003e00
0000007c00
000000f800
000001f000
018003e000
018007c000
01800f8000
01801f0000
01803e0000
03807c0000
0380f80000
0381f00000
0383e00000
0387c00000
078f800000
079f000000
07be000000
07fc000000
07f8000000
0ff0000000
0fffff8000
0fffff8000
0ffff00000
1ffe000000
1fc0000000
1c00000000
0000000000
0000000000
0000000000
0000000000
ENDCHAR
STARTCHAR 225c
ENCODING 8796
SWIDTH 903 0
DWIDTH 40 0
BBX 40 40 0 -6
BITMAP
f000000000
f800000000
7c00000000
3e00000000
1f00000000
0f80000000
07c0000000
03e0000000
01f0000000
00f8000000
007c000000
003e000000
001f000000
000f800000
0007c00180
0003e00180
0001f00180
0000f80180
00007c0180
00003e01c0
00001f01c0
00000f81c0
000007c1c0
000003e1c0
000001f1e0
000000f9e0
0000007de0
0000003fe0
0000001fe0
0000000ff0
0001fffff0
0001fffff0
00000ffff0
0000007ff8
00000003f8
0000000038
0000000000
0000000000
0000000000
0000000000
ENDCHAR
STARTCHAR 225d
ENCODING 8797
SWIDTH 903 0
DWIDTH 40 0
BBX 40 40 0 -6
BITMAP
003c007800
003c007800
003c007800
003c007800
003c007800
003c007800
003c007800
003c007800
003c007800
003c007800
003c007800
003c007800
003c007800
003c007800
003c007800
003c007800
003c007800
003c007800
003c007800
003c007800
003c007800
003c007800
003c007800
003c007800
003c007800
003c007800
003c007800
003c007800
003c007800
003c007800
003c007800
003c007800
003c007800
003c007800
003c007800
003c007800
003c007800
003c007800
003c007800
003c007800
ENDCHAR
STARTCHAR 225e
ENCODING 8798
SWIDTH 903 0
DWIDTH 40 0
BBX 40 40 0 -6
BITMAP
00003c0000
00003c0000
00003c0000
00003c0000
00003c0000
00003c0000
00003c0000
00003c0000
00003c0000
00003c0000
00003c0000
00003c0000
00003c0000
00003c0000
00003c0000
00003c0000
00003c0000
00003c0000
00003c0000
00003c0000
00003c0000
00003c0000
00003c0000
00003c0000
00003c0000
00003c0000
00003c0000
00003c0000
00003c0000
00003c0000
00003c0000
00003c0000
00003c0000
00003c0000
00003c0000
00003c0000
00003c0000
00003c0000
00003c0000
00003c0000
ENDCHAR
STARTCHAR 225f
ENCODING 8799
SWIDTH 903 0
DWIDTH 40 0
BBX 40 40 0 -6
BITMAP
000000000f
000000001e
000000003c
0000000078
00000000f0
00000001e0
00000003c0
0000000780
0000000f00
0000001e00
0000003c00
0000007800
000000f000
000001e000
000003c000
0000078000
00000f0000
00001e0000
00003c0000
0000780000
0000f00000
0001e00000
0003c00000
0007800000
000f000000
001e000000
003c000000
0078000000
00f0000000
01e0000000
03c0000000
0780000000
0f00000000
1e00000000
3c00000000
7800000000
f000000000
e000000000
c000000000
8000000000
ENDCHAR
STARTCHAR 2260
ENCODING 8800
SWIDTH 903 0
DWIDTH 40 0
BBX 40 40 0 -6
BITMAP
f000000000
7800000000
3c00000000
1e00000000
0f00000000
0780000000
03c0000000
01e0000000
00f0000000
0078000000
003c000000
001e000000
000f000000
0007800000
0003c00000
0001e00000
0000f00000
0000780000
00003c0000
00001e0000
00000f0000
0000078000
000003c000
000001e000
000000f000
0000007800
0000003c00
0000001e00
0000000f00
0000000780
00000003c0
00000001e0
00000000f0
0000000078
000000003c
000000001e
000000000f
0000000007
0000000003
0000000001
ENDCHAR
STARTCHAR 2261
ENCODING 8801
SWIDTH 903 0
DWIDTH 40 0
BBX 40 40 0 -6
BITMAP
0000000000
0000000000
0000000000
0000000000
0000000000
0000000c00
0000001c00
0000001c00
0000003800
0000007000
0000007000
000000e000
000001c000
000001c000
0000038000
0000070000
0000070000
00000e0000
00001c0000
00001c0000
0000380000
0000700000
0000700000
0000e00000
0001c00000
0001c00000
0003800000
0007000000
0007000000
000e000000
001c000000
001c000000
0038000000
0070000000
0070000000
0060000000
0000000000
0000000000
0000000000
0000000000
ENDCHAR
STARTCHAR 2262
ENCODING 8802
SWIDTH 903 0
DWIDTH 40 0
BBX 40 40 0 -6
BITMAP
0000000000
0000000000
0000000000
0000000000
0000000000
0060000000
0070000000
0070000000
0038000000
001c000000
001c000000
000e000000
0007000000
0007000000
0003800000
0001c00000
0001c00000
0000e00000
0000700000
0000700000
0000380000
00001c0000
00001c0000
00000e0000
0000070000
0000070000
0000038000
000001c000
000001c000
000000e000
0000007000
0000007000
0000003800
0000001c00
0000001c00
0000000c00
0000000000
0000000000
0000000000
0000000000
ENDCHAR
STARTCHAR 2263
ENCODING 8803
SWIDTH 903 0
DWIDTH 40 0
BBX 40 40 0 -6
BITMAP
0000000000
0000000000
00003c0000
00003c0000
00003c0000
00003c0000
0003ff0000
001ffff000
007c3dfe00
01e03c1f80
03c03c03e0
07003c01f0
0e003c01f0
0f003c00e0
0f003c0000
07803c0000
03fc3c0000
01fffe0000
007fffe000
000ffffe00
00007fff80
00003cffc0
00003c0fe0
00003c01f0
07003c0070
0f803c00f0
0f803c00e0
07003c03e0
03c03c0f80
01fc3c7f00
007ffff800
0007ffc000
00003c0000
00003c0000
00003c0000
00003c0000
0000000000
0000000000
0000000000
0000000000
ENDCHAR
STARTCHAR 2264
ENCODING 8804
SWIDTH 903 0
DWIDTH 40 0
BBX 40 40 0 -6
BITMAP
0000000000
0000000000
01ffc03fe0
01ffc03fe0
001e000700
000f000700
000f000e00
0007800e00
0007800e00
0003c01c00
0003c01c00
0001e01800
0001e03800
0000f03800
01ffffffe0
01ffffffe0
0000787000
000078e000
00003ce000
00003dc000
00003dc000
01ffffffe0
01ffffffe0
00000f0000
00000f0000
00000f0000
00000f0000
00000f0000
00000f0000
00000f0000
00000f0000
00000f0000
00000f0000
00001f8000
0001fff800
0001fff800
0000000000
0000000000
0000000000
0000000000
ENDCHAR
STARTCHAR 2265
ENCODING 8805
SWIDTH 903 0
DWIDTH 40 0
BBX 40 40 0 -6
BITMAP
0000000000
0000000000
0000000000
0000000000
0ffffffff0
0ffffffff0
0ffffffff0
0ffffffff0
0000000000
0000000000
0000000000
0000000000
0000000000
0000000000
0ffffffff0
0ffffffff0
0ffffffff0
0ffffffff0
00003c0000
00003c0000
00003c0000
00003c0000
00003c0000
00003c0000
00003c0000
00003c0000
00003c0000
00003c0000
00003c0000
00003c0000
00003c0000
00003c0000
00003c0000
00003c0000
00003c0000
00003c0000
00003c0000
00003c0000
00003c0000
00003c0000
ENDCHAR
STARTCHAR 2266
ENCODING 8806
SWIDTH 903 0
DWIDTH 40 0
BBX 40 40 0 -6
BITMAP
0000000000
0000000000
000000e000
000000e000
000001c000
000001c000
00003fe000
0001fff800
0007fffe00
001fc38f80
003e0387c0
007c0383c0
00f80703c0
00f8070180
01f0070000
01f0070000
01e0070000
03e00e0000
03e00e0000
03e00e0000
03e00e0000
03e00e0000
01e01c0010
01f01c0020
01f01c0060
00f81c00c0
00f81c0380
007c380f00
003e387e00
001ffffc00
000ffff000
0003ff8000
0000700000
0000700000
0000e00000
0000e00000
0000000000
0000000000
0000000000
0000000000
ENDCHAR
STARTCHAR 2267
ENCODING 8807
SWIDTH 903 0
DWIDTH 40 0
BBX 40 40 0 -6
BITMAP
0000000000
0000000000
00003fc000
0000fff000
0001e07c00
0003c01e00
0007800f00
0007000700
000f000780
000e000780
001e000f80
001e000f80
001e000f00
000e000600
000f000000
0007800000
0003800000
07fffff000
07fffff000
0003800000
0003c00000
0001c00000
0001c00000
0001c00000
0001c00010
0003800030
0003800030
01f7000060
03ff0000e0
071e0001c0
060e0007c0
060ff87f80
061fffff00
0738fffe00
03f03ff800
01e0078000
0000000000
0000000000
0000000000
0000000000
ENDCHAR
STARTCHAR 2268
ENCODING 8808
SWIDTH 903 0
DWIDTH 40 0
BBX 40 40 0 -6
BITMAP
0000000000
0000000000
0000000030
00f0000078
03fc0000f0
070e0001e0
0e070003c0
0c03000780
1c03800f00
1801801e00
1801803c00
1801807800
180180f000
180181e000
1c0383c000
0c03078000
0e070f0000
070e1e0000
03fc3c1e00
00f0787f80
0000f0e1c0
0001e1c0e0
0003c18060
0007838070
000f030030
001e030030
003c030030
0078030030
00f0030030
01e0038070
03c0018060
078001c0e0
0f0000e1c0
1e00007f80
1c00001e00
1800000000
0000000000
0000000000
0000000000
0000000000
ENDCHAR
STARTCHAR 2269
ENCODING 8809
SWIDTH 903 0
DWIDTH 40 0
BBX 40 40 0 -6
BITMAP
0000000000
0000000000
0000ff0000
0007ffe000
001ffff000
003e00f800
0078003c00
00f0001e00
01e0000700
01c0000380
03800001c0
03807cc1c0
0700ffc0e0
070383c0e0
0f0783c060
0f0f03c060
0f0f038060
0f1e0380e0
0f1e0380c0
0f1e0781c0
0f1e078190
0f1e078390
071e078330
070e078730
070e079e30
070f3ffc60
0387fbf8e0
0383e1e1c0
01c0000180
00e0000380
00e0000700
0078001e00
003f007c00
001ffff800
0007ffe000
0000ff0000
0000000000
0000000000
0000000000
0000000000
ENDCHAR
STARTCHAR 226a
ENCODING 8810
SWIDTH 903 0
DWIDTH 40 0
BBX 40 40 0 -6
BITMAP
0000000000
0000000000
03c0000000
0e70000000
1c3803f820
18180ffe20
18183e0760
18187801f0
1c38e000f0
0e71e00070
03c1c00038
0003800018
0003800008
0007800008
0007000000
000f000000
000f000000
000f000000
000f000000
000f000000
000f000000
000f000000
000f000000
000f000000
0007000004
0007800004
000780000c
0003800008
0003c00018
0001c00010
0001e00030
0000f000e0
00007c03c0
00003fff80
00000fff00
000003fc00
0000000000
0000000000
0000000000
0000000000
ENDCHAR
STARTCHAR 226b
ENCODING 8811
SWIDTH 903 0
DWIDTH 40 0
BBX 40 40 0 -6
BITMAP
0000000000
0000000000
03c0000000
0e70000000
1c3bfffff8
181bfffff8
1818fc007c
181878003c
1c3878001c
0e7078000c
03c078000c
0000780004
0000780000
0000780000
0000780300
0000780300
0000780300
0000780300
0000780700
00007fff00
0000780700
0000780300
0000780300
0000780300
0000780300
0000780300
0000780000
0000780000
0000780000
0000780000
0000780000
0000780000
0000780000
0001fe0000
0007ff8000
0007ff8000
0000000000
0000000000
0000000000
0000000000
ENDCHAR
STARTCHAR 226c
ENCODING 8812
SWIDTH 903 0
DWIDTH 40 0
BBX 40 40 0 -6
BITMAP
0000000000
0000000000
00001c0000
00001c0000
00001c0000
00003f8000
0000ffe000
0003dcf000
00071c3800
00061c1c00
000e1c3c00
000e1c7c00
000e1c7800
000e1c3000
000f1c0000
0007dc0000
0007fc0000
0003fe0000
0000ff0000
00007fc000
00001ff000
00001df800
00001c7800
00061c3c00
000f1c1c00
000f1c1c00
000e1c1c00
000c1c3c00
000e1c7800
00079df800
0003ffe000
0000ff8000
00001c0000
00001c0000
00001c0000
00001c0000
0000000000
0000000000
0000000000
0000000000
ENDCHAR
STARTCHAR 226d
ENCODING 8813
SWIDTH 903 0
DWIDTH 40 0
BBX 40 40 0 -6
BITMAP
0000000000
0000000000
0007801800
000fc01800
001ce03800
0018603000
0018607000
0018606000
001860e000
001860c000
001861c000
001861c000
0018638000
0018638000
001ce70000
000fc70000
00078e0000
00000e0000
00001c0000
00001c0000
0000380000
000039e000
000073f000
0000773800
0000e61800
0000e61800
0001c61800
0001c61800
0003861800
0003861800
0007061800
0006061800
000e061800
000c073800
001c03f000
001801e000
0000000000
0000000000
0000000000
0000000000
ENDCHAR
STARTCHAR 226e
ENCODING 8814
SWIDTH 903 0
DWIDTH 40 0
BBX 40 40 0 -6
BITMAP
0000000000
0000000000
0000000000
0000000000
00007e0000
0001e30000
0003818000
0003018000
000600c000
000c70c000
000cf86000
0009da6000
00198e6000
001b8e6000
001b0e6000
001b0e6000
001b0c6000
001b0c6000
001b0c6000
001b0c6000
001b0c6000
001b0c6000
001b0cc000
001b0cc000
001b9e8000
0019bf8000
0019f71000
0018c23000
000c003000
000c006000
000600c000
0003838000
0001ff0000
00007c0000
0000000000
0000000000
0000000000
0000000000
0000000000
0000000000
ENDCHAR
STARTCHAR 226f
ENCODING 8815
SWIDTH 903 0
DWIDTH 40 0
BBX 40 40 0 -6
BITMAP
0000000000
0000000000
0000000030
0000000070
00000000f0
000001c1f0
000003e3f0
000003e070
000003e070
000001c070
0000000070
0000000070
0000000070
3cc301c070
3de78fc070
1fffcfc070
1e79c1c070
1c71c1c070
1c71c1c070
1c71c1c070
1c71c1c070
1c71c1c070
1c71c1c070
1c71c1c070
1c71c1c070
1c71c1c070
1c71c1c070
1c71c1c070
1c71c1c070
1c71c1c070
1c71c1c070
1c71c1c070
3cf3c7f1fc
3cf3c7f1fc
0000000000
0000000000
0000000000
0000000000
0000000000
0000000000
ENDCHAR
STARTCHAR 2270
ENCODING 8816
SWIDTH 903 0
DWIDTH 40 0
BBX 40 40 0 -6
BITMAP
0000000000
0000000000
0000000000
0000000000
0000000000
0000000000
0000000000
0000000000
0000000000
0000000000
0000000000
0000000000
0000000000
06630198c0
0ef783bde0
3fffcffff0
0e73c39cf0
0631c18c70
0631c18c70
0631c18c70
0631c18c70
0631c18c70
0631c18c70
0631c18c70
0631c18c70
0631c18c70
0631c18c70
0631c18c70
0631c18c70
0631c18c70
0631c18c70
0631c18c70
0f7be3def8
0f7be3def8
0000000000
0000000000
0000000000
0000000000
0000000000
0000000000
ENDCHAR
STARTCHAR 2271
ENCODING 8817
SWIDTH 903 0
DWIDTH 40 0
BBX 40 40 0 -6
BITMAP
0000000000
0000000000
0000000000
0000000000
0000000000
0000000000
0000000000
0000000000
0000000000
0000000000
0000000000
0000000000
0000000000
00fc000000
03ff031860
0703873cf0
0e019f7df8
1c01c7df78
1c00c38e38
3800438e38
3800038e38
3800038e38
3800038e38
3800038e38
3800038e38
3800038e38
3800438e38
3800438e38
1c00c38e38
1c00c38e38
0e01838e38
0787838e38
03ff07df7c
00fc07df7c
0000000000
0000000000
0000000000
0000000000
0000000000
0000000000
ENDCHAR
STARTCHAR 2272
ENCODING 8818
SWIDTH 903 0
DWIDTH 40 0
BBX 40 40 0 -6
BITMAP
0000000000
0000000000
0600000000
0e00000000
1e00000000
3e00000000
6e00000000
0e00000000
0e00000000
0e00000000
0e00000000
0e00000000
0e00000000
0e07e79860
0e07e7bcf0
0e0183fff8
0e0303cf38
0e06038e38
0e0c038e38
0e18038e38
0e30038e38
0e70038e38
0ef0038e38
0fb8038e38
0e1c038e38
0e1c038e38
0e0e038e38
0e0e038e38
0e07038e38
0e07038e38
0e03838e38
0e03838e38
3f8fe7df7c
3f8fe7df7c
0000000000
0000000000
0000000000
0000000000
0000000000
0000000000
ENDCHAR
STARTCHAR 2273
ENCODING 8819
SWIDTH 903 0
DWIDTH 40 0
BBX 40 40 0 -6
BITMAP
0000000000
0000000000
7c03cf803e
7c03cf803e
380187001c
380187001c
380307803c
380307803c
380607c07c
380607c07c
380c06c05c
380c06e0dc
381806e0dc
381806e0dc
383006719c
383006719c
386006739c
3860063b1c
38f0063b1c
38f0063e1c
39b8061e1c
39b8061e1c
3b1c060c1c
3e1c060c1c
3c0e06001c
380e06001c
380e06001c
380706001c
380706001c
380706001c
380386001c
380386001c
7c07cf003e
7c07cf003e
0000000000
0000000000
0000000000
0000000000
0000000000
0000000000
ENDCHAR
STARTCHAR 2274
ENCODING 8820
SWIDTH 903 0
DWIDTH 40 0
BBX 40 40 0 -6
BITMAP
0000000000
0000001f80
00000031c0
00000060e0
00000078e0
00000078e0
00000031c0
0000000380
0000000e00
0000001c10
0000003030
0000007ff0
0000007ff0
0030c18000
00f3e7c000
03f7efc000
00fdfbc000
0070e1c000
0070e1c000
0070e1c000
0070e1c000
0070e1c000
0070e1c000
0070e1c000
0070e1c000
0070e1c000
0070e1c000
0070e1c000
0070e1c000
0070e1c000
0070e1c000
0070e1c000
00f9f3e000
00f9f3e000
0000000000
0000000000
0000000000
0000000000
0000000000
0000000000
ENDCHAR
STARTCHAR 2275
ENCODING 8821
SWIDTH 903 0
DWIDTH 40 0
BBX 40 40 0 -6
BITMAP
0000000000
0000000000
0000000000
0000000000
0000000000
0000000000
0000000000
0000000000
0000000000
0000000000
0000000000
0000000000
0000000000
0331803e38
077bc0773c
1fffe0e3ec
0738e1c1cc
0318e181c0
0318e380e0
0318e380e0
0318e380e0
0318e380e0
0318e1c1c0
0318e0e1c0
0318e07380
0318e07f00
0318e0e000
0318e1c000
0318e3f800
0318e1ff00
0318e07fc0
0318e3e3f0
0318e780f8
07bdee0038
00000e0038
00000e0038
0000070070
000003c1e0
000000ff80
0000003e00
ENDCHAR
STARTCHAR 2276
ENCODING 8822
SWIDTH 903 0
DWIDTH 40 0
BBX 40 40 0 -6
BITMAP
0000000000
0000000000
0600000000
0e00000000
1e00000000
3e00000000
6e00000000
0e00000000
0e00000000
0e00000000
0e00000000
0e00000000
0e00000000
0e07e03e38
0e07e0773c
0e0180e3ec
0e0301c1cc
0e060181c0
0e0c0380e0
0e180380e0
0e700380e0
0ef00380e0
0ff801c1c0
0f3800e1c0
0e1c007380
0e1c007f00
0e0e00e000
0e0e01c000
0e0703f800
0e0701ff00
0e03807fc0
0e0383e3f0
3f8fe780f8
3f8fee0038
00000e0038
00000e0038
0000070070
000003c1e0
000000ff80
0000003e00
ENDCHAR
STARTCHAR 2277
ENCODING 8823
SWIDTH 903 0
DWIDTH 40 0
BBX 40 40 0 -6
BITMAP
0000000000
0000000000
0000000000
0000000000
0000000000
0000000000
0000000000
0000000000
0000000000
0000000000
0000000000
0000000000
0000000000
007e001f80
01ff807fe0
0383c0e0f0
0701c1c070
0e00e38038
0e01e38078
1c01e70078
1c00c70030
1c00070000
1c00070000
1c00070000
1c00070000
1c00270008
1c00270008
1c00670018
0e00638018
0e00c38030
0701c1c070
03c380f0e0
01ff007fc0
007c001f00
0000000000
0000000000
0000000000
0000000000
0000000000
0000000000
ENDCHAR
STARTCHAR 2278
ENCODING 8824
SWIDTH 903 0
DWIDTH 40 0
BBX 40 40 0 -6
BITMAP
03e0000000
0e38000000
1c1c000000
180c000000
180c000000
180c000000
1c1c000000
0e38000000
03e0000000
0000000000
0000000000
0000000000
0000000000
0000000000
0000000000
0000000000
0000000000
0000000000
0000000000
0000000000
0000000000
0000000000
0000000000
0000000000
0000000000
0000000000
0000000000
0000000000
0000000000
0000000000
0000000000
0000000000
0000000000
0000000000
0000000000
0000000000
0000000000
0000000000
0000000000
0000000000
ENDCHAR
STARTCHAR 2279
ENCODING 8825
SWIDTH 903 0
DWIDTH 40 0
BBX 40 40 0 -6
BITMAP
0060000000
007c000000
0078000600
00700007c0
0070000780
0070600700
0070f00700
fffff80700
0070000700
0070000700
0070000700
0070000700
0070c00700
3071e00700
3ffff00704
3800f0070e
3800e7ffff
3800e00700
3800e00700
3800e00700
3800e00700
3800e00700
3800e00700
3fffe00700
3b9cc00700
339c000700
039c000700
039c000700
039c000700
039c000700
039c000700
039c000701
071c000701
071c000703
0e1c000607
0e1e00000e
1c1fffffff
380fffffff
7003fffffe
c000000000
ENDCHAR
STARTCHAR 227a
ENCODING 8826
SWIDTH 903 0
DWIDTH 40 0
BBX 40 40 0 -6
BITMAP
0060000000
007c000060
00780001f8
0070000ff8
0070007f80
007063f700
0070f00700
fffff80700
0070000700
0070000700
0070000700
0070000700
0070c00700
3071e00700
3ffff00704
3800f0070e
3800e7ffff
3800e00700
3800e00700
3800e00700
3800e00700
3800e00700
3800e00700
3fffe00700
3b9cc00700
339c000700
039c000700
039c000700
039c000700
039c000700
039c000700
039c000701
071c000701
071c000703
0e1c000607
0e1e00000e
1c1fffffff
380fffffff
7003fffffe
c000000000
ENDCHAR
STARTCHAR 227b
ENCODING 8827
SWIDTH 903 0
DWIDTH 40 0
BBX 40 40 0 -6
BITMAP
0060000000
007c0000c0
00780003f0
0070000ff0
0070007f00
007063fc00
0070f01c00
fffff81c00
0070001c00
0070001c00
0070001c00
0070001c10
0070c01c38
3071e3fffc
3ffff01c00
3800f01c00
3800e01c00
3800e01c00
3800e01c00
3800e01c18
3800e01c3c
3800effffe
3800e01c00
3fffe01c00
3b9cc01c00
339c001c00
039c001c02
039c001c02
039c001c06
039c001e0c
039c001ffe
039c000ffe
071c0003fc
071c000001
0e1c000003
0e1e000006
1c1fffffff
380fffffff
7003fffffe
c000000000
ENDCHAR
STARTCHAR 227c
ENCODING 8828
SWIDTH 903 0
DWIDTH 40 0
BBX 40 40 0 -6
BITMAP
0060000000
007c000c00
0078000600
0070006300
0070007b00
0070607180
0070f07180
fffff8e1c0
007000e0c0
007000e0e0
007001c0e0
007001c070
0070c18078
3071e3803c
3ffff3001f
3800f6001f
3800ec000e
3800e80076
3800e3fff8
3800e03878
3800e03870
3800e03870
3800e03870
3fffe03870
3b9cc07070
339c007070
039c007070
039c00e070
039c00e070
039c01c070
039c0180f0
039c030ff0
071c0607e1
071c0c01c3
0e1c180187
0e1e00000e
1c1fffffff
380fffffff
7003fffffe
c000000000
ENDCHAR
STARTCHAR 227d
ENCODING 8829
SWIDTH 903 0
DWIDTH 40 0
BBX 40 40 0 -6
BITMAP
0060000000
007c000000
0078000018
007000003c
007007fffe
0070600c00
0070f00e00
fffff80e00
0070001c00
0070001c00
0070003860
00700330f0
0070c3fff8
3071e38078
3ffff38070
3800f38070
3800e38070
3800e38070
3800e38070
3800e38070
3800e38070
3800e3fff0
3800e38070
3fffe38070
3b9cc38070
339c038070
039c038070
039c038070
039c038070
039c038070
039c03fff0
039c038071
071c038061
071c030003
0e1c000007
0e1e00000e
1c1fffffff
380fffffff
7003fffffe
c000000000
ENDCHAR
STARTCHAR 227e
ENCODING 8830
SWIDTH 903 0
DWIDTH 40 0
BBX 40 40 0 -6
BITMAP
0180000000
01f000000c
01e018001e
01c01fffff
01c01c0000
01c11c0000
01c39cc01c
ffffdcfffe
01c01cc71e
01c01cc71c
01c01cc71c
01c01cc71c
01c31cc71c
61c79cfffc
7fffdcc71c
7003dcc71c
70039cc71c
70039cc71c
70039cc71c
70039cfffc
70039cc718
70039c0700
70039c0700
7fff9c0700
773b1c0718
673819fffc
0738380700
0738300700
0738300700
0738600700
0738600708
0e38c0071c
0e3887fffe
0e39000001
1c38000003
1c3c000006
383fffffff
301fffffff
6007fffffe
c000000000
ENDCHAR
STARTCHAR 2321
ENCODING 8993
SWIDTH 903 0
DWIDTH 40 0
BBX 40 40 0 -6
BITMAP
00c0000000
00f8000030
00f000c078
00e060fffc
00e0f0e03c
3ffff8e038
00e078e038
00e070e038
01c070e038
01c070e038
01c0f0e038
0380e0e038
0381e0e038
073fc0fff8
0e0f98e038
1c073ec030
30067c0000
6000f70000
0001e3e000
000780fc00
001e003fc0
0078000fff
01e0001bff
0fbffffcf8
3e00000038
f000000180
03000003c0
03ffffffe0
038381c1e0
038381c1c0
038381c1c0
038381c1c0
03ffffffc0
038381c1c0
038381c1c0
038381c1c0
038381dfc0
038381c7c0
0383018380
0300000300
ENDCHAR
STARTCHAR 2322
ENCODING 8994
SWIDTH 903 0
DWIDTH 40 0
BBX 40 40 0 -6
BITMAP
0000000000
0000c000e0
0001e003f8
fffff01ff8
070001ff00
07000fee00
0700000e00
0700000e00
0700000e00
0700000e00
0700000e00
0703000e00
0707800e00
0fffc00e00
0e03c00e04
0e03800e0e
0e039fffff
0e03800e00
0f03800e00
0f83800e00
0ec3800e00
0ee3800e00
0e73800e00
0e73800e00
0e37800e00
1c37000e00
1c07000e00
1c07000e00
1c07000e00
1c07000e00
1c07000e00
1c07000e01
1c07800e01
1c7b800c03
1fe3800007
ff03e0000e
fc01ffffff
7000ffffff
30003ffffe
0000000000
ENDCHAR
STARTCHAR 2323
ENCODING 8995
SWIDTH 903 0
DWIDTH 40 0
BBX 40 40 0 -6
BITMAP
018000000c
01f060001e
01e07fffff
01c0700000
01c4700000
01c771801c
61c671fffe
31c671c71e
39ce71c71c
19cc71c71c
1dcc71c71c
0dd871c71c
0dd071c71c
01c071fffc
01c671c71c
ffff71c71c
01c071c71c
01c071c71c
03c071c71c
03e071c71c
07f071fffc
07d871c71c
0fdc718718
0dcc700700
1dce700700
19ce700700
39c6700708
31c070071c
71c071fffe
61c0e00700
c1c0e00700
81c0e00700
01c0e00700
01c0c00700
01c1c00700
01c1800700
01c1800704
01c300070e
01c30fffff
0182000000
ENDCHAR
STARTCHAR 2324
ENCODING 8996
SWIDTH 903 0
DWIDTH 40 0
BBX 40 40 0 -6
BITMAP
0000000000
0000000000
0000000000
0000000000
0000000000
0000000000
0000000000
0000000000
0000000000
0000000000
0000000000
0000000000
0000000000
0000000000
0000000000
0000000000
0000000000
0000000000
0000000000
0000000000
0000000000
0000000000
0000000000
0000000000
0000000000
0000000000
0000000000
0000000000
0000000000
0000000000
0000000000
0000000000
0000000000
0000000000
0000000000
ffffffffff
ffffffffff
ffffffffff
ffffffffff
ffffffffff
ENDCHAR
STARTCHAR 2325
ENCODING 8997
SWIDTH 903 0
DWIDTH 40 0
BBX 40 40 0 -6
BITMAP
0000000000
0000000000
0000000000
0000000000
0000000000
0000000000
0000000000
0000000000
0000000000
0000000000
0000000000
0000000000
0000000000
0000000000
0000000000
0000000000
0000000000
0000000000
0000000000
0000000000
0000000000
0000000000
0000000000
0000000000
0000000000
0000000000
0000000000
0000000000
0000000000
0000000000
ffffffffff
ffffffffff
ffffffffff
ffffffffff
ffffffffff
ffffffffff
ffffffffff
ffffffffff
ffffffffff
ffffffffff
ENDCHAR
STARTCHAR 2326
ENCODING 8998
SWIDTH 903 0
DWIDTH 40 0
BBX 40 40 0 -6
BITMAP
0000000000
0000000000
0000000000
0000000000
0000000000
0000000000
0000000000
0000000000
0000000000
0000000000
0000000000
0000000000
0000000000
0000000000
0000000000
0000000000
0000000000
0000000000
0000000000
0000000000
0000000000
0000000000
0000000000
0000000000
0000000000
ffffffffff
ffffffffff
ffffffffff
ffffffffff
ffffffffff
ffffffffff
ffffffffff
ffffffffff
ffffffffff
ffffffffff
ffffffffff
ffffffffff
ffffffffff
ffffffffff
ffffffffff
ENDCHAR
STARTCHAR 2327
ENCODING 8999
SWIDTH 903 0
DWIDTH 40 0
BBX 40 40 0 -6
BITMAP
0000000000
0000000000
0000000000
0000000000
0000000000
0000000000
0000000000
0000000000
0000000000
0000000000
0000000000
0000000000
0000000000
0000000000
0000000000
0000000000
0000000000
0000000000
0000000000
0000000000
ffffffffff
ffffffffff
ffffffffff
ffffffffff
ffffffffff
ffffffffff
ffffffffff
ffffffffff
ffffffffff
ffffffffff
ffffffffff
ffffffffff
ffffffffff
ffffffffff
ffffffffff
ffffffffff
ffffffffff
ffffffffff
ffffffffff
ffffffffff
ENDCHAR
STARTCHAR 2328
ENCODING 9000
SWIDTH 903 0
DWIDTH 40 0
BBX 40 40 0 -6
BITMAP
0000000000
0000000000
0000000000
0000000000
0000000000
0000000000
0000000000
0000000000
0000000000
0000000000
0000000000
0000000000
0000000000
0000000000
0000000000
ffffffffff
ffffffffff
ffffffffff
ffffffffff
ffffffffff
ffffffffff
ffffffffff
ffffffffff
ffffffffff
ffffffffff
ffffffffff
ffffffffff
ffffffffff
ffffffffff
ffffffffff
ffffffffff
ffffffffff
ffffffffff
ffffffffff
ffffffffff
ffffffffff
ffffffffff
ffffffffff
ffffffffff
ffffffffff
ENDCHAR
STARTCHAR 2329
ENCODING 9001
SWIDTH 903 0
DWIDTH 40 0
BBX 40 40 0 -6
BITMAP
0000000000
0000000000
0000000000
0000000000
0000000000
0000000000
0000000000
0000000000
0000000000
0000000000
ffffffffff
ffffffffff
ffffffffff
ffffffffff
ffffffffff
ffffffffff
ffffffffff
ffffffffff
ffffffffff
ffffffffff
ffffffffff
ffffffffff
ffffffffff
ffffffffff
ffffffffff
ffffffffff
ffffffffff
ffffffffff
ffffffffff
ffffffffff
ffffffffff
ffffffffff
ffffffffff
ffffffffff
ffffffffff
ffffffffff
ffffffffff
ffffffffff
ffffffffff
ffffffffff
ENDCHAR
STARTCHAR 232a
ENCODING 9002
SWIDTH 903 0
DWIDTH 40 0
BBX 40 40 0 -6
BITMAP
0000000000
0000000000
0000000000
0000000000
0000000000
ffffffffff
ffffffffff
ffffffffff
ffffffffff
ffffffffff
ffffffffff
ffffffffff
ffffffffff
ffffffffff
ffffffffff
ffffffffff
ffffffffff
ffffffffff
ffffffffff
ffffffffff
ffffffffff
ffffffffff
ffffffffff
ffffffffff
ffffffffff
ffffffffff
ffffffffff
ffffffffff
ffffffffff
ffffffffff
ffffffffff
ffffffffff
ffffffffff
ffffffffff
ffffffffff
ffffffffff
ffffffffff
ffffffffff
ffffffffff
ffffffffff
ENDCHAR
STARTCHAR 232b
ENCODING 9003
SWIDTH 903 0
DWIDTH 40 0
BBX 40 40 0 -6
BITMAP
ffffffffff
ffffffffff
ffffffffff
ffffffffff
ffffffffff
ffffffffff
ffffffffff
ffffffffff
ffffffffff
ffffffffff
ffffffffff
ffffffffff
ffffffffff
ffffffffff
ffffffffff
ffffffffff
ffffffffff
ffffffffff
ffffffffff
ffffffffff
ffffffffff
ffffffffff
ffffffffff
ffffffffff
ffffffffff
ffffffffff
ffffffffff
ffffffffff
ffffffffff
ffffffffff
ffffffffff
ffffffffff
ffffffffff
ffffffffff
ffffffffff
ffffffffff
ffffffffff
ffffffffff
ffffffffff
ffffffffff
ENDCHAR
STARTCHAR 232c
ENCODING 9004
SWIDTH 903 0
DWIDTH 40 0
BBX 40 40 0 -6
BITMAP
f800000000
f800000000
f800000000
f800000000
f800000000
f800000000
f800000000
f800000000
f800000000
f800000000
f800000000
f800000000
f800000000
f800000000
f800000000
f800000000
f800000000
f800000000
f800000000
f800000000
f800000000
f800000000
f800000000
f800000000
f800000000
f800000000
f800000000
f800000000
f800000000
f800000000
f800000000
f800000000
f800000000
f800000000
f800000000
f800000000
f800000000
f800000000
f800000000
f800000000
ENDCHAR
STARTCHAR 232d
ENCODING 9005
SWIDTH 903 0
DWIDTH 40 0
BBX 40 40 0 -6
BITMAP
ffc0000000
ffc0000000
ffc0000000
ffc0000000
ffc0000000
ffc0000000
ffc0000000
ffc0000000
ffc0000000
ffc0000000
ffc0000000
ffc0000000
ffc0000000
ffc0000000
ffc0000000
ffc0000000
ffc0000000
ffc0000000
ffc0000000
ffc0000000
ffc0000000
ffc0000000
ffc0000000
ffc0000000
ffc0000000
ffc0000000
ffc0000000
ffc0000000
ffc0000000
ffc0000000
ffc0000000
ffc0000000
ffc0000000
ffc0000000
ffc0000000
ffc0000000
ffc0000000
ffc0000000
ffc0000000
ffc0000000
ENDCHAR
STARTCHAR 232e
ENCODING 9006
SWIDTH 903 0
DWIDTH 40 0
BBX 40 40 0 -6
BITMAP
fffe000000
fffe000000
fffe000000
fffe000000
fffe000000
fffe000000
fffe000000
fffe000000
fffe000000
fffe000000
fffe000000
fffe000000
fffe000000
fffe000000
fffe000000
fffe000000
fffe000000
fffe000000
fffe000000
fffe000000
fffe000000
fffe000000
fffe000000
fffe000000
fffe000000
fffe000000
fffe000000
fffe000000
fffe000000
fffe000000
fffe000000
fffe000000
fffe000000
fffe000000
fffe000000
fffe000000
fffe000000
fffe000000
fffe000000
fffe000000
ENDCHAR
STARTCHAR 232f
ENCODING 9007
SWIDTH 903 0
DWIDTH 40 0
BBX 40 40 0 -6
BITMAP
fffff00000
fffff00000
fffff00000
fffff00000
fffff00000
fffff00000
fffff00000
fffff00000
fffff00000
fffff00000
fffff00000
fffff00000
fffff00000
fffff00000
fffff00000
fffff00000
fffff00000
fffff00000
fffff00000
fffff00000
fffff00000
fffff00000
fffff00000
fffff00000
fffff00000
fffff00000
fffff00000
fffff00000
fffff00000
fffff00000
fffff00000
fffff00000
fffff00000
fffff00000
fffff00000
fffff00000
fffff00000
fffff00000
fffff00000
fffff00000
ENDCHAR
STARTCHAR 2330
ENCODING 9008
SWIDTH 903 0
DWIDTH 40 0
BBX 40 40 0 -6
BITMAP
ffffff8000
ffffff8000
ffffff8000
ffffff8000
ffffff8000
ffffff8000
ffffff8000
ffffff8000
ffffff8000
ffffff8000
ffffff8000
ffffff8000
ffffff8000
ffffff8000
ffffff8000
ffffff8000
ffffff8000
ffffff8000
ffffff8000
ffffff8000
ffffff8000
ffffff8000
ffffff8000
ffffff8000
ffffff8000
ffffff8000
ffffff8000
ffffff8000
ffffff8000
ffffff8000
ffffff8000
ffffff8000
ffffff8000
ffffff8000
ffffff8000
ffffff8000
ffffff8000
ffffff8000
ffffff8000
ffffff8000
ENDCHAR
STARTCHAR 2331
ENCODING 9009
SWIDTH 903 0
DWIDTH 40 0
BBX 40 40 0 -6
BITMAP
fffffffc00
fffffffc00
fffffffc00
fffffffc00
fffffffc00
fffffffc00
fffffffc00
fffffffc00
fffffffc00
fffffffc00
fffffffc00
fffffffc00
fffffffc00
fffffffc00
fffffffc00
fffffffc00
fffffffc00
fffffffc00
fffffffc00
fffffffc00
fffffffc00
fffffffc00
fffffffc00
fffffffc00
fffffffc00
fffffffc00
fffffffc00
fffffffc00
fffffffc00
fffffffc00
fffffffc00
fffffffc00
fffffffc00
fffffffc00
fffffffc00
fffffffc00
fffffffc00
fffffffc00
fffffffc00
fffffffc00
ENDCHAR
STARTCHAR 2332
ENCODING 9010
SWIDTH 903 0
DWIDTH 40 0
BBX 40 40 0 -6
BITMAP
ffffffffe0
ffffffffe0
ffffffffe0
ffffffffe0
ffffffffe0
ffffffffe0
ffffffffe0
ffffffffe0
ffffffffe0
ffffffffe0
ffffffffe0
ffffffffe0
ffffffffe0
ffffffffe0
ffffffffe0
ffffffffe0
ffffffffe0
ffffffffe0
ffffffffe0
ffffffffe0
ffffffffe0
ffffffffe0
ffffffffe0
ffffffffe0
ffffffffe0
ffffffffe0
ffffffffe0
ffffffffe0
ffffffffe0
ffffffffe0
ffffffffe0
ffffffffe0
ffffffffe0
ffffffffe0
ffffffffe0
ffffffffe0
ffffffffe0
ffffffffe0
ffffffffe0
ffffffffe0
ENDCHAR
STARTCHAR 2333
ENCODING 9011
SWIDTH 903 0
DWIDTH 40 0
BBX 40 40 0 -6
BITMAP
0000380000
0000380000
0000380000
0000380000
0000380000
0000380000
0000380000
0000380000
0000380000
0000380000
0000380000
0000380000
0000380000
0000380000
0000380000
0000380000
0000380000
0000380000
ffffffffff
ffffffffff
ffffffffff
0000380000
0000380000
0000380000
0000380000
0000380000
0000380000
0000380000
0000380000
0000380000
0000380000
0000380000
0000380000
0000380000
0000380000
0000380000
0000380000
0000380000
0000380000
0000380000
ENDCHAR
STARTCHAR 2334
ENCODING 9012
SWIDTH 903 0
DWIDTH 40 0
BBX 40 40 0 -6
BITMAP
0000380000
0000380000
0000380000
0000380000
0000380000
0000380000
0000380000
0000380000
0000380000
0000380000
0000380000
0000380000
0000380000
0000380000
0000380000
0000380000
0000380000
0000380000
ffffffffff
ffffffffff
ffffffffff
0000000000
0000000000
0000000000
0000000000
0000000000
0000000000
0000000000
0000000000
0000000000
0000000000
0000000000
0000000000
0000000000
0000000000
0000000000
0000000000
0000000000
0000000000
0000000000
ENDCHAR
STARTCHAR 2335
ENCODING 9013
SWIDTH 903 0
DWIDTH 40 0
BBX 40 40 0 -6
BITMAP
0000000000
0000000000
0000000000
0000000000
0000000000
0000000000
0000000000
0000000000
0000000000
0000000000
0000000000
0000000000
0000000000
0000000000
0000000000
0000000000
0000000000
0000000000
ffffffffff
ffffffffff
ffffffffff
0000380000
0000380000
0000380000
0000380000
0000380000
0000380000
0000380000
0000380000
0000380000
0000380000
0000380000
0000380000
0000380000
0000380000
0000380000
0000380000
0000380000
0000380000
0000380000
ENDCHAR
STARTCHAR 2336
ENCODING 9014
SWIDTH 903 0
DWIDTH 40 0
BBX 40 40 0 -6
BITMAP
0000380000
0000380000
0000380000
0000380000
0000380000
0000380000
0000380000
0000380000
0000380000
0000380000
0000380000
0000380000
0000380000
0000380000
0000380000
0000380000
0000380000
0000380000
fffff80000
fffff80000
fffff80000
0000380000
0000380000
0000380000
0000380000
0000380000
0000380000
0000380000
0000380000
0000380000
0000380000
0000380000
0000380000
0000380000
0000380000
0000380000
0000380000
0000380000
0000380000
0000380000
ENDCHAR
STARTCHAR 2337
ENCODING 9015
SWIDTH 903 0
DWIDTH 40 0
BBX 40 40 0 -6
BITMAP
0000380000
0000380000
0000380000
0000380000
0000380000
0000380000
0000380000
0000380000
0000380000
0000380000
0000380000
0000380000
0000380000
0000380000
0000380000
0000380000
0000380000
0000380000
00003fffff
00003fffff
00003fffff
0000380000
0000380000
0000380000
0000380000
0000380000
0000380000
0000380000
0000380000
0000380000
0000380000
0000380000
0000380000
0000380000
0000380000
0000380000
0000380000
0000380000
0000380000
0000380000
ENDCHAR
STARTCHAR 2338
ENCODING 9016
SWIDTH 903 0
DWIDTH 40 0
BBX 40 40 0 -6
BITMAP
ffffffffff
ffffffffff
ffffffffff
0000000000
0000000000
0000000000
0000000000
0000000000
0000000000
0000000000
0000000000
0000000000
0000000000
0000000000
0000000000
0000000000
0000000000
0000000000
0000000000
0000000000
0000000000
0000000000
0000000000
0000000000
0000000000
0000000000
0000000000
0000000000
0000000000
0000000000
0000000000
0000000000
0000000000
0000000000
0000000000
0000000000
0000000000
0000000000
0000000000
0000000000
ENDCHAR
STARTCHAR 2339
ENCODING 9017
SWIDTH 903 0
DWIDTH 40 0
BBX 40 40 0 -6
BITMAP
0000000000
0000000000
0000000000
0000000000
0000000000
0000000000
0000000000
0000000000
0000000000
0000000000
0000000000
0000000000
0000000000
0000000000
0000000000
0000000000
0000000000
0000000000
ffffffffff
ffffffffff
ffffffffff
0000000000
0000000000
0000000000
0000000000
0000000000
0000000000
0000000000
0000000000
0000000000
0000000000
0000000000
0000000000
0000000000
0000000000
0000000000
0000000000
0000000000
0000000000
0000000000
ENDCHAR
STARTCHAR 233a
ENCODING 9018
SWIDTH 903 0
DWIDTH 40 0
BBX 40 40 0 -6
BITMAP
0000380000
0000380000
0000380000
0000380000
0000380000
0000380000
0000380000
0000380000
0000380000
0000380000
0000380000
0000380000
0000380000
0000380000
0000380000
0000380000
0000380000
0000380000
0000380000
0000380000
0000380000
0000380000
0000380000
0000380000
0000380000
0000380000
0000380000
0000380000
0000380000
0000380000
0000380000
0000380000
0000380000
0000380000
0000380000
0000380000
0000380000
0000380000
0000380000
0000380000
ENDCHAR
STARTCHAR 233b
ENCODING 9019
SWIDTH 903 0
DWIDTH 40 0
BBX 40 40 0 -6
BITMAP
0000000007
0000000007
0000000007
0000000007
0000000007
0000000007
0000000007
0000000007
0000000007
0000000007
0000000007
0000000007
0000000007
0000000007
0000000007
0000000007
0000000007
0000000007
0000000007
0000000007
0000000007
0000000007
0000000007
0000000007
0000000007
0000000007
0000000007
0000000007
0000000007
0000000007
0000000007
0000000007
0000000007
0000000007
0000000007
0000000007
0000000007
0000000007
0000000007
0000000007
ENDCHAR
STARTCHAR 233c
ENCODING 9020
SWIDTH 903 0
DWIDTH 40 0
BBX 40 40 0 -6
BITMAP
0000000000
0000000000
0000000000
0000000000
0000000000
0000000000
0000000000
0000000000
0000000000
0000000000
0000000000
0000000000
0000000000
0000000000
0000000000
0000000000
0000000000
0000000000
00003fffff
00003fffff
00003fffff
0000380000
0000380000
0000380000
0000380000
0000380000
0000380000
0000380000
0000380000
0000380000
0000380000
0000380000
0000380000
0000380000
0000380000
0000380000
0000380000
0000380000
0000380000
0000380000
ENDCHAR
STARTCHAR 233d
ENCODING 9021
SWIDTH 903 0
DWIDTH 40 0
BBX 40 40 0 -6
BITMAP
0000000000
0000000000
0000000000
0000000000
0000000000
0000000000
0000000000
0000000000
0000000000
0000000000
0000000000
0000000000
0000000000
0000000000
0000000000
0000000000
0000000000
0000000000
fffff80000
fffff80000
fffff80000
0000380000
0000380000
0000380000
0000380000
0000380000
0000380000
0000380000
0000380000
0000380000
0000380000
0000380000
0000380000
0000380000
0000380000
0000380000
0000380000
0000380000
0000380000
0000380000
ENDCHAR
STARTCHAR 233e
ENCODING 9022
SWIDTH 903 0
DWIDTH 40 0
BBX 40 40 0 -6
BITMAP
0000380000
0000380000
0000380000
0000380000
0000380000
0000380000
0000380000
0000380000
0000380000
0000380000
0000380000
0000380000
0000380000
0000380000
0000380000
0000380000
0000380000
0000380000
00003fffff
00003fffff
00003fffff
0000000000
0000000000
0000000000
0000000000
0000000000
0000000000
0000000000
0000000000
0000000000
0000000000
0000000000
0000000000
0000000000
0000000000
0000000000
0000000000
0000000000
0000000000
0000000000
ENDCHAR
STARTCHAR 233f
ENCODING 9023
SWIDTH 903 0
DWIDTH 40 0
BBX 40 40 0 -6
BITMAP
0000380000
0000380000
0000380000
0000380000
0000380000
0000380000
0000380000
0000380000
0000380000
0000380000
0000380000
0000380000
0000380000
0000380000
0000380000
0000380000
0000380000
0000380000
fffff80000
fffff80000
fffff80000
0000000000
0000000000
0000000000
0000000000
0000000000
0000000000
0000000000
0000000000
0000000000
0000000000
0000000000
0000000000
0000000000
0000000000
0000000000
0000000000
0000000000
0000000000
0000000000
ENDCHAR
STARTCHAR 2340
ENCODING 9024
SWIDTH 903 0
DWIDTH 40 0
BBX 40 40 0 -6
BITMAP
0000000000
0000000000
0000000000
0000000000
0000000000
0000000000
0000000000
0000000000
0000000000
0000000000
0000000000
0000000000
0000000000
0000000000
0000000000
0000000000
0000000000
0000000000
000000000f
00000000ff
00000003ff
0000000ff0
0000003f00
0000007c00
000000f000
000001e000
000003c000
0000038000
0000070000
0000070000
00000e0000
00000e0000
00001c0000
00001c0000
00001c0000
00001c0000
0000380000
0000380000
0000380000
0000380000
ENDCHAR
STARTCHAR 2341
ENCODING 9025
SWIDTH 903 0
DWIDTH 40 0
BBX 40 40 0 -6
BITMAP
0000000000
0000000000
0000000000
0000000000
0000000000
0000000000
0000000000
0000000000
0000000000
0000000000
0000000000
0000000000
0000000000
0000000000
0000000000
0000000000
0000000000
0000000000
e000000000
fe00000000
ff80000000
1fe0000000
01f8000000
007c000000
001e000000
000f000000
0007800000
0003800000
0001c00000
0001c00000
0000e00000
0000e00000
0000700000
0000700000
0000700000
0000700000
0000380000
0000380000
0000380000
0000380000
ENDCHAR
STARTCHAR 2342
ENCODING 9026
SWIDTH 903 0
DWIDTH 40 0
BBX 40 40 0 -6
BITMAP
0000380000
0000380000
0000380000
00001c0000
00001c0000
00001c0000
00001c0000
00000e0000
00000e0000
0000070000
0000070000
0000038000
000003c000
000001e000
000000f000
0000007c00
0000003f00
0000000ff0
00000003ff
00000000ff
000000000f
0000000000
0000000000
0000000000
0000000000
0000000000
0000000000
0000000000
0000000000
0000000000
0000000000
0000000000
0000000000
0000000000
0000000000
0000000000
0000000000
0000000000
0000000000
0000000000
ENDCHAR
STARTCHAR 2343
ENCODING 9027
SWIDTH 903 0
DWIDTH 40 0
BBX 40 40 0 -6
BITMAP
0000380000
0000380000
0000380000
0000700000
0000700000
0000700000
0000700000
0000e00000
0000e00000
0001c00000
0001c00000
0003800000
0007800000
000f000000
001e000000
007c000000
01f8000000
1fe0000000
ff80000000
fe00000000
e000000000
0000000000
0000000000
0000000000
0000000000
0000000000
0000000000
0000000000
0000000000
0000000000
0000000000
0000000000
0000000000
0000000000
0000000000
0000000000
0000000000
0000000000
0000000000
0000000000
ENDCHAR
STARTCHAR 2344
ENCODING 9028
SWIDTH 903 0
DWIDTH 40 0
BBX 40 40 0 -6
BITMAP
0000000000
0000000000
0000000000
0000000000
0000000000
0000000000
0000000000
0000000000
0000000000
0000000000
ffffffffff
ffffffffff
ffffffffff
0000000000
0000000000
0000000000
0000000000
0000000000
0000000000
0000000000
0000000000
0000000000
0000000000
0000000000
0000000000
ffffffffff
ffffffffff
ffffffffff
0000000000
0000000000
0000000000
0000000000
0000000000
0000000000
0000000000
0000000000
0000000000
0000000000
0000000000
0000000000
ENDCHAR
STARTCHAR 2345
ENCODING 9029
SWIDTH 903 0
DWIDTH 40 0
BBX 40 40 0 -6
BITMAP
0000380000
0000380000
0000380000
0000380000
0000380000
0000380000
0000380000
0000380000
0000380000
0000380000
00003fffff
00003fffff
00003fffff
0000380000
0000380000
0000380000
0000380000
0000380000
0000380000
0000380000
0000380000
0000380000
0000380000
0000380000
0000380000
00003fffff
00003fffff
00003fffff
0000380000
0000380000
0000380000
0000380000
0000380000
0000380000
0000380000
0000380000
0000380000
0000380000
0000380000
0000380000
ENDCHAR
STARTCHAR 2346
ENCODING 9030
SWIDTH 903 0
DWIDTH 40 0
BBX 40 40 0 -6
BITMAP
0000380000
0000380000
0000380000
0000380000
0000380000
0000380000
0000380000
0000380000
0000380000
0000380000
ffffffffff
ffffffffff
ffffffffff
0000380000
0000380000
0000380000
0000380000
0000380000
0000380000
0000380000
0000380000
0000380000
0000380000
0000380000
0000380000
ffffffffff
ffffffffff
ffffffffff
0000380000
0000380000
0000380000
0000380000
0000380000
0000380000
0000380000
0000380000
0000380000
0000380000
0000380000
0000380000
ENDCHAR
STARTCHAR 2347
ENCODING 9031
SWIDTH 903 0
DWIDTH 40 0
BBX 40 40 0 -6
BITMAP
0000380000
0000380000
0000380000
0000380000
0000380000
0000380000
0000380000
0000380000
0000380000
0000380000
fffff80000
fffff80000
fffff80000
0000380000
0000380000
0000380000
0000380000
0000380000
0000380000
0000380000
0000380000
0000380000
0000380000
0000380000
0000380000
fffff80000
fffff80000
fffff80000
0000380000
0000380000
0000380000
0000380000
0000380000
0000380000
0000380000
0000380000
0000380000
0000380000
0000380000
0000380000
ENDCHAR
STARTCHAR 2348
ENCODING 9032
SWIDTH 903 0
DWIDTH 40 0
BBX 40 40 0 -6
BITMAP
0000000001
0000000003
0000000007
000000000f
000000001f
000000003f
000000007f
00000000ff
00000001ff
00000003ff
00000007ff
0000000fff
0000001fff
0000003fff
0000007fff
000000ffff
000001ffff
000003ffff
000007ffff
00000fffff
00001fffff
00003fffff
00007fffff
0000ffffff
0001ffffff
0003ffffff
0007ffffff
000fffffff
001fffffff
003fffffff
007fffffff
00ffffffff
01ffffffff
03ffffffff
07ffffffff
0fffffffff
1fffffffff
3fffffffff
7fffffffff
ffffffffff
ENDCHAR
STARTCHAR 2349
ENCODING 9033
SWIDTH 903 0
DWIDTH 40 0
BBX 40 40 0 -6
BITMAP
8000000000
c000000000
e000000000
f000000000
f800000000
fc00000000
fe00000000
ff00000000
ff80000000
ffc0000000
ffe0000000
fff0000000
fff8000000
fffc000000
fffe000000
ffff000000
ffff800000
ffffc00000
ffffe00000
fffff00000
fffff80000
fffffc0000
fffffe0000
ffffff0000
ffffff8000
ffffffc000
ffffffe000
fffffff000
fffffff800
fffffffc00
fffffffe00
ffffffff00
ffffffff80
ffffffffc0
ffffffffe0
fffffffff0
fffffffff8
fffffffffc
fffffffffe
ffffffffff
ENDCHAR
STARTCHAR 234a
ENCODING 9034
SWIDTH 903 0
DWIDTH 40 0
BBX 40 40 0 -6
BITMAP
ffffffffff
7fffffffff
3fffffffff
1fffffffff
0fffffffff
07ffffffff
03ffffffff
01ffffffff
00ffffffff
007fffffff
003fffffff
001fffffff
000fffffff
0007ffffff
0003ffffff
0001ffffff
0000ffffff
00007fffff
00003fffff
00001fffff
00000fffff
000007ffff
000003ffff
000001ffff
000000ffff
0000007fff
0000003fff
0000001fff
0000000fff
00000007ff
00000003ff
00000001ff
00000000ff
000000007f
000000003f
000000001f
000000000f
0000000007
0000000003
0000000001
ENDCHAR
STARTCHAR 234b
ENCODING 9035
SWIDTH 903 0
DWIDTH 40 0
BBX 40 40 0 -6
BITMAP
ffffffffff
fffffffffe
fffffffffc
fffffffff8
fffffffff0
ffffffffe0
ffffffffc0
ffffffff80
ffffffff00
fffffffe00
fffffffc00
fffffff800
fffffff000
ffffffe000
ffffffc000
ffffff8000
ffffff0000
fffffe0000
fffffc0000
fffff80000
fffff00000
ffffe00000
ffffc00000
ffff800000
ffff000000
fffe000000
fffc000000
fff8000000
fff0000000
ffe0000000
ffc0000000
ff80000000
ff00000000
fe00000000
fc00000000
f800000000
f000000000
e000000000
c000000000
8000000000
ENDCHAR
STARTCHAR 234c
ENCODING 9036
SWIDTH 903 0
DWIDTH 40 0
BBX 40 40 0 -6
BITMAP
0000000003
0000000007
000000000e
000000001c
0000000038
0000000070
00000000e0
00000001c0
0000000380
0000000700
0000000e00
0000001c00
0000003800
0000007000
000000e000
000001c000
0000038000
0000070000
00000e0000
00001c0000
0000380000
0000700000
0000e00000
0001c00000
0003800000
0007000000
000e000000
001c000000
0038000000
0070000000
00e0000000
01c0000000
0380000000
0700000000
0e00000000
1c00000000
3800000000
7000000000
e000000000
c000000000
ENDCHAR
STARTCHAR 234d
ENCODING 9037
SWIDTH 903 0
DWIDTH 40 0
BBX 40 40 0 -6
BITMAP
c000000000
e000000000
7000000000
3800000000
1c00000000
0e00000000
0700000000
0380000000
01c0000000
00e0000000
0070000000
0038000000
001c000000
000e000000
0007000000
0003800000
0001c00000
0000e00000
0000700000
0000380000
00001c0000
00000e0000
0000070000
0000038000
000001c000
000000e000
0000007000
0000003800
0000001c00
0000000e00
0000000700
0000000380
00000001c0
00000000e0
0000000070
0000000038
000000001c
000000000e
0000000007
0000000003
ENDCHAR
STARTCHAR 234e
ENCODING 9038
SWIDTH 903 0
DWIDTH 40 0
BBX 40 40 0 -6
BITMAP
c000000003
e000000007
700000000e
380000001c
1c00000038
0e00000070
07000000e0
03800001c0
01c0000380
00e0000700
0070000e00
0038001c00
001c003800
000e007000
000700e000
000381c000
0001c38000
0000e70000
00007e0000
00003c0000
00003c0000
00007e0000
0000e70000
0001c38000
000381c000
000700e000
000e007000
001c003800
0038001c00
0070000e00
00e0000700
01c0000380
03800001c0
07000000e0
0e00000070
1c00000038
380000001c
700000000e
e000000007
c000000003
ENDCHAR
STARTCHAR 2421
ENCODING 9249
SWIDTH 903 0
DWIDTH 40 0
BBX 40 40 0 -6
BITMAP
0000000000
0000000000
0000fe0000
0001ff0000
000783c000
000e00e000
001c007000
0038003800
0038001c00
0070001c00
0060000c00
00e0000e00
00e0000e00
01c0000700
01c0000700
01c0000700
01c0000700
01c0000700
01c0000700
01c0000700
01c0000700
01c0000700
01c0000700
01c0000700
01c0000700
00e0000e00
00e0000e00
00e0000e00
0070001c00
0030001c00
0038003800
0018007000
000e00e000
000783c000
0001ff0000
0000fe0000
0000000000
0000000000
0000000000
0000000000
ENDCHAR
STARTCHAR 2422
ENCODING 9250
SWIDTH 903 0
DWIDTH 40 0
BBX 40 40 0 -6
BITMAP
0000000000
0000000000
00000c0000
00001c0000
00003c0000
00007c0000
0001fc0000
0007fc0000
00003c0000
00003c0000
00003c0000
00003c0000
00003c0000
00003c0000
00003c0000
00003c0000
00003c0000
00003c0000
00003c0000
00003c0000
00003c0000
00003c0000
00003c0000
00003c0000
00003c0000
00003c0000
00003c0000
00003c0000
00003c0000
00003c0000
00003c0000
00003c0000
00007e0000
0001ff8000
000ffff000
000ffff000
0000000000
0000000000
0000000000
0000000000
ENDCHAR
STARTCHAR 2423
ENCODING 9251
SWIDTH 903 0
DWIDTH 40 0
BBX 40 40 0 -6
BITMAP
0000000000
0000000000
0000ff0000
0003ffc000
000f81f000
001e007800
0038003c00
0070001e00
0070000e00
00e0000f00
01e0000700
01c0000700
01e0000700
01f0000f00
01f8000e00
00f8001e00
0070003c00
0000007800
000000f000
000001e000
0000038000
0000070000
00000e0000
00003c0000
0000700000
0001e00000
0003c00000
000f000100
001e000100
0038000300
0070000300
00e0000700
01e0000f00
01ffffff00
01ffffff00
01ffffff00
0000000000
0000000000
0000000000
0000000000
ENDCHAR
STARTCHAR 2424
ENCODING 9252
SWIDTH 903 0
DWIDTH 40 0
BBX 40 40 0 -6
BITMAP
0000000000
0000000000
0001fe0000
0007ff8000
001f03e000
003c00f000
0038007800
0070003c00
0070003c00
00e0001e00
00e0001e00
00f0001e00
00f8001e00
0078001c00
0030001c00
0000003800
0000007000
000001e000
00007f8000
00007fe000
000000f800
0000003c00
0000001e00
0000001e00
00e0000f00
01f0000f00
01f0000f00
01e0000f00
01c0000f00
01c0001e00
00e0001e00
00e0003c00
0078007800
003f01f000
000fffc000
0003ff0000
0000000000
0000000000
0000000000
0000000000
ENDCHAR
STARTCHAR 2425
ENCODING 9253
SWIDTH 903 0
DWIDTH 40 0
BBX 40 40 0 -6
BITMAP
0000000000
0000000000
0000007000
000000f000
000001f000
000003f000
000006f000
00000ef000
00001cf000
000038f000
000070f000
0000e0f000
0001c0f000
000380f000
000700f000
000e00f000
001c00f000
003800f000
007000f000
00e000f000
01c000f000
038000f000
070000f000
070000f000
0e0000f000
0e0000f000
0ffffffff0
0ffffffff0
000000f000
000000f000
000000f000
000000f000
000000f000
000001f800
00001fff80
00001fff80
0000000000
0000000000
0000000000
0000000000
ENDCHAR
STARTCHAR 2426
ENCODING 9254
SWIDTH 903 0
DWIDTH 40 0
BBX 40 40 0 -6
BITMAP
0000000000
0000000000
007ffffe00
007ffffe00
007ffffc00
0060000000
0060000000
0060000000
0060000000
0060000000
0060000000
0060000000
0060000000
00601f0000
0060ffc000
0061e1f000
0067807c00
006e001e00
0078000e00
0070000f00
0060000700
0000000780
0000000780
0000000380
0000000380
00e0000380
01f0000380
01f0000780
01e0000700
01c0000f00
00e0001e00
00e0003c00
007800f800
003e07f000
000fffc000
0001fe0000
0000000000
0000000000
0000000000
0000000000
ENDCHAR
STARTCHAR 2427
ENCODING 9255
SWIDTH 903 0
DWIDTH 40 0
BBX 40 40 0 -6
BITMAP
0000000000
0000000000
00007f8000
0003ffe000
0007c0f800
000e003c00
001c001e00
0038000f00
0078001f00
0070001f00
00f0000e00
00e0000000
00e0000000
01e0000000
01c0000000
01c07f0000
01c1ffc000
01c3c1f000
01ce003c00
01d8001e00
01f0000f00
01e0000700
01e0000780
01c0000780
01c0000780
01c0000780
01c0000780
01c0000780
01c0000700
00e0000f00
00e0000e00
0070001c00
003c007800
001f01f000
0007ffc000
0001ff0000
0000000000
0000000000
0000000000
0000000000
ENDCHAR
STARTCHAR 2428
ENCODING 9256
SWIDTH 903 0
DWIDTH 40 0
BBX 40 40 0 -6
BITMAP
0000000000
0000000000
01ffffff80
01ffffff80
01ffffff80
01c0000780
01c0000f00
01c0000e00
0180001c00
0180001c00
0100003800
0100003800
0000007000
0000007000
000000e000
000000e000
000001c000
000001c000
000001c000
0000038000
0000038000
0000038000
0000070000
0000070000
0000070000
00000e0000
00000e0000
00000e0000
00001e0000
00001c0000
00003c0000
00003c0000
00003c0000
00003c0000
00003c0000
0000180000
0000000000
0000000000
0000000000
0000000000
ENDCHAR
STARTCHAR 2429
ENCODING 9257
SWIDTH 903 0
DWIDTH 40 0
BBX 40 40 0 -6
BITMAP
0000000000
0000000000
0001ff0000
0007ffe000
001f81f800
003e007c00
003c001e00
0078001e00
00f0000f00
00f0000f00
00f0000f00
00f0000f00
0078000f00
007c000e00
003e001e00
001e003c00
000f807800
0007f8e000
0003ffc000
000f8fe000
001e01f800
0038007c00
0070003e00
00f0001f00
00e0000f00
01e0000f80
01e0000780
01e0000780
01e0000780
01f0000f80
00f0000f00
00f8001f00
007c003e00
003f00fc00
000ffff000
0003ffc000
0000000000
0000000000
0000000000
0000000000
ENDCHAR
STARTCHAR 242a
ENCODING 9258
SWIDTH 903 0
DWIDTH 40 0
BBX 40 40 0 -6
BITMAP
0000000000
0000000000
0000ff0000
0003ffc000
000f81f000
001e007c00
0038001e00
0078000e00
00f0000f00
00e0000700
01e0000780
01e0000780
01e0000780
01e0000780
01e0000780
01e0000780
00e0000f80
00f0000f80
0070001f80
0038003780
001e00e780
000fffc780
0003ff0780
0000000780
0000000780
0000000f00
0000000f00
0070000f00
00f8000e00
00f8001e00
00f0001c00
00f0003c00
007800f800
003f03e000
000fffc000
0003ff0000
0000000000
0000000000
0000000000
0000000000
ENDCHAR
STARTCHAR 242b
ENCODING 9259
SWIDTH 903 0
DWIDTH 40 0
BBX 40 40 0 -6
BITMAP
0000000000
0000000000
001ffff000
001ffff000
0001ff0000
00007c0000
00007c0000
00007c0000
00007c0000
00007c0000
00007c0000
00007c0000
00007c0000
00007c0000
00007c0000
00007c0000
00007c0000
00007c0000
00007c0000
00007c0000
00007c0000
00007c0000
00007c0000
00007c0000
00007c0000
00007c0000
00007c0000
00007c0000
00007c0000
00007c0000
00007c0000
00007c0000
00007c0000
0001ff0000
001ffff000
001ffff000
0000000000
0000000000
0000000000
0000000000
ENDCHAR
STARTCHAR 242c
ENCODING 9260
SWIDTH 903 0
DWIDTH 40 0
BBX 40 40 0 -6
BITMAP
0000000000
0000000000
03ffffffc0
03ffffffc0
007f81fe00
001e007800
001e007800
001e007800
001e007800
001e007800
001e007800
001e007800
001e007800
001e007800
001e007800
001e007800
001e007800
001e007800
001e007800
001e007800
001e007800
001e007800
001e007800
001e007800
001e007800
001e007800
001e007800
001e007800
001e007800
001e007800
001e007800
001e007800
001e007800
001e007800
007f81fe00
03ffffffc0
03ffffffc0
0000000000
0000000000
0000000000
ENDCHAR
STARTCHAR 242d
ENCODING 9261
SWIDTH 903 0
DWIDTH 40 0
BBX 40 40 0 -6
BITMAP
0000000000
0000000000
07ffffffe0
07ffffffe0
01f87e1f80
00f03c0f00
00f03c0f00
00f03c0f00
00f03c0f00
00f03c0f00
00f03c0f00
00f03c0f00
00f03c0f00
00f03c0f00
00f03c0f00
00f03c0f00
00f03c0f00
00f03c0f00
00f03c0f00
00f03c0f00
00f03c0f00
00f03c0f00
00f03c0f00
00f03c0f00
00f03c0f00
00f03c0f00
00f03c0f00
00f03c0f00
00f03c0f00
00f03c0f00
00f03c0f00
00f03c0f00
00f03c0f00
01f87e1f80
07ffffffe0
07ffffffe0
0000000000
0000000000
0000000000
0000000000
ENDCHAR
STARTCHAR 242e
ENCODING 9262
SWIDTH 903 0
DWIDTH 40 0
BBX 40 40 0 -6
BITMAP
0000000000
0000000000
0ffff807f0
0ffff807f0
07e3c001c0
03c3c001c0
03c3c001c0
03c1e00380
03c1e00380
03c1e00380
03c0f00700
03c0f00700
03c0f00700
03c0780e00
03c0780e00
03c0780e00
03c03c1c00
03c03c1c00
03c03c1c00
03c01e3800
03c01e3800
03c01e3800
03c01e3800
03c00f7000
03c00f7000
03c00f7000
03c007e000
03c007e000
03c007e000
03c003c000
03c003c000
03c003c000
03c003c000
07e001c000
0ff0018000
0ff0018000
0000000000
0000000000
0000000000
0000000000
ENDCHAR
STARTCHAR 242f
ENCODING 9263
SWIDTH 903 0
DWIDTH 40 0
BBX 40 40 0 -6
BITMAP
0000000000
0000000000
03ff003fe0
03ff003fe0
0078000700
0078000700
0078000700
003c000e00
003c000e00
003c000e00
001e001c00
001e001c00
001e001c00
000f003800
000f003800
000f003800
0007807000
0007807000
0007c0f000
0003c0e000
0003c0e000
0003e1e000
0001e1c000
0001e1c000
0001f3c000
0000f38000
0000f38000
0000ff0000
00007f0000
00007f0000
00003e0000
00003e0000
00003e0000
00001c0000
00001c0000
00001c0000
0000000000
0000000000
0000000000
0000000000
ENDCHAR
STARTCHAR 2430
ENCODING 9264
SWIDTH 903 0
DWIDTH 40 0
BBX 40 40 0 -6
BITMAP
0000000000
0000000000
1fe00ffff8
1fe00ffff8
07800387e0
07800383c0
07800383c0
03c00703c0
03c00703c0
03c00703c0
01e00e03c0
01e00e03c0
01e00e03c0
01e00e03c0
00f01c03c0
00f01c03c0
00f01c03c0
00783803c0
00783803c0
00783803c0
003c7003c0
003c7003c0
003c7003c0
003c7003c0
001ee003c0
001ee003c0
001ee003c0
000fc003c0
000fc003c0
000fc003c0
00078003c0
00078003c0
00078003c0
00030007e0
0003001ff8
0003001ff8
0000000000
0000000000
0000000000
0000000000
ENDCHAR
STARTCHAR 2431
ENCODING 9265
SWIDTH 903 0
DWIDTH 40 0
BBX 40 40 0 -6
BITMAP
0000000000
0000000000
0ff07ffff8
0ff07ffff8
03c01cf9f0
03c01c70e0
03c01c70e0
01e03870e0
01e03870e0
01e03870e0
01e03870e0
00f07070e0
00f07070e0
00f07070e0
00f07070e0
00f07070e0
0078e070e0
0078e070e0
0078e070e0
0078e070e0
0078e070e0
003dc070e0
003dc070e0
003dc070e0
003dc070e0
003dc070e0
001f8070e0
001f8070e0
001f8070e0
001f8070e0
000f0070e0
000f0070e0
000f0070e0
000600f9f0
000601fff8
000601fff8
0000000000
0000000000
0000000000
0000000000
ENDCHAR
STARTCHAR 2432
ENCODING 9266
SWIDTH 903 0
DWIDTH 40 0
BBX 40 40 0 -6
BITMAP
0000000000
0000000000
1f81fffff0
1f81fffff0
07006739c0
07006739c0
07006739c0
0380c739c0
0380c739c0
0380c739c0
0380c739c0
01c18739c0
01c18739c0
01c18739c0
01c18739c0
01c18739c0
00e30739c0
00e30739c0
00e30739c0
00e30739c0
00e30739c0
00760739c0
00760739c0
00760739c0
00760739c0
00760739c0
007c0739c0
007c0739c0
003c0739c0
003c0739c0
00380739c0
00380739c0
00180739c0
00180739c0
00181ffff0
00181ffff0
0000000000
0000000000
0000000000
0000000000
ENDCHAR
STARTCHAR 2433
ENCODING 9267
SWIDTH 903 0
DWIDTH 40 0
BBX 40 40 0 -6
BITMAP
0000000000
0000000000
0ffff007f0
0ffff007f0
03e3c001c0
01c1e001c0
01c0e00380
01c0f00380
01c0700700
01c0780e00
01c0380e00
01c03c1c00
01c01c3800
01c01e3800
01c00e7000
01c00f7000
01c007e000
01c007e000
01c003c000
01c003c000
01c007c000
01c007e000
01c00ef000
01c00e7000
01c01c7800
01c01c3800
01c0383c00
01c0381c00
01c0701e00
01c0700e00
01c0e00f00
01c1c00700
01c1c00780
03e38003c0
0fffe00ff0
0fffe00ff0
0000000000
0000000000
0000000000
0000000000
ENDCHAR
STARTCHAR 2434
ENCODING 9268
SWIDTH 903 0
DWIDTH 40 0
BBX 40 40 0 -6
BITMAP
0000000000
0000000000
03ffc1ffc0
03ffc1ffc0
007c007800
003c007000
001e007000
000e00e000
000f00e000
000701c000
000781c000
000381c000
0003c38000
0001c38000
0001e70000
0000e70000
0000fe0000
00007e0000
00003c0000
00007e0000
00007e0000
0000ff0000
0000ef0000
0001c78000
0001c78000
000383c000
000383c000
000701e000
000701f000
000e00f000
000e00f800
001c007800
001c003c00
0038003e00
03ff83ffc0
03ff83ffc0
0000000000
0000000000
0000000000
0000000000
ENDCHAR
STARTCHAR 2435
ENCODING 9269
SWIDTH 903 0
DWIDTH 40 0
BBX 40 40 0 -6
BITMAP
0000000000
0000000000
0000300000
00003e0000
00003c0000
0000380000
0000380000
0000380000
0000380000
0000380000
0000380000
0000380000
0000380000
0000380000
0000380000
0000380000
0000380000
0000380000
0000380000
0000380000
0000380000
0000380000
0000380000
0000380000
0000380000
0000380000
0000380000
0000380000
0000380000
0000380000
0000380000
0000380000
0000380000
0000380000
0000380000
0000300000
0000000000
0000000000
0000000000
0000000000
ENDCHAR
STARTCHAR 2436
ENCODING 9270
SWIDTH 903 0
DWIDTH 40 0
BBX 40 40 0 -6
BITMAP
0000000000
0000000000
0000018000
000001f000
000001e000
000001c000
000001c000
000001c000
000c01c000
000f81c000
000f01c000
000e01c000
000e01c000
000e01c000
000e01c000
000e01c000
000e01c000
000e01c000
000e01c000
000e01c000
000e01c000
000e01c000
000e01c000
000e01c000
000e01c000
000e01c000
000e01c000
000e01c000
000c01c000
000001c000
000001c000
000001c000
000001c000
000001c000
000001c000
0000018000
0000000000
0000000000
0000000000
0000000000
ENDCHAR
STARTCHAR 2437
ENCODING 9271
SWIDTH 903 0
DWIDTH 40 0
BBX 40 40 0 -6
BITMAP
0000000000
0000000000
0000000600
00000007c0
0000000780
0060000700
007c000700
0078000700
0070180700
00701f0700
00701e0700
00701c0700
00701c0700
00701c0700
00701c0700
00701c0700
00701c0700
00701c0700
00701c0700
00701c0700
00701c0700
00701c0700
00701c0700
00701c0700
00701c0700
00701c0700
00701c0700
00701c0700
0070180700
0070000700
0070000700
0060000700
0000000700
0000000700
0000000700
0000000600
0000000000
0000000000
0000000000
0000000000
ENDCHAR
STARTCHAR 2438
ENCODING 9272
SWIDTH 903 0
DWIDTH 40 0
BBX 40 40 0 -6
BITMAP
0000000000
0000000000
0000003000
0000003e00
0000003c00
0180007800
00e0007800
0070007000
003800f000
001c00e000
000e00e000
000701c000
000381c000
0001c38000
0000e38000
0000f70000
00007f0000
00003e0000
00001e0000
00003f0000
00003f0000
0000778000
0000f3c000
0001e1e000
0003c0f000
0007807800
000f003c00
001e001f00
003c000fc0
00780007fc
00f00001fc
03c00000f0
0780000030
0e00000000
1800000000
0000000000
0000000000
0000000000
0000000000
0000000000
ENDCHAR
STARTCHAR 2439
ENCODING 9273
SWIDTH 903 0
DWIDTH 40 0
BBX 40 40 0 -6
BITMAP
0000000000
0000000000
0000003000
0000006000
000000e000
000001c000
0001c1c000
0003838000
0003838000
0007070000
0007070000
00078e0000
0003fc0000
0001fc0000
0000fe0000
0001cf0000
0001c70000
0003878000
0003838000
0007038000
0007038000
000e038000
000e038000
001e038000
001c038000
001c038000
003c038000
0038038000
0038070000
0038070000
00380e0000
00380e0000
001c1c0000
001c380000
000ff00000
0007e00000
0000000000
0000000000
0000000000
0000000000
ENDCHAR
STARTCHAR 243a
ENCODING 9274
SWIDTH 903 0
DWIDTH 40 0
BBX 40 40 0 -6
BITMAP
0000000000
0000000000
0000300000
00003e0000
00003c0000
0000380000
0000380000
0000380000
00003800c0
00003801e0
0ffffffff0
0000000000
0000000000
0000000000
0000000000
0000000000
0000000000
0000000000
0000000000
0000000000
0000000000
0000000000
0000000000
0000000000
0000000000
0000000000
0000000000
0000000000
0000000000
0000000000
0000000000
0000000000
0000000000
0000000000
0000000000
0000000000
0000000000
0000000000
0000000000
0000000000
ENDCHAR
STARTCHAR 243b
ENCODING 9275
SWIDTH 903 0
DWIDTH 40 0
BBX 40 40 0 -6
BITMAP
0000000000
0000000000
0000300000
00003e0000
00003c0000
0000380000
0000380000
0000380000
00003800c0
00003801e0
0ffffffff0
0000000000
0000000000
0000000000
0000000000
0000000000
0000000000
0000000000
0000000000
0000000000
0000000600
0000000f00
01ffffff80
0000000000
0000000000
0000000000
0000000000
0000000000
0000000000
0000000000
0000000000
0000000000
0000000000
0000000000
0000000000
0000000000
0000000000
0000000000
0000000000
0000000000
ENDCHAR
STARTCHAR 243c
ENCODING 9276
SWIDTH 903 0
DWIDTH 40 0
BBX 40 40 0 -6
BITMAP
0000000000
0000000000
0000300000
00003e0000
00003c0000
0000380000
0000380000
0000380000
00003800c0
00003801e0
0ffffffff0
0000000000
0000000000
0000000000
0000000000
0000000000
0000000000
0000000000
0000000000
0000000000
0000000600
0000000f00
01ffffff80
0000000000
0000000000
0000000000
0000000000
0000000000
0000000000
0000000000
0000000000
00000000c0
00000001e0
0ffffffff0
0000000000
0000000000
0000000000
0000000000
0000000000
0000000000
ENDCHAR
STARTCHAR 243d
ENCODING 9277
SWIDTH 903 0
DWIDTH 40 0
BBX 40 40 0 -6
BITMAP
0000000000
0000000000
0006000000
0007c00000
0007800000
000f000000
000e000000
001c000000
001c001800
0038003c00
007ffffe00
0060003e00
0010003800
0010003800
0018003800
000c007000
000c007000
0006007000
000600e000
000300e000
000381c000
0001c1c000
0000e38000
0000770000
00003f0000
00001e0000
00003f0000
00007f8000
0000f3c000
0001e1f000
0003c0fc00
000f807ff8
003e001ff8
00f8000fc0
03e00003c0
0f000000c0
1c00000000
0000000000
0000000000
0000000000
ENDCHAR
STARTCHAR 243e
ENCODING 9278
SWIDTH 903 0
DWIDTH 40 0
BBX 40 40 0 -6
BITMAP
0000000000
0000300000
00003e0000
00003c0000
0000380000
0000380000
0000380000
0000380000
0000380000
0000380000
0000380000
0000380000
0000380000
0000380000
0000380060
00003800f0
0ffffffff8
0000380000
0000380000
0000380000
0000380000
0000380000
0000380000
0000380000
0000380000
0000380000
0000380000
0000380000
0000380000
0000380000
0000380000
0000380000
0000380000
0000380000
0000380000
0000380000
0000300000
0000000000
0000000000
0000000000
ENDCHAR
STARTCHAR 243f
ENCODING 9279
SWIDTH 903 0
DWIDTH 40 0
BBX 40 40 0 -6
BITMAP
0000000000
000c006000
000f807c00
000f007800
000e007000
000e007000
000e007000
000e007000
000e007000
000e007000
000e007000
000e007000
000e007000
000e007000
000e007060
000e0070f0
1ffffffff8
000e007000
000e007000
000e007000
000e007000
000e007000
000e007000
000e007000
000e007000
000e007000
000e007000
000e007000
000e007000
000e007000
000e007000
000e007000
000e007000
000e007000
000e007000
000e007000
000c006000
0000000000
0000000000
0000000000
ENDCHAR
STARTCHAR 2440
ENCODING 9280
SWIDTH 903 0
DWIDTH 40 0
BBX 40 40 0 -6
BITMAP
0000000000
0060001800
007c001f00
0078301e00
00703c1c00
0070381c00
0070381c00
0070381c00
0070381c00
0070381c00
0070381c00
0070381c00
0070381c00
0070381c00
0070381c18
0070381c3c
1ffffffffe
0070381c00
0070381c00
0070381c00
0070381c00
0070381c00
0070381c00
0070381c00
0070381c00
0070381c00
0070381c00
0070381c00
0070381c00
0070381c00
0070381c00
0070301c00
0070001c00
0070001c00
0060001c00
0000001c00
0000001800
0000000000
0000000000
0000000000
ENDCHAR
STARTCHAR 2441
ENCODING 9281
SWIDTH 903 0
DWIDTH 40 0
BBX 40 40 0 -6
BITMAP
0000000000
0000000000
00001e0000
00001e0000
00003f0000
00003f0000
0000778000
0000678000
0000e38000
0000c3c000
0000c3c000
0001c1c000
000181e000
000381e000
000300f000
000700f000
0006007000
000e007800
000c007800
001ffffc00
001ffffc00
0018003c00
0038003c00
0030001e00
0030001e00
0070001e00
0060000f00
00e0000f00
00c0000f00
00c0000780
01c0000780
0180000780
0ffc007ff0
0ffc007ff0
0000000000
0000000000
0000000000
0000000000
0000000000
0000000000
ENDCHAR
STARTCHAR 2442
ENCODING 9282
SWIDTH 903 0
DWIDTH 40 0
BBX 40 40 0 -6
BITMAP
0000000000
0000000000
03ffff8000
03ffffe000
007e00f800
003c003c00
003c001e00
003c000f00
003c000780
003c000780
003c000780
003c000780
003c000700
003c000f00
003c001e00
003c003c00
003c007000
003fffe000
003ffff800
003c001e00
003c000f00
003c000780
003c000380
003c0003c0
003c0003c0
003c0003c0
003c0003c0
003c000380
003c000780
003c000780
003c000f00
007e003e00
03fffffc00
03fffff000
0000000000
0000000000
0000000000
0000000000
0000000000
0000000000
ENDCHAR
STARTCHAR 2443
ENCODING 9283
SWIDTH 903 0
DWIDTH 40 0
BBX 40 40 0 -6
BITMAP
0000000000
0000000000
0000ff8200
0003ffe200
000f807600
001e001f00
0038000f00
0070000700
0070000380
00e0000180
00e0000080
01c0000080
01c0000000
03c0000000
03c0000000
03c0000000
03c0000000
03c0000000
03c0000000
03c0000000
03c0000000
03c0000000
01c0000040
01c0000040
01e00000c0
00e00001c0
00e0000180
00f0000380
0078000700
003c000f00
001f003e00
000ffffc00
0003fff000
0000ffc000
0000000000
0000000000
0000000000
0000000000
0000000000
0000000000
ENDCHAR
STARTCHAR 2444
ENCODING 9284
SWIDTH 903 0
DWIDTH 40 0
BBX 40 40 0 -6
BITMAP
0000000000
0000000000
03ffff0000
03ffffe000
007e00f000
003c003c00
003c001e00
003c000e00
003c000f00
003c000700
003c000780
003c000780
003c000380
003c0003c0
003c0003c0
003c0003c0
003c0003c0
003c0003c0
003c0003c0
003c0003c0
003c0003c0
003c0003c0
003c0003c0
003c000380
003c000780
003c000780
003c000700
003c000f00
003c001e00
003c003c00
003c00f800
007e03e000
03ffff8000
03fffe0000
0000000000
0000000000
0000000000
0000000000
0000000000
0000000000
ENDCHAR
STARTCHAR 2445
ENCODING 9285
SWIDTH 903 0
DWIDTH 40 0
BBX 40 40 0 -6
BITMAP
0000000000
0000000000
03ffffff80
03ffffff80
007e0007c0
003c0003c0
003c0001c0
003c0001c0
003c0000c0
003c0000c0
003c000040
003c000000
003c006000
003c006000
003c006000
003c006000
003c00e000
003fffe000
003fffe000
003c00e000
003c006000
003c006000
003c006000
003c006000
003c000000
003c000040
003c0000c0
003c0000c0
003c0001c0
003c0001c0
003c0003c0
007e0007c0
03ffffff80
03ffffff80
0000000000
0000000000
0000000000
0000000000
0000000000
0000000000
ENDCHAR
STARTCHAR 2446
ENCODING 9286
SWIDTH 903 0
DWIDTH 40 0
BBX 40 40 0 -6
BITMAP
0000000000
0000000000
03ffffff80
03ffffff80
003f0007c0
001e0003c0
001e0001c0
001e0001c0
001e0000c0
001e0000c0
001e000040
001e000000
001e006000
001e006000
001e006000
001e006000
001e00e000
001fffe000
001fffe000
001e00e000
001e006000
001e006000
001e006000
001e006000
001e000000
001e000000
001e000000
001e000000
001e000000
001e000000
001e000000
003f000000
03fff00000
03fff00000
0000000000
0000000000
0000000000
0000000000
0000000000
0000000000
ENDCHAR
STARTCHAR 2447
ENCODING 9287
SWIDTH 903 0
DWIDTH 40 0
BBX 40 40 0 -6
BITMAP
0000000000
0000000000
0000ff0c00
0003ffcc00
000fc0fc00
001e003e00
003c001e00
0078000e00
00f0000700
00f0000300
01e0000300
01e0000000
01c0000000
03c0000000
03c0000000
03c0000000
03c0000000
03c0000000
03c0000000
03c001ffe0
03c001ffe0
03c0001e00
03c0001e00
01c0001e00
01e0001e00
01e0001e00
00e0001e00
00f0001e00
0078003e00
003c007e00
001e00ce00
000f838e00
0003ff0e00
0000fc0600
0000000000
0000000000
0000000000
0000000000
0000000000
0000000000
ENDCHAR
STARTCHAR 2448
ENCODING 9288
SWIDTH 903 0
DWIDTH 40 0
BBX 40 40 0 -6
BITMAP
0000000000
0000000000
03ff00ffc0
03ff00ffc0
00fc003f00
0078001e00
0078001e00
0078001e00
0078001e00
0078001e00
0078001e00
0078001e00
0078001e00
0078001e00
0078001e00
0078001e00
0078001e00
007ffffe00
007ffffe00
0078001e00
0078001e00
0078001e00
0078001e00
0078001e00
0078001e00
0078001e00
0078001e00
0078001e00
0078001e00
0078001e00
0078001e00
00fc003f00
03ff00ffc0
03ff00ffc0
0000000000
0000000000
0000000000
0000000000
0000000000
0000000000
ENDCHAR
STARTCHAR 2449
ENCODING 9289
SWIDTH 903 0
DWIDTH 40 0
BBX 40 40 0 -6
BITMAP
0000000000
0000000000
0007ffe000
0007ffe000
00007e0000
00003c0000
00003c0000
00003c0000
00003c0000
00003c0000
00003c0000
00003c0000
00003c0000
00003c0000
00003c0000
00003c0000
00003c0000
00003c0000
00003c0000
00003c0000
00003c0000
00003c0000
00003c0000
00003c0000
00003c0000
00003c0000
00003c0000
00003c0000
00003c0000
00003c0000
00003c0000
00007e0000
0007ffe000
0007ffe000
0000000000
0000000000
0000000000
0000000000
0000000000
0000000000
ENDCHAR
STARTCHAR 244a
ENCODING 9290
SWIDTH 903 0
DWIDTH 40 0
BBX 40 40 0 -6
BITMAP
0000000000
0000000000
00001ffe00
00001ffe00
000003f000
000001e000
000001e000
000001e000
000001e000
000001e000
000001e000
000001e000
000001e000
000001e000
000001e000
000001e000
000001e000
000001e000
000001e000
000001e000
000001e000
000001e000
000001e000
000001e000
000001e000
003c01e000
007e01e000
007e03c000
007c03c000
003803c000
003c078000
001e0f0000
000ffe0000
0003f80000
0000000000
0000000000
0000000000
0000000000
0000000000
0000000000
ENDCHAR
STARTCHAR 244b
ENCODING 9291
SWIDTH 903 0
DWIDTH 40 0
BBX 40 40 0 -6
BITMAP
0000000000
0000000000
03ff003fc0
03ff003fc0
00fc000600
0078000c00
0078001800
0078003000
0078006000
007800c000
0078018000
0078030000
0078060000
00780c0000
00781e0000
00783e0000
00786f0000
0078c70000
0079878000
007b038000
007e03c000
007c01c000
007801e000
007800e000
007800f000
0078007000
0078007800
0078003800
0078003c00
0078003c00
0078001e00
00fc001e00
03ff00ffc0
03ff00ffc0
0000000000
0000000000
0000000000
0000000000
0000000000
0000000000
ENDCHAR
STARTCHAR 244c
ENCODING 9292
SWIDTH 903 0
DWIDTH 40 0
BBX 40 40 0 -6
BITMAP
0000000000
0000000000
03ffc00000
03ffc00000
007e000000
003c000000
003c000000
003c000000
003c000000
003c000000
003c000000
003c000000
003c000000
003c000000
003c000000
003c000000
003c000000
003c000000
003c000000
003c000000
003c000000
003c000000
003c000000
003c000040
003c000040
003c0000c0
003c0000c0
003c0001c0
003c0001c0
003c0003c0
003c0003c0
007e000780
03ffffff80
03ffffff80
0000000000
0000000000
0000000000
0000000000
0000000000
0000000000
ENDCHAR
STARTCHAR 244d
ENCODING 9293
SWIDTH 903 0
DWIDTH 40 0
BBX 40 40 0 -6
BITMAP
0000000000
0000000000
0fc0000ff0
0fe0000ff0
01e0001f80
01f0001f80
01f0003780
01f8003780
01b8003780
01bc006780
019c006780
019c006780
019e00c780
018e00c780
018f00c780
0187018780
0187018780
0187818780
0183830780
0183c30780
0181c30780
0181c60780
0180e60780
0180ec0780
0180ec0780
01807c0780
0180780780
0180380780
0180380780
0180100780
0180100780
03c0000fc0
0ff0003ff0
0ff0003ff0
0000000000
0000000000
0000000000
0000000000
0000000000
0000000000
ENDCHAR
STARTCHAR 244e
ENCODING 9294
SWIDTH 903 0
DWIDTH 40 0
BBX 40 40 0 -6
BITMAP
0000000000
0000000000
03f8007fe0
03f8007fe0
007c000f00
007c000600
007e000600
006e000600
0067000600
0067800600
0063800600
0063c00600
0061e00600
0060e00600
0060f00600
0060700600
0060780600
00603c0600
00601c0600
00601e0600
00600f0600
0060070600
0060078600
006003c600
006001c600
006001e600
006000f600
0060007600
0060007e00
0060003e00
0060001e00
00f0000e00
07fe000600
07fe000600
0000000000
0000000000
0000000000
0000000000
0000000000
0000000000
ENDCHAR
STARTCHAR 244f
ENCODING 9295
SWIDTH 903 0
DWIDTH 40 0
BBX 40 40 0 -6
BITMAP
0000000000
0000000000
0000ff0000
0003ffc000
000f00f000
001c003800
0038001c00
0070000e00
00f0000f00
00f0000f00
01e0000780
01e0000780
01e0000780
03c00003c0
03c00003c0
03c00003c0
03c00003c0
03c00003c0
03c00003c0
03c00003c0
03c00003c0
03c00003c0
03c00003c0
01e0000780
01e0000780
01e0000780
00f0000f00
00f0000f00
0070000e00
0038001c00
001c003800
000f00f000
0003ffc000
0000ff0000
0000000000
0000000000
0000000000
0000000000
0000000000
0000000000
ENDCHAR
STARTCHAR 2450
ENCODING 9296
SWIDTH 903 0
DWIDTH 40 0
BBX 40 40 0 -6
BITMAP
0000000000
0000000000
03ffffc000
03fffff000
007e00fc00
003c003f00
003c000f80
003c000780
003c0003c0
003c0003c0
003c0003c0
003c0003c0
003c0003c0
003c000380
003c000780
003c000f00
003c001e00
003c00fc00
003ffff000
003fff8000
003c000000
003c000000
003c000000
003c000000
003c000000
003c000000
003c000000
003c000000
003c000000
003c000000
003c000000
007e000000
03ffc00000
03ffc00000
0000000000
0000000000
0000000000
0000000000
0000000000
0000000000
ENDCHAR
STARTCHAR 2451
ENCODING 9297
SWIDTH 903 0
DWIDTH 40 0
BBX 40 40 0 -6
BITMAP
0000000000
0000000000
0000ff0000
0003ffc000
000f80f000
001c003800
0038001c00
0070000e00
00f0000f00
00f0000f00
01e0000780
01e0000780
01e0000780
03c00003c0
03c00003c0
03c00003c0
03c00003c0
03c00003c0
03c00003c0
03c00003c0
03c00003c0
03c00003c0
03c00003c0
01e0000780
01e0780780
01e0fe0780
00f1c60700
00f1870f00
0073830e00
003b031c00
001d839c00
000f83b800
0003fff000
0000ffe018
000000e030
0000007870
0000003fe0
0000000fc0
0000000000
0000000000
ENDCHAR
STARTCHAR 2452
ENCODING 9298
SWIDTH 903 0
DWIDTH 40 0
BBX 40 40 0 -6
BITMAP
0000000000
0000000000
03ffffc000
03fffff000
007e00f800
003c003c00
003c001e00
003c001e00
003c000f00
003c000f00
003c000f00
003c000f00
003c000f00
003c001e00
003c001e00
003c003c00
003c00f800
003fffe000
003fff0000
003c0f0000
003c078000
003c078000
003c03c000
003c03c000
003c01e000
003c01e000
003c00f000
003c00f000
003c007800
003c007800
003c003c00
007e003c00
03ffc1ffc0
03ffc1ffc0
0000000000
0000000000
0000000000
0000000000
0000000000
0000000000
ENDCHAR
STARTCHAR 2453
ENCODING 9299
SWIDTH 903 0
DWIDTH 40 0
BBX 40 40 0 -6
BITMAP
0000000000
0000000000
0003ff0600
000fffc600
003e01e600
0078007700
00f0003f00
00e0000f00
01e0000780
01e0000380
01e0000180
01e0000000
01e0000000
01f0000000
00fc000000
007fe00000
003fff0000
000fffe000
0000fffc00
000007fe00
0000007f00
0000000f80
0000000780
00000003c0
03000003c0
03000003c0
03800003c0
03c00003c0
01e0000780
01f8000780
01fc001f00
00ff807e00
00c7fffc00
00c1ffe000
0000000000
0000000000
0000000000
0000000000
0000000000
0000000000
ENDCHAR
STARTCHAR 2454
ENCODING 9300
SWIDTH 903 0
DWIDTH 40 0
BBX 40 40 0 -6
BITMAP
0000000000
0000000000
03ffffffc0
03ffffffc0
07c03c03e0
07803c01e0
07003c00e0
07003c00e0
06003c0060
06003c0060
04003c0020
00003c0000
00003c0000
00003c0000
00003c0000
00003c0000
00003c0000
00003c0000
00003c0000
00003c0000
00003c0000
00003c0000
00003c0000
00003c0000
00003c0000
00003c0000
00003c0000
00003c0000
00003c0000
00003c0000
00003c0000
00007e0000
0003ffc000
0003ffc000
0000000000
0000000000
0000000000
0000000000
0000000000
0000000000
ENDCHAR
STARTCHAR 2455
ENCODING 9301
SWIDTH 903 0
DWIDTH 40 0
BBX 40 40 0 -6
BITMAP
0000000000
0000000000
03ffc0ffc0
03ffc0ffc0
007e001e00
003c000c00
003c000c00
003c000c00
003c000c00
003c000c00
003c000c00
003c000c00
003c000c00
003c000c00
003c000c00
003c000c00
003c000c00
003c000c00
003c000c00
003c000c00
003c000c00
003c000c00
003c000c00
003c000c00
003c000c00
003c000c00
003c000c00
003e001c00
001e001800
001f003800
000f807000
0007c1e000
0003ffc000
0000ff0000
0000000000
0000000000
0000000000
0000000000
0000000000
0000000000
ENDCHAR
STARTCHAR 2456
ENCODING 9302
SWIDTH 903 0
DWIDTH 40 0
BBX 40 40 0 -6
BITMAP
0000000000
0000000000
07fe003fc0
07fe003fc0
00f0000600
00f0000600
0078000600
0078000c00
0078000c00
003c000c00
003c001800
003c001800
001e001800
001e003000
001e003000
000f003000
000f006000
000f006000
0007806000
000780c000
000780c000
0003c0c000
0003c18000
0003c18000
0001e18000
0001e30000
0001e30000
0000f30000
0000f60000
00007e0000
00007c0000
00007c0000
0000380000
0000380000
0000000000
0000000000
0000000000
0000000000
0000000000
0000000000
ENDCHAR
STARTCHAR 2457
ENCODING 9303
SWIDTH 903 0
DWIDTH 40 0
BBX 40 40 0 -6
BITMAP
0000000000
0000000000
3ff1ffc3fc
3ff1ffc3fc
0f003c0060
0f003c0060
0f003c0060
07801e0060
07801e00c0
07801e00c0
03c01700c0
03c01700c0
03c0370180
01e0370180
01e0378180
01e0378180
00f0678300
00f0678300
00f063c300
0078c3c300
0078c3c600
0078c3c600
003cc1e600
003d81ec00
003d81ec00
003f81ec00
001f01f800
001f00f800
001f00f800
001f00f800
001e00f000
000e007000
000e007000
000e007000
0000000000
0000000000
0000000000
0000000000
0000000000
0000000000
ENDCHAR
STARTCHAR 2458
ENCODING 9304
SWIDTH 903 0
DWIDTH 40 0
BBX 40 40 0 -6
BITMAP
0000000000
0000000000
03ffc1ffc0
03ffc1ffc0
003c003c00
003c003800
001e003800
000e007000
000f007000
000700e000
000780e000
0003c1c000
0001c1c000
0001e38000
0000f38000
0000f70000
00007f0000
00003e0000
00007e0000
00007f0000
0000ff0000
0000e78000
0001e3c000
0001c3c000
000381e000
000381e000
000700f000
000f007800
000e007800
001c003c00
001c001e00
0038001e00
03ff81ffe0
03ff81ffe0
0000000000
0000000000
0000000000
0000000000
0000000000
0000000000
ENDCHAR
STARTCHAR 2459
ENCODING 9305
SWIDTH 903 0
DWIDTH 40 0
BBX 40 40 0 -6
BITMAP
0000000000
0000000000
03ff807fe0
03ff807fe0
0078000300
003c000600
001c000600
001e000c00
000f000c00
0007001800
0007801800
0003c03000
0001c06000
0001e06000
0000e0c000
0000f0c000
0000718000
0000798000
00003b0000
00003f0000
00001e0000
00001e0000
00001e0000
00001e0000
00001e0000
00001e0000
00001e0000
00001e0000
00001e0000
00001e0000
00001e0000
00003f0000
0003fff000
0003fff000
0000000000
0000000000
0000000000
0000000000
0000000000
0000000000
ENDCHAR
STARTCHAR 245a
ENCODING 9306
SWIDTH 903 0
DWIDTH 40 0
BBX 40 40 0 -6
BITMAP
0000000000
0000000000
003fffff80
003fffff80
003c000780
0078000f00
0070001e00
0070001e00
00e0003c00
00c0007800
008000f000
000001e000
000001c000
000003c000
0000078000
00000f0000
00000e0000
00001e0000
00003c0000
0000380000
0000780000
0000f00000
0001e00000
0001e00000
0003c00080
0007800180
000f000180
001e000380
001c000700
003c000f00
0078000f00
00f0001e00
01fffffe00
01fffffe00
0000000000
0000000000
0000000000
0000000000
0000000000
0000000000
ENDCHAR
STARTCHAR 245b
ENCODING 9307
SWIDTH 903 0
DWIDTH 40 0
BBX 40 40 0 -6
BITMAP
0000000000
0000000000
0000000000
0000000000
0000000000
0000000000
0000000000
0000000000
0000000000
0000000000
0000000000
0000000000
0000000000
0003fc0000
000f060000
001c038000
001801c000
003c01e000
003c00e000
001800e000
00001fe000
0001f8e000
0007c0e000
000e00e000
001c00e000
003800e000
007000e000
007000e000
007001e200
007003e600
00780ee400
003ff8fc00
001fe0f800
0007807000
0000000000
0000000000
0000000000
0000000000
0000000000
0000000000
ENDCHAR
STARTCHAR 245c
ENCODING 9308
SWIDTH 903 0
DWIDTH 40 0
BBX 40 40 0 -6
BITMAP
0000000000
0000000000
0003000000
001f000000
007f000000
0007000000
0007000000
0007000000
0007000000
0007000000
0007000000
0007000000
0007000000
00070f8000
00071fe000
000778f000
0007e03800
0007801c00
0007001c00
0007000c00
0007000e00
0007000e00
0007000e00
0007000e00
0007000e00
0007000e00
0007000e00
0007001c00
0007001c00
0007003800
0007803800
0006e0f000
000e7fe000
000c1f8000
0000000000
0000000000
0000000000
0000000000
0000000000
0000000000
ENDCHAR
STARTCHAR 245d
ENCODING 9309
SWIDTH 903 0
DWIDTH 40 0
BBX 40 40 0 -6
BITMAP
0000000000
0000000000
0000000000
0000000000
0000000000
0000000000
0000000000
0000000000
0000000000
0000000000
0000000000
0000000000
0000000000
0000ff0000
0003ffc000
000780f000
000e003800
001c001c00
001c003c00
0038003c00
0038001800
0070000000
0070000000
0070000000
0070000000
0070000000
0070000200
0078000200
0038000400
003c000c00
001e003800
000fc0f000
0003ffe000
0000ff8000
0000000000
0000000000
0000000000
0000000000
0000000000
0000000000
ENDCHAR
STARTCHAR 245e
ENCODING 9310
SWIDTH 903 0
DWIDTH 40 0
BBX 40 40 0 -6
BITMAP
0000000000
0000000000
0000003000
0000007000
000001f000
000007f000
0000007000
0000007000
0000007000
0000007000
0000007000
0000007000
0000007000
0000f87000
0003fc7000
0007877000
000e01f000
001c00f000
003c007000
0038007000
0030007000
0070007000
0070007000
0070007000
0070007000
0070007000
0030007000
0038007000
0038007000
001c00f000
000e01f000
0007837800
0003fe7c00
0000f83e00
0000000000
0000000000
0000000000
0000000000
0000000000
0000000000
ENDCHAR
STARTCHAR 245f
ENCODING 9311
SWIDTH 903 0
DWIDTH 40 0
BBX 40 40 0 -6
BITMAP
0000000000
0000000000
0000000000
0000000000
0000000000
0000000000
0000000000
0000000000
0000000000
0000000000
0000000000
0000000000
0000000000
0000ff0000
0003c3c000
000700e000
000e007000
001c003800
0018001c00
0038001c00
0030000e00
0070000e00
007ffffe00
0070000000
0070000000
0070000000
0070000000
0078000200
0038000600
003c000c00
001e001c00
000f807800
0007ffe000
0001ff8000
0000000000
0000000000
0000000000
0000000000
0000000000
0000000000
ENDCHAR
STARTCHAR 2460
ENCODING 9312
SWIDTH 903 0
DWIDTH 40 0
BBX 40 40 0 -6
BITMAP
0000000000
0000000000
000007c000
00000e6000
00001c3000
00001c3800
0000387800
0000387800
0000383000
0000380000
0000380000
0000380000
0000380000
003ffff800
003ffff800
0000380000
0000380000
0000380000
0000380000
0000380000
0000380000
0000380000
0000380000
0000380000
0000380000
0000380000
0000380000
0000380000
0000380000
0000380000
0000380000
00007c0000
0007ffc000
0007ffc000
0000000000
0000000000
0000000000
0000000000
0000000000
0000000000
ENDCHAR
STARTCHAR 2461
ENCODING 9313
SWIDTH 903 0
DWIDTH 40 0
BBX 40 40 0 -6
BITMAP
0000000000
0000000000
0000000000
0000000000
0000000000
0000000000
0000000000
0000000000
0000000000
0000000000
0000000000
0000000000
0000000000
0000fc1c00
0003873e00
000703e700
000e01c700
000c01c300
001c00e000
001c00e000
001c00e000
001c00e000
000e01c000
0007038000
0003ff0000
0003fc0000
0007000000
000e000000
001fc00000
000ffe0000
0003ffc000
001f07f000
003c00f800
0070003800
0070003800
0070003800
0038007000
001e01e000
0007ff8000
0001fe0000
ENDCHAR
STARTCHAR 2462
ENCODING 9314
SWIDTH 903 0
DWIDTH 40 0
BBX 40 40 0 -6
BITMAP
0000000000
0000000000
0006000000
001e000000
007e000000
000e000000
000e000000
000e000000
000e000000
000e000000
000e000000
000e000000
000e000000
000e1e0000
000e7f8000
000ee1c000
000f80e000
000f007000
000e007000
000e007000
000e007000
000e007000
000e007000
000e007000
000e007000
000e007000
000e007000
000e007000
000e007000
000e007000
000e007000
001f00f800
007fc3fe00
007fc3fe00
0000000000
0000000000
0000000000
0000000000
0000000000
0000000000
ENDCHAR
STARTCHAR 2463
ENCODING 9315
SWIDTH 903 0
DWIDTH 40 0
BBX 40 40 0 -6
BITMAP
0000000000
0000000000
0000000000
0000000000
0000380000
00007c0000
00007c0000
00007c0000
0000380000
0000000000
0000000000
0000000000
0000000000
0000180000
0000780000
0003f80000
0000380000
0000380000
0000380000
0000380000
0000380000
0000380000
0000380000
0000380000
0000380000
0000380000
0000380000
0000380000
0000380000
0000380000
0000380000
00007c0000
0003ff8000
0003ff8000
0000000000
0000000000
0000000000
0000000000
0000000000
0000000000
ENDCHAR
STARTCHAR 2464
ENCODING 9316
SWIDTH 903 0
DWIDTH 40 0
BBX 40 40 0 -6
BITMAP
0000000000
0000000000
0000000000
0000000000
0000038000
000007c000
000007c000
000007c000
0000038000
0000000000
0000000000
0000000000
0000000000
0000018000
0000038000
00000f8000
00007f8000
0000038000
0000038000
0000038000
0000038000
0000038000
0000038000
0000038000
0000038000
0000038000
0000038000
0000038000
0000038000
0000038000
0000038000
0000038000
0000038000
0018038000
003c038000
003c070000
0018070000
001c1e0000
000ffc0000
0007f00000
ENDCHAR
STARTCHAR 2465
ENCODING 9317
SWIDTH 903 0
DWIDTH 40 0
BBX 40 40 0 -6
BITMAP
0000000000
0000000000
0006000000
001e000000
007e000000
000e000000
000e000000
000e000000
000e000000
000e000000
000e000000
000e000000
000e000000
000e03fe00
000e03fe00
000e006000
000e00c000
000e018000
000e030000
000e060000
000e0c0000
000e180000
000e380000
000e7c0000
000ede0000
000f8f0000
000e078000
000e03c000
000e01e000
000e00f000
000e007800
001f003c00
007fc0ff00
007fc0ff00
0000000000
0000000000
0000000000
0000000000
0000000000
0000000000
ENDCHAR
STARTCHAR 2466
ENCODING 9318
SWIDTH 903 0
DWIDTH 40 0
BBX 40 40 0 -6
BITMAP
0000000000
0000000000
00000c0000
00003c0000
0001fc0000
0001fc0000
00001c0000
00001c0000
00001c0000
00001c0000
00001c0000
00001c0000
00001c0000
00001c0000
00001c0000
00001c0000
00001c0000
00001c0000
00001c0000
00001c0000
00001c0000
00001c0000
00001c0000
00001c0000
00001c0000
00001c0000
00001c0000
00001c0000
00001c0000
00001c0000
00001c0000
00003e0000
0001ffc000
0001ffc000
0000000000
0000000000
0000000000
0000000000
0000000000
0000000000
ENDCHAR
STARTCHAR 2467
ENCODING 9319
SWIDTH 903 0
DWIDTH 40 0
BBX 40 40 0 -6
BITMAP
0000000000
0000000000
0000000000
0000000000
0000000000
0000000000
0000000000
0000000000
0000000000
0000000000
0000000000
0000000000
0000000000
006381e000
00e7e3f800
01ec761c00
03f83c0e00
00f03c0e00
00e0380e00
00e0380e00
00e0380e00
00e0380e00
00e0380e00
00e0380e00
00e0380e00
00e0380e00
00e0380e00
00e0380e00
00e0380e00
00e0380e00
00e0380e00
00e0380e00
01f07c1f00
03f8fe3f80
0000000000
0000000000
0000000000
0000000000
0000000000
0000000000
ENDCHAR
STARTCHAR 2468
ENCODING 9320
SWIDTH 903 0
DWIDTH 40 0
BBX 40 40 0 -6
BITMAP
0000000000
0000000000
0000000000
0000000000
0000000000
0000000000
0000000000
0000000000
0000000000
0000000000
0000000000
0000000000
0000000000
00061f0000
000e3fc000
001ee0e000
003f807000
007f003800
000e003800
000e003800
000e003800
000e003800
000e003800
000e003800
000e003800
000e003800
000e003800
000e003800
000e003800
000e003800
000e003800
001f007c00
007fc1ff00
007fc1ff00
0000000000
0000000000
0000000000
0000000000
0000000000
0000000000
ENDCHAR
STARTCHAR 2469
ENCODING 9321
SWIDTH 903 0
DWIDTH 40 0
BBX 40 40 0 -6
BITMAP
0000000000
0000000000
0000000000
0000000000
0000000000
0000000000
0000000000
0000000000
0000000000
0000000000
0000000000
0000000000
0000000000
00007e0000
0001ff8000
000781e000
000e007000
001c003800
0038001c00
0038001c00
0070000e00
0070000e00
0070000e00
0070000e00
0070000e00
0070000e00
0070000e00
0038001c00
0038001c00
001c003800
000e007000
000781e000
0001ff8000
00007e0000
0000000000
0000000000
0000000000
0000000000
0000000000
0000000000
ENDCHAR
STARTCHAR 246a
ENCODING 9322
SWIDTH 903 0
DWIDTH 40 0
BBX 40 40 0 -6
BITMAP
0000000000
0000000000
0000000000
0000000000
0000000000
0000000000
0000000000
0000000000
0000000000
0000000000
0000000000
0000000000
0000000000
00063f0000
001effc000
007fc1e000
000f007000
000e003800
000e003800
000e001c00
000e001c00
000e001c00
000e001c00
000e001c00
000e001c00
000e001c00
000e003800
000e003800
000f007000
000fc1e000
000effc000
000e3e0000
000e000000
000e000000
000e000000
000e000000
000e000000
001f000000
00ffe00000
00ffe00000
ENDCHAR
STARTCHAR 246b
ENCODING 9323
SWIDTH 903 0
DWIDTH 40 0
BBX 40 40 0 -6
BITMAP
0000000000
0000000000
0000000000
0000000000
0000000000
0000000000
0000000000
0000000000
0000000000
0000000000
0000000000
0000000000
0000000000
0000f86000
0003fee000
000f07e000
001c01e000
003800e000
003800e000
007000e000
007000e000
007000e000
007000e000
007000e000
007000e000
007000e000
003800e000
003801e000
001c03e000
000f06e000
0007fce000
0001f0e000
000000e000
000000e000
000000e000
000000e000
000000e000
000001f000
00000ffe00
00000ffe00
ENDCHAR
STARTCHAR 246c
ENCODING 9324
SWIDTH 903 0
DWIDTH 40 0
BBX 40 40 0 -6
BITMAP
0000000000
0000000000
0000000000
0000000000
0000000000
0000000000
0000000000
0000000000
0000000000
0000000000
0000000000
0000000000
0000000000
0000c0e000
0001c3f800
0007c7fc00
001fce1e00
0001d80e00
0001f00600
0001e00000
0001c00000
0001c00000
0001c00000
0001c00000
0001c00000
0001c00000
0001c00000
0001c00000
0001c00000
0001c00000
0001c00000
0003e00000
001ffc0000
001ffc0000
0000000000
0000000000
0000000000
0000000000
0000000000
0000000000
ENDCHAR
STARTCHAR 246d
ENCODING 9325
SWIDTH 903 0
DWIDTH 40 0
BBX 40 40 0 -6
BITMAP
0000000000
0000000000
0000000000
0000000000
0000000000
0000000000
0000000000
0000000000
0000000000
0000000000
0000000000
0000000000
0000000000
0001ff0c00
0007ffcc00
000f00ec00
001c003c00
0038001c00
0038000c00
0038000000
001c000000
000f000000
0007e00000
0000fe0000
00001fc000
000003f000
0060007800
0060003c00
0070001c00
0078001c00
007e003c00
006780f800
0063fff000
0000ffc000
0000000000
0000000000
0000000000
0000000000
0000000000
0000000000
ENDCHAR
STARTCHAR 246e
ENCODING 9326
SWIDTH 903 0
DWIDTH 40 0
BBX 40 40 0 -6
BITMAP
0000000000
0000000000
0000600000
0000600000
0000e00000
0000e00000
0000e00000
0000e00000
0000e00000
0000e00000
0000e00000
0000e00000
0000e00000
003fff8000
003fff8000
0000e00000
0000e00000
0000e00000
0000e00000
0000e00000
0000e00000
0000e00000
0000e00000
0000e00000
0000e00000
0000e00000
0000e00000
0000e00800
0000e01800
0000e03000
0000e06000
0000f1c000
00007f8000
00003e0000
0000000000
0000000000
0000000000
0000000000
0000000000
0000000000
ENDCHAR
STARTCHAR 246f
ENCODING 9327
SWIDTH 903 0
DWIDTH 40 0
BBX 40 40 0 -6
BITMAP
0000000000
0000000000
0000000000
0000000000
0000000000
0000000000
0000000000
0000000000
0000000000
0000000000
0000000000
0000000000
0000000000
0006003000
003e01f000
003e01f000
000e007000
000e007000
000e007000
000e007000
000e007000
000e007000
000e007000
000e007000
000e007000
000e007000
000e007000
000e007000
000e007000
000e00f000
000f01f000
0007877000
0003fe7800
0000f83c00
0000000000
0000000000
0000000000
0000000000
0000000000
0000000000
ENDCHAR
STARTCHAR 2470
ENCODING 9328
SWIDTH 903 0
DWIDTH 40 0
BBX 40 40 0 -6
BITMAP
0000000000
0000000000
0000000000
0000000000
0000000000
0000000000
0000000000
0000000000
0000000000
0000000000
0000000000
0000000000
0000000000
00ff00fe00
00ff00fe00
0038001800
001c001800
001c003000
000e003000
000e006000
0007006000
000700c000
000380c000
0003818000
0003818000
0001c30000
0001c30000
0000e60000
0000ec0000
0000ec0000
0000780000
0000780000
0000300000
0000300000
0000000000
0000000000
0000000000
0000000000
0000000000
0000000000
ENDCHAR
STARTCHAR 2471
ENCODING 9329
SWIDTH 903 0
DWIDTH 40 0
BBX 40 40 0 -6
BITMAP
0000000000
0000000000
0000000000
0000000000
0000000000
0000000000
0000000000
0000000000
0000000000
0000000000
0000000000
0000000000
0000000000
07f07f07e0
07f07f07e0
01c01c0180
01c01c0180
00e00c0300
00e01c0300
00701e0300
00701e0600
0070360600
0038360600
0038330c00
001c630c00
001c631800
001c619800
000ec19800
000ec1b000
0006c1b000
000780f000
000780f000
0003006000
0003006000
0000000000
0000000000
0000000000
0000000000
0000000000
0000000000
ENDCHAR
STARTCHAR 2472
ENCODING 9330
SWIDTH 903 0
DWIDTH 40 0
BBX 40 40 0 -6
BITMAP
0000000000
0000000000
0000000000
0000000000
0000000000
0000000000
0000000000
0000000000
0000000000
0000000000
0000000000
0000000000
0000000000
007f007f00
007f007f00
001c001c00
000e001800
0007003000
0003806000
0001c0c000
0000e18000
0000730000
00003e0000
00001c0000
00001e0000
0000370000
0000638000
0000c1c000
000180e000
0003007000
0006003800
000c001c00
007f007f80
007f007f80
0000000000
0000000000
0000000000
0000000000
0000000000
0000000000
ENDCHAR
STARTCHAR 2473
ENCODING 9331
SWIDTH 903 0
DWIDTH 40 0
BBX 40 40 0 -6
BITMAP
0000000000
0000000000
0000000000
0000000000
0000000000
0000000000
0000000000
0000000000
0000000000
0000000000
0000000000
0000000000
0000000000
007ff1ff00
007ff1ff00
000f003000
0007003000
0007003000
0003806000
0003806000
0001c0c000
0001c0c000
0000e0c000
0000e18000
0000718000
0000718000
00003b0000
00003f0000
00003e0000
00001e0000
00001e0000
00001c0000
00001c0000
0000180000
0038380000
007c300000
007c700000
0078e00000
003fc00000
000f800000
ENDCHAR
STARTCHAR 2474
ENCODING 9332
SWIDTH 903 0
DWIDTH 40 0
BBX 40 40 0 -6
BITMAP
0000000000
0000000000
0000000000
0000000000
0000000000
0000000000
0000000000
0000000000
0000000000
0000000000
0000000000
0000000000
0000000000
0007fff800
0007fff800
000f007000
000e00e000
001c01c000
0018038000
0000070000
00000e0000
00001c0000
0000380000
0000700000
0000e00000
0001c00000
0003800000
0007000800
000e001800
001c003000
0038007000
007000e000
007fffe000
007fffe000
0000000000
0000000000
0000000000
0000000000
0000000000
0000000000
ENDCHAR
STARTCHAR 2475
ENCODING 9333
SWIDTH 903 0
DWIDTH 40 0
BBX 40 40 0 -6
BITMAP
0000000000
0000000000
00001e0000
00001e0000
00003f0000
00003f0000
0000778000
0000678000
0000e38000
0000c3c000
0000c3c000
0001c1c000
000181e000
000381e000
000300f000
000700f000
0006007000
000e007800
000c007800
001ffffc00
001ffffc00
0018003c00
0038003c00
0030001e00
0030001e00
0070001e00
0060000f00
00e0000f00
00c0000f00
00c0000780
01c0000780
0180000780
0ffc007ff0
0ffc007ff0
0000000000
0000000000
0000000000
0000000000
0000000000
0000000000
ENDCHAR
STARTCHAR 2476
ENCODING 9334
SWIDTH 903 0
DWIDTH 40 0
BBX 40 40 0 -6
BITMAP
0000000000
0000000000
03ffff8000
03ffffe000
007e00f800
003c003c00
003c001e00
003c000f00
003c000780
003c000780
003c000780
003c000780
003c000700
003c000f00
003c001e00
003c003c00
003c007000
003fffe000
003ffff800
003c001e00
003c000f00
003c000780
003c000380
003c0003c0
003c0003c0
003c0003c0
003c0003c0
003c000380
003c000780
003c000780
003c000f00
007e003e00
03fffffc00
03fffff000
0000000000
0000000000
0000000000
0000000000
0000000000
0000000000
ENDCHAR
STARTCHAR 2477
ENCODING 9335
SWIDTH 903 0
DWIDTH 40 0
BBX 40 40 0 -6
BITMAP
0000000000
0000000000
03ffffff00
03ffffff00
007f801f00
001e000f80
001e000780
001e000380
001e0001c0
001e0000c0
001e000040
001e000000
001e000000
001e000000
001e000000
001e000000
001e000000
001e000000
001e000000
001e000000
001e000000
001e000000
001e000000
001e000000
001e000000
001e000000
001e000000
001e000000
001e000000
001e000000
001e000000
007f800000
03fff00000
03fff00000
0000000000
0000000000
0000000000
0000000000
0000000000
0000000000
ENDCHAR
STARTCHAR 2478
ENCODING 9336
SWIDTH 903 0
DWIDTH 40 0
BBX 40 40 0 -6
BITMAP
0000000000
0000000000
0000180000
0000180000
0000380000
00003c0000
00003c0000
00007c0000
00007e0000
00006e0000
0000cf0000
0000c70000
0001878000
0001838000
000303c000
000303c000
000601e000
000601e000
000c00f000
000c00f000
0018007800
0018007800
0030003c00
0030003c00
0060001e00
0060001e00
00c0000f00
00c0000f00
0180000780
0180000780
03000003c0
03000003c0
07ffffffe0
07ffffffe0
0000000000
0000000000
0000000000
0000000000
0000000000
0000000000
ENDCHAR
STARTCHAR 2479
ENCODING 9337
SWIDTH 903 0
DWIDTH 40 0
BBX 40 40 0 -6
BITMAP
0000000000
0000000000
03ffffff80
03ffffff80
007e0007c0
003c0003c0
003c0001c0
003c0001c0
003c0000c0
003c0000c0
003c000040
003c000000
003c006000
003c006000
003c006000
003c006000
003c00e000
003fffe000
003fffe000
003c00e000
003c006000
003c006000
003c006000
003c006000
003c000000
003c000040
003c0000c0
003c0000c0
003c0001c0
003c0001c0
003c0003c0
007e0007c0
03ffffff80
03ffffff80
0000000000
0000000000
0000000000
0000000000
0000000000
0000000000
ENDCHAR
STARTCHAR 247a
ENCODING 9338
SWIDTH 903 0
DWIDTH 40 0
BBX 40 40 0 -6
BITMAP
0000000000
0000000000
003fffff80
003fffff80
003c000780
0078000f00
0070001e00
0070001e00
00e0003c00
00c0007800
008000f000
000001e000
000001c000
000003c000
0000078000
00000f0000
00000e0000
00001e0000
00003c0000
0000380000
0000780000
0000f00000
0001e00000
0001e00000
0003c00080
0007800180
000f000180
001e000380
001c000700
003c000f00
0078000f00
00f0001e00
01fffffe00
01fffffe00
0000000000
0000000000
0000000000
0000000000
0000000000
0000000000
ENDCHAR
STARTCHAR 247b
ENCODING 9339
SWIDTH 903 0
DWIDTH 40 0
BBX 40 40 0 -6
BITMAP
0000000000
0000000000
03ff00ffc0
03ff00ffc0
00fc003f00
0078001e00
0078001e00
0078001e00
0078001e00
0078001e00
0078001e00
0078001e00
0078001e00
0078001e00
0078001e00
0078001e00
0078001e00
007ffffe00
007ffffe00
0078001e00
0078001e00
0078001e00
0078001e00
0078001e00
0078001e00
0078001e00
0078001e00
0078001e00
0078001e00
0078001e00
0078001e00
00fc003f00
03ff00ffc0
03ff00ffc0
0000000000
0000000000
0000000000
0000000000
0000000000
0000000000
ENDCHAR
STARTCHAR 247c
ENCODING 9340
SWIDTH 903 0
DWIDTH 40 0
BBX 40 40 0 -6
BITMAP
0000000000
0000000000
0000ff0000
0003ffc000
000f81f000
001c003800
0038001c00
0070000e00
00f0000f00
00e0000700
01e0000780
01c0000380
03c60063c0
03c60063c0
03c60063c0
03c60063c0
03c7ffe3c0
03c7ffe3c0
03c7ffe3c0
03c7ffe3c0
03c60063c0
03c60063c0
03c60063c0
01c6006380
01c0000380
01e0000780
00e0000700
00f0000f00
0070000e00
0038001c00
001c003800
000f00f000
0003ffc000
0000ff0000
0000000000
0000000000
0000000000
0000000000
0000000000
0000000000
ENDCHAR
STARTCHAR 247d
ENCODING 9341
SWIDTH 903 0
DWIDTH 40 0
BBX 40 40 0 -6
BITMAP
0000000000
0000000000
0007ffe000
0007ffe000
00007e0000
00003c0000
00003c0000
00003c0000
00003c0000
00003c0000
00003c0000
00003c0000
00003c0000
00003c0000
00003c0000
00003c0000
00003c0000
00003c0000
00003c0000
00003c0000
00003c0000
00003c0000
00003c0000
00003c0000
00003c0000
00003c0000
00003c0000
00003c0000
00003c0000
00003c0000
00003c0000
00007e0000
0007ffe000
0007ffe000
0000000000
0000000000
0000000000
0000000000
0000000000
0000000000
ENDCHAR
STARTCHAR 247e
ENCODING 9342
SWIDTH 903 0
DWIDTH 40 0
BBX 40 40 0 -6
BITMAP
0000000000
0000000000
03ff003fc0
03ff003fc0
00fc000600
0078000c00
0078001800
0078003000
0078006000
007800c000
0078018000
0078030000
0078060000
00780c0000
00781e0000
00783e0000
00786f0000
0078c70000
0079878000
007b038000
007e03c000
007c01c000
007801e000
007800e000
007800f000
0078007000
0078007800
0078003800
0078003c00
0078003c00
0078001e00
00fc001e00
03ff00ffc0
03ff00ffc0
0000000000
0000000000
0000000000
0000000000
0000000000
0000000000
ENDCHAR
STARTCHAR 2521
ENCODING 9505
SWIDTH 903 0
DWIDTH 40 0
BBX 40 40 0 -6
BITMAP
0000000000
0000000000
00001e0000
00001e0000
00003f0000
00003f0000
0000778000
0000678000
0000e38000
0000c3c000
0000c3c000
0001c1c000
000181e000
000381e000
000300f000
000700f000
0006007000
000e007800
000c007800
001c007c00
0018003c00
0018003c00
0038003c00
0030001e00
0030001e00
0070001e00
0060000f00
00e0000f00
00c0000f00
00c0000780
01c0000780
0180000780
0ffc007ff0
0ffc007ff0
0000000000
0000000000
0000000000
0000000000
0000000000
0000000000
ENDCHAR
STARTCHAR 2522
ENCODING 9506
SWIDTH 903 0
DWIDTH 40 0
BBX 40 40 0 -6
BITMAP
0000000000
0000000000
0fc0000ff0
0fe0000ff0
01e0001f80
01f0001f80
01f0003780
01f8003780
01b8003780
01bc006780
019c006780
019c006780
019e00c780
018e00c780
018f00c780
0187018780
0187018780
0187818780
0183830780
0183c30780
0181c30780
0181c60780
0180e60780
0180ec0780
0180ec0780
01807c0780
0180780780
0180380780
0180380780
0180100780
0180100780
03c0000fc0
0ff0003ff0
0ff0003ff0
0000000000
0000000000
0000000000
0000000000
0000000000
0000000000
ENDCHAR
STARTCHAR 2523
ENCODING 9507
SWIDTH 903 0
DWIDTH 40 0
BBX 40 40 0 -6
BITMAP
0000000000
0000000000
03f8007fe0
03f8007fe0
007c000f00
007c000600
007e000600
006e000600
0067000600
0067800600
0063800600
0063c00600
0061e00600
0060e00600
0060f00600
0060700600
0060780600
00603c0600
00601c0600
00601e0600
00600f0600
0060070600
0060078600
006003c600
006001c600
006001e600
006000f600
0060007600
0060007e00
0060003e00
0060001e00
00f0000e00
07fe000600
07fe000600
0000000000
0000000000
0000000000
0000000000
0000000000
0000000000
ENDCHAR
STARTCHAR 2524
ENCODING 9508
SWIDTH 903 0
DWIDTH 40 0
BBX 40 40 0 -6
BITMAP
0000000000
0000000000
03ffffffc0
03ffffffc0
03ffffffc0
03ffffffc0
03000000c0
03000000c0
03000000c0
03000000c0
0000000000
0000000000
0000000000
0060000600
0060000600
0060000600
007ffffe00
007ffffe00
007ffffe00
007ffffe00
0060000600
0060000600
0060000600
0000000000
0000000000
0000000000
03000000c0
03000000c0
03000000c0
03000000c0
03ffffffc0
03ffffffc0
03ffffffc0
03ffffffc0
0000000000
0000000000
0000000000
0000000000
0000000000
0000000000
ENDCHAR
STARTCHAR 2525
ENCODING 9509
SWIDTH 903 0
DWIDTH 40 0
BBX 40 40 0 -6
BITMAP
0000000000
0000000000
0000ff0000
0003ffc000
000f80f000
001c003800
0038001c00
0070000e00
00f0000f00
00f0000f00
01e0000780
01e0000780
01e0000780
03c00003c0
03c00003c0
03c00003c0
03c00003c0
03c00003c0
03c00003c0
03c00003c0
03c00003c0
03c00003c0
03c00003c0
01e0000780
01e0000780
01e0000780
00f0000f00
00f0000f00
0070000e00
0038001c00
001c003800
000f00f000
0003ffc000
0000ff0000
0000000000
0000000000
0000000000
0000000000
0000000000
0000000000
ENDCHAR
STARTCHAR 2526
ENCODING 9510
SWIDTH 903 0
DWIDTH 40 0
BBX 40 40 0 -6
BITMAP
0000000000
0000000000
03ffffffc0
03ffffffc0
007e007e00
003c003c00
003c003c00
003c003c00
003c003c00
003c003c00
003c003c00
003c003c00
003c003c00
003c003c00
003c003c00
003c003c00
003c003c00
003c003c00
003c003c00
003c003c00
003c003c00
003c003c00
003c003c00
003c003c00
003c003c00
003c003c00
003c003c00
003c003c00
003c003c00
003c003c00
003c003c00
007e007e00
03ff81ffc0
03ff81ffc0
0000000000
0000000000
0000000000
0000000000
0000000000
0000000000
ENDCHAR
STARTCHAR 2527
ENCODING 9511
SWIDTH 903 0
DWIDTH 40 0
BBX 40 40 0 -6
BITMAP
0000000000
0000000000
03ffffc000
03fffff000
007e00fc00
003c003f00
003c000f80
003c000780
003c0003c0
003c0003c0
003c0003c0
003c0003c0
003c0003c0
003c000380
003c000780
003c000f00
003c001e00
003c00fc00
003ffff000
003fff8000
003c000000
003c000000
003c000000
003c000000
003c000000
003c000000
003c000000
003c000000
003c000000
003c000000
003c000000
007e000000
03ffc00000
03ffc00000
0000000000
0000000000
0000000000
0000000000
0000000000
0000000000
ENDCHAR
STARTCHAR 2528
ENCODING 9512
SWIDTH 903 0
DWIDTH 40 0
BBX 40 40 0 -6
BITMAP
0000000000
0000000000
01ffffffc0
00ffffffc0
00780003c0
003c0001c0
001e0000c0
000f0000c0
0007800040
0003c00040
0001e00000
0000f00000
0000780000
00003c0000
00001e0000
00000f0000
0000078000
000003c000
0000038000
0000070000
00000e0000
00001c0000
0000380000
0000700000
0000e00040
0001c00040
00038000c0
00070000c0
000e0001c0
001c0001c0
00380003c0
00ffffffc0
03ffffffc0
07ffffffc0
0000000000
0000000000
0000000000
0000000000
0000000000
0000000000
ENDCHAR
STARTCHAR 2529
ENCODING 9513
SWIDTH 903 0
DWIDTH 40 0
BBX 40 40 0 -6
BITMAP
0000000000
0000000000
03ffffffc0
03ffffffc0
07c03c03e0
07803c01e0
07003c00e0
07003c00e0
06003c0060
06003c0060
04003c0020
00003c0000
00003c0000
00003c0000
00003c0000
00003c0000
00003c0000
00003c0000
00003c0000
00003c0000
00003c0000
00003c0000
00003c0000
00003c0000
00003c0000
00003c0000
00003c0000
00003c0000
00003c0000
00003c0000
00003c0000
00007e0000
0003ffc000
0003ffc000
0000000000
0000000000
0000000000
0000000000
0000000000
0000000000
ENDCHAR
STARTCHAR 252a
ENCODING 9514
SWIDTH 903 0
DWIDTH 40 0
BBX 40 40 0 -6
BITMAP
0000000000
0000000000
001e000000
007f000000
00e3803c00
0181c0ff00
0200e1c780
0000e383c0
00007307c0
00007707c0
0000360380
00003c0000
00003c0000
00003c0000
00003c0000
00003c0000
00003c0000
00003c0000
00003c0000
00003c0000
00003c0000
00003c0000
00003c0000
00003c0000
00003c0000
00003c0000
00003c0000
00003c0000
00003c0000
00003c0000
00003c0000
00003c0000
0003ffc000
0003ffc000
0000000000
0000000000
0000000000
0000000000
0000000000
0000000000
ENDCHAR
STARTCHAR 252b
ENCODING 9515
SWIDTH 903 0
DWIDTH 40 0
BBX 40 40 0 -6
BITMAP
0000000000
0000000000
0001ff8000
0001ff8000
00003c0000
00003c0000
00003c0000
00003c0000
00003c0000
0003ffc000
001f3cf800
007c3c3e00
00f03c0f00
01f03c0f80
01e03c0780
03c03c03c0
03c03c03c0
03c03c03c0
03c03c03c0
03c03c03c0
03e03c07c0
01e03c0780
01f03c0f80
00f03c0f00
007c3c3e00
001f3cf800
0003ffc000
00003c0000
00003c0000
00003c0000
00003c0000
00003c0000
0001ff8000
0001ff8000
0000000000
0000000000
0000000000
0000000000
0000000000
0000000000
ENDCHAR
STARTCHAR 252c
ENCODING 9516
SWIDTH 903 0
DWIDTH 40 0
BBX 40 40 0 -6
BITMAP
0000000000
0000000000
03ffc1ffc0
03ffc1ffc0
003c003c00
003c003800
001e003800
000e007000
000f007000
000700e000
000780e000
0003c1c000
0001c1c000
0001e38000
0000f38000
0000f70000
00007f0000
00003e0000
00007e0000
00007f0000
0000ff0000
0000e78000
0001e3c000
0001c3c000
000381e000
000381e000
000700f000
000f007800
000e007800
001c003c00
001c001e00
0038001e00
03ff81ffe0
03ff81ffe0
0000000000
0000000000
0000000000
0000000000
0000000000
0000000000
ENDCHAR
STARTCHAR 252d
ENCODING 9517
SWIDTH 903 0
DWIDTH 40 0
BBX 40 40 0 -6
BITMAP
0000000000
0000000000
0001ff8000
0001ff8000
00003c0000
07803c01e0
0fc03c03f0
1dc03c03b8
1ce03c0738
0ce03c0730
00e03c0700
00e03c0700
00e03c0700
00e03c0700
00703c0e00
00703c0e00
00703c0e00
00703c0e00
00703c0e00
00703c0e00
00783c1e00
00383c1c00
00383c1c00
00383c1c00
001c3c3800
001e3c7800
000ffff000
0003ffc000
00003c0000
00003c0000
00003c0000
00007e0000
0003ffc000
0003ffc000
0000000000
0000000000
0000000000
0000000000
0000000000
0000000000
ENDCHAR
STARTCHAR 252e
ENCODING 9518
SWIDTH 903 0
DWIDTH 40 0
BBX 40 40 0 -6
BITMAP
0000000000
0000000000
0001ff8000
0007ffe000
001fc3f800
003e003c00
0078001e00
00f0000f00
01e0000780
01c0000780
03c00003c0
03c00003c0
03c00003c0
03c00003c0
03e00007c0
01e0000780
01e0000780
00f0000700
00f0000f00
0070000f00
0070000e00
0038001e00
0038001c00
0018001800
000c003000
030c0030c0
03060060c0
030300c0c0
030300c0c0
03018180c0
03018180c0
03ff81ffc0
03ff81ffc0
03ff81ffc0
0000000000
0000000000
0000000000
0000000000
0000000000
0000000000
ENDCHAR
STARTCHAR 252f
ENCODING 9519
SWIDTH 903 0
DWIDTH 40 0
BBX 40 40 0 -6
BITMAP
0000000000
0000000000
0000000000
0000000000
0000000000
0000000000
0000000000
0000000000
0000000000
0000000000
0000000000
0000000000
0000000000
00003c0400
00007e0400
0001e70c00
0003830c00
0007038c00
0006039800
000e039800
001c03b000
001c03f000
003803e000
003803c000
007803c000
0070038400
0070078400
0070078400
00700f8c00
00781b8c00
003c3b9c00
003ff3f800
001fe3f000
000f81c000
0000000000
0000000000
0000000000
0000000000
0000000000
0000000000
ENDCHAR
STARTCHAR 2530
ENCODING 9520
SWIDTH 903 0
DWIDTH 40 0
BBX 40 40 0 -6
BITMAP
0000000000
0000000000
000001f800
000007fc00
00000e0e00
00001c0600
0000380300
0000300300
0000600300
0000600300
0000e00300
0000c00600
0001c00600
0001c00c00
0001881800
00039c7000
0003bfe000
00073fc000
00071e7000
0007003800
000e001c00
000e001c00
000e001c00
001e001c00
001c001c00
001c001c00
0038003800
003c003800
003e007000
003b007000
0071c0e000
0070f7c000
00707f0000
00701c0000
0070000000
00f0000000
00e0000000
00e0000000
00e0000000
00e0000000
ENDCHAR
STARTCHAR 2531
ENCODING 9521
SWIDTH 903 0
DWIDTH 40 0
BBX 40 40 0 -6
BITMAP
0000000000
0000000000
0000000000
0000000000
0000000000
0000000000
0000000000
0000000000
0000000000
0000000000
0000000000
0000000000
0000000000
0003c00c00
000fe01e00
001ef03e00
0018707800
003838f000
003038e000
003019c000
00201b8000
00201f0000
00000e0000
00000e0000
00001c0000
00001c0000
0000180000
0000380000
0000380000
0000700000
0000700000
0000e00000
0000e00000
0000c00000
0000000000
0000000000
0000000000
0000000000
0000000000
0000000000
ENDCHAR
STARTCHAR 2532
ENCODING 9522
SWIDTH 903 0
DWIDTH 40 0
BBX 40 40 0 -6
BITMAP
0000000000
0000000000
00003c0000
0000ff8000
0001ffc000
0001c3f000
000180f800
0001807800
0001c03c00
0000e01c00
0000701c00
0000380000
00001c0000
00000e0000
00007e0000
0001e70000
0003c38000
0007018000
000e01c000
001e01c000
001c00e000
003800e000
003000e000
007000c000
006001c000
006001c000
006001c000
0060018000
0070038000
0038070000
003c0f0000
001f3e0000
000ffc0000
0007f00000
0000000000
0000000000
0000000000
0000000000
0000000000
0000000000
ENDCHAR
STARTCHAR 2533
ENCODING 9523
SWIDTH 903 0
DWIDTH 40 0
BBX 40 40 0 -6
BITMAP
0000000000
0000000000
0000000000
0000000000
0000000000
0000000000
0000000000
0000000000
0000000000
0000000000
0000000000
0000000000
0000000000
0000ffc000
0003fff000
0007c0f800
000f003c00
000f003c00
000e001800
000e000000
0007000000
000387e000
0001ffe000
00077f8000
001c000000
0038000000
0070000000
0070000200
0070000e00
0078001c00
003e00f800
001fffe000
0007ff8000
0000fc0000
0000000000
0000000000
0000000000
0000000000
0000000000
0000000000
ENDCHAR
STARTCHAR 2534
ENCODING 9524
SWIDTH 903 0
DWIDTH 40 0
BBX 40 40 0 -6
BITMAP
0000000000
0000000000
0000e00000
0001c00000
0003800000
0003801c00
0007007c00
000700f000
000701e000
00039b8000
0001ff0000
00001e0000
0000380000
0000700000
0000e00000
0001800000
0007000000
000e000000
001c000000
0018000000
0038000000
0070000000
0070000000
0070000000
0070000000
0078000000
003c000000
001f000000
000fc00000
0003f80000
0000fc0000
00061e0000
000f070000
001f070000
001e070000
001c070000
001c0e0000
000e1c0000
0007f80000
0003e00000
ENDCHAR
STARTCHAR 2535
ENCODING 9525
SWIDTH 903 0
DWIDTH 40 0
BBX 40 40 0 -6
BITMAP
0000000000
0000000000
0000000000
0000000000
0000000000
0000000000
0000000000
0000000000
0000000000
0000000000
0000000000
0000000000
0000000000
001e03e000
003f0ff000
00731c3800
0063381c00
0003e01c00
0003c01c00
0003803800
0007803800
0007007000
0007007000
0007007000
000e00e000
000e00e000
000e00e000
000e01c000
001c01c000
001c01c000
001c01c000
001c038000
001c038000
0018038000
0000038000
0000070000
0000070000
0000070000
0000070000
0000060000
ENDCHAR
STARTCHAR 2536
ENCODING 9526
SWIDTH 903 0
DWIDTH 40 0
BBX 40 40 0 -6
BITMAP
0000000000
0000000000
000007f800
00001e1e00
0000780700
0000f00700
0001c00380
0003800380
0007000380
000f000380
000e000380
001c000380
0018000380
0038000380
0038000700
0078000700
0070000700
007fffff00
0070000e00
00f0000e00
00f0000e00
00e0000e00
00e0001c00
00e0001c00
00e0003800
00e0003800
00e0007000
00e000f000
007000e000
007001c000
0070038000
0038070000
001f1e0000
0007f80000
0000000000
0000000000
0000000000
0000000000
0000000000
0000000000
ENDCHAR
STARTCHAR 2537
ENCODING 9527
SWIDTH 903 0
DWIDTH 40 0
BBX 40 40 0 -6
BITMAP
0000000000
0000000000
0000000000
0000000000
0000000000
0000000000
0000000000
0000000000
0000000000
0000000000
0000000000
0000000000
0000000000
00000e0000
00001e0000
00001c0000
0000380000
0000380000
0000700000
0000700000
0000e00000
0000e00000
0001c00000
0001c00000
0003800000
0003800000
0003802000
0007006000
000700c000
0007018000
0003878000
0003ff0000
0001fc0000
0000700000
0000000000
0000000000
0000000000
0000000000
0000000000
0000000000
ENDCHAR
STARTCHAR 2538
ENCODING 9528
SWIDTH 903 0
DWIDTH 40 0
BBX 40 40 0 -6
BITMAP
0000000000
0000000000
0000000000
0000000000
0000000000
0000000000
0000000000
0000000000
0000000000
0000000000
0000000000
0000000000
0000000000
0001801c00
0003c03c00
0003c07800
000380f000
000383c000
0007870000
00071c0000
0007300000
000ff00000
000ffc0000
000e1c0000
000e0e0000
001e0e0000
001c0e0000
003c0e0200
00380e0200
00380e0600
0038060c00
0078071c00
007807f800
007003f000
0000000000
0000000000
0000000000
0000000000
0000000000
0000000000
ENDCHAR
STARTCHAR 2539
ENCODING 9529
SWIDTH 903 0
DWIDTH 40 0
BBX 40 40 0 -6
BITMAP
0000000000
0000000000
0001fc0000
0003fe0000
0003cf0000
0001c30000
0000030000
0000018000
0000018000
0000018000
0000018000
0000038000
0000038000
0000078000
0000078000
0000070000
00000f0000
00000f0000
00001d0000
0000190000
0000390000
0000710000
0000710000
0000e18000
0001e18000
0001c18000
0003c18000
000781c000
000f01c000
001f00ec00
003e00fe00
007c007e00
0078007e00
0030001c00
0000000000
0000000000
0000000000
0000000000
0000000000
0000000000
ENDCHAR
STARTCHAR 253a
ENCODING 9530
SWIDTH 903 0
DWIDTH 40 0
BBX 40 40 0 -6
BITMAP
0000000000
0000000000
0000000000
0000000000
0000000000
0000000000
0000000000
0000000000
0000000000
0000000000
0000000000
0000000000
0000000000
0000700c00
0000f00c00
0000e00c00
0000e00c00
0001c00c00
0001c01800
0001c01800
0003801800
0003801800
0003803000
0007003000
0007003000
0007006000
000e006000
000e006000
000e01e200
001f01c600
001b03ee00
0019877c00
0038fe3000
0030780000
0070000000
0070000000
0060000000
00e0000000
00c0000000
00c0000000
ENDCHAR
STARTCHAR 253b
ENCODING 9531
SWIDTH 903 0
DWIDTH 40 0
BBX 40 40 0 -6
BITMAP
0000000000
0000000000
0000000000
0000000000
0000000000
0000000000
0000000000
0000000000
0000000000
0000000000
0000000000
0000000000
0000000000
001c000000
003e000800
003e000800
001e000800
000e001800
000e001800
000c003000
000c003000
000c006000
000c00c000
001801c000
0018038000
0018070000
00180e0000
00301c0000
0030380000
0030700000
0031e00000
0077800000
007e000000
0078000000
0000000000
0000000000
0000000000
0000000000
0000000000
0000000000
ENDCHAR
STARTCHAR 253c
ENCODING 9532
SWIDTH 903 0
DWIDTH 40 0
BBX 40 40 0 -6
BITMAP
0000000000
0000000000
00000f0000
0000780000
0000f00000
0000f00000
0001e01e00
0001e03e00
0001f0fc00
0000fff000
00001f0000
0000300000
0000e00000
0001c00000
0003800000
0003800000
0003800000
0001c00000
0000e07c00
000071fc00
00003ff800
0000fe0000
0003c00000
000f000000
001c000000
0038000000
0070000000
0070000000
0078000000
003e000000
001fe00000
000ffc0000
0003ff0000
0000078000
0000018000
0038018000
003c038000
001f1f0000
0007fe0000
0001f80000
ENDCHAR
STARTCHAR 253d
ENCODING 9533
SWIDTH 903 0
DWIDTH 40 0
BBX 40 40 0 -6
BITMAP
0000000000
0000000000
0000000000
0000000000
0000000000
0000000000
0000000000
0000000000
0000000000
0000000000
0000000000
0000000000
0000000000
00003f8000
0000ffe000
0001e07000
0003c03800
0007803800
000e001c00
000e001c00
001c001c00
001c001c00
0038001c00
0038001c00
0070003800
0070003800
0070007000
0070007000
003800e000
003801c000
001c038000
001f0f0000
000ffe0000
0003f80000
0000000000
0000000000
0000000000
0000000000
0000000000
0000000000
ENDCHAR
STARTCHAR 253e
ENCODING 9534
SWIDTH 903 0
DWIDTH 40 0
BBX 40 40 0 -6
BITMAP
0000000000
0000000000
0000000000
0000000000
0000000000
0000000000
0000000000
0000000000
0000000000
0000000000
0000000000
0000000000
0000000000
0007fffc00
001ffffc00
003ffff800
0070e0c000
0000c18000
0000c18000
0001c18000
0001830000
0001830000
0003060000
0007060000
0006060000
000e0c0000
000e0c0000
001c0c0000
001c0c2000
003c1c2000
003c1c6000
00781fc000
00781f8000
00700e0000
0000000000
0000000000
0000000000
0000000000
0000000000
0000000000
ENDCHAR
STARTCHAR 253f
ENCODING 9535
SWIDTH 903 0
DWIDTH 40 0
BBX 40 40 0 -6
BITMAP
0000000000
0000000000
0000000000
0000000000
0000000000
0000000000
0000000000
0000000000
0000000000
0000000000
0000000000
0000000000
0000000000
00000f0000
00003fc000
000078e000
0000e07000
0001c03800
0001803800
0003801c00
0003001c00
0007001c00
0007001c00
000e001c00
000e001c00
000e003c00
001e003800
001b003800
001b007000
0019807000
003980e000
0039c1c000
0030f78000
00707e0000
0070000000
0070000000
00e0000000
00e0000000
00e0000000
00c0000000
ENDCHAR
STARTCHAR 2540
ENCODING 9536
SWIDTH 903 0
DWIDTH 40 0
BBX 40 40 0 -6
BITMAP
0000000000
0000000000
0000000000
0000000000
0000000000
0000000000
0000000000
0000000000
0000000000
0000000000
0000000000
0000000000
0000000000
00007fff00
0001f3ff00
000380c000
0007006000
000e003000
000c003800
001c001800
0018001800
0038001800
0038001800
0070003800
0070003800
0070007000
0070006000
007000e000
007001c000
0030038000
0030070000
00187e0000
000ff80000
0007c00000
0000000000
0000000000
0000000000
0000000000
0000000000
0000000000
ENDCHAR
STARTCHAR 2541
ENCODING 9537
SWIDTH 903 0
DWIDTH 40 0
BBX 40 40 0 -6
BITMAP
0000000000
0000000000
0000000000
0000000000
0000000000
0000000000
0000000000
0000000000
0000000000
0000000000
0000000000
0000000000
0000000000
0007fffc00
001ffffc00
003c07fc00
00700e0000
00401c0000
0000380000
0000700000
0000e00000
0000c00000
0001c00000
0001800000
0003800000
0003802000
0003804000
000380c000
0003818000
0003830000
0003c70000
0003fe0000
0001fc0000
0000f00000
0000000000
0000000000
0000000000
0000000000
0000000000
0000000000
ENDCHAR
STARTCHAR 2542
ENCODING 9538
SWIDTH 903 0
DWIDTH 40 0
BBX 40 40 0 -6
BITMAP
0000000000
0000000000
0000000000
0000000000
0000000000
0000000000
0000000000
0000000000
0000000000
0000000000
0000000000
0000000000
0000000000
001c006000
003e00f000
003e007000
001e003800
000e003800
000e003800
000e003800
000c003000
000c007000
0018007000
0018006000
0010006000
003000e000
003000c000
002001c000
0030038000
0030070000
00381e0000
001c780000
000ff00000
0007c00000
0000000000
0000000000
0000000000
0000000000
0000000000
0000000000
ENDCHAR
STARTCHAR 2543
ENCODING 9539
SWIDTH 903 0
DWIDTH 40 0
BBX 40 40 0 -6
BITMAP
0000000000
0000000000
0000000000
0000000000
0000000000
000000c000
000001c000
000001c000
000001c000
0000038000
0000038000
0000070000
0000070000
0000ff8000
0003eee000
00078c3000
000f0c3800
001e0c1800
003c181c00
0038181c00
0078181c00
0070181c00
0070301c00
0070301c00
0070301c00
0070303800
0070603800
0038607000
0038607000
001860e000
001cc3c000
000ecf8000
0003fc0000
0000c00000
0001c00000
0001c00000
0001800000
0003800000
0003000000
0003000000
ENDCHAR
STARTCHAR 2544
ENCODING 9540
SWIDTH 903 0
DWIDTH 40 0
BBX 40 40 0 -6
BITMAP
0000000000
0000000000
0000000000
0000000000
0000000000
0000000000
0000000000
0000000000
0007800000
000fc00000
001fe00300
0018e00780
0030600780
0020600f00
0000700e00
0000701e00
0000303c00
0000383800
0000387800
000038f000
000018e000
000019c000
00001bc000
00001f8000
00001f0000
00003e0000
00007c0000
0000fc0000
0000fc0000
0001ec0000
0003ce0000
00078e0000
000f0e0100
001f070100
001e070300
003c070600
0078038e00
00f803fc00
00f001f800
00e000e000
ENDCHAR
STARTCHAR 2545
ENCODING 9541
SWIDTH 903 0
DWIDTH 40 0
BBX 40 40 0 -6
BITMAP
0000000000
0000000000
0000000000
0000000000
0000000000
000001c000
000001c000
000001c000
0000038000
0000038000
0000030000
0000070000
0000070000
0001c66000
00070e3000
000e0e3800
001c0c1800
003c0c1c00
00381c0c00
00781c0c00
0070180c00
0070180c00
0070380c00
0070381c00
0070301c00
0070301c00
0070703800
0078703800
0038707000
003c60e000
001ee3c000
000fef0000
0003fc0000
0000c00000
0000c00000
0001c00000
0001800000
0003800000
0003000000
0003000000
ENDCHAR
STARTCHAR 2546
ENCODING 9542
SWIDTH 903 0
DWIDTH 40 0
BBX 40 40 0 -6
BITMAP
0000000000
0000000000
0000000000
0000000000
0000000000
0000000000
0000000000
0000000000
0000000000
0000000000
0000000000
0000000000
0000000000
0001802000
0003001800
0006000c00
000e000600
001c000700
0038000300
00780c0300
00701c0300
00f01c0380
00e03c0380
01e0380380
01c0380380
01c0380700
01c0700700
01c0700e00
01e0700e00
00e0d81c00
00f1983c00
007b9cf800
003f0ff000
001e07c000
0000000000
0000000000
0000000000
0000000000
0000000000
0000000000
ENDCHAR
STARTCHAR 2547
ENCODING 9543
SWIDTH 903 0
DWIDTH 40 0
BBX 40 40 0 -6
BITMAP
0000000000
0000000000
0000000000
0000000000
0003c00000
0001c00000
0001c00000
0001c00000
0003800000
0003800000
0003800000
0007000000
0007000000
0007000000
000e0ff800
001ff83800
0000003800
0000003800
0000003800
0000003800
0000003800
0000003800
0000003800
0000007800
0000007000
0000007000
0000007000
0000007000
000000f000
000000e000
000001e000
00007fc000
00000fc000
0000018000
0000000000
0000000000
0000000000
0000000000
0000000000
0000000000
ENDCHAR
STARTCHAR 2548
ENCODING 9544
SWIDTH 903 0
DWIDTH 40 0
BBX 40 40 0 -6
BITMAP
0000000000
0000000000
0000000000
0000000000
0001c00000
0001c00000
0003800000
0003800000
0007000000
0007000000
000e07f000
001ffc7000
0000007000
0002007000
000200e000
000300e000
000101c000
000181c000
0000c38000
0000c38000
0000670000
00006e0000
00003e0000
00003c0000
00003e0000
0000760000
0000770000
0000e38000
0001c38000
000381c000
000301e000
000600f000
000c007800
0018003000
0000000000
0000000000
0000000000
0000000000
0000000000
0000000000
ENDCHAR
STARTCHAR 2549
ENCODING 9545
SWIDTH 903 0
DWIDTH 40 0
BBX 40 40 0 -6
BITMAP
0000000000
0000000000
0000000000
0000000000
0000002000
0010007000
001ffff800
001c007000
001c007000
001c007000
001c007000
001c007000
001c007000
001c007000
001c007000
001c007000
001c007000
001c007000
001c007000
001c007000
001c007000
001c007000
001c007000
001c007000
001c007000
001c007000
001c007000
001c007000
001c007000
001c007000
001c007000
001c007000
0018006000
0000000000
0000000000
0000000000
0000000000
0000000000
0000000000
0000000000
ENDCHAR
STARTCHAR 254a
ENCODING 9546
SWIDTH 903 0
DWIDTH 40 0
BBX 40 40 0 -6
BITMAP
0000000000
0000000000
0000000000
0000000000
0008000000
000c000000
000ffff000
000e000000
000e000000
000e000000
000e000000
000e000000
000e000000
000e000000
000e000000
000e000000
000e000000
000e000000
000e000000
000e000000
000e000000
000e000000
000e000000
000e000000
000e000000
000e000000
000e000000
000e000000
000e000000
000e000000
000e000000
000fffe000
0007fff000
0000000000
0000000000
0000000000
0000000000
0000000000
0000000000
0000000000
ENDCHAR
STARTCHAR 254b
ENCODING 9547
SWIDTH 903 0
DWIDTH 40 0
BBX 40 40 0 -6
BITMAP
0000000000
0000000000
0000000000
0000000000
0003c00000
0001c00000
0001c00000
0001c00000
0003800000
0003800000
0003800000
0007000000
0007003000
000e07f800
001ffc7000
0000707000
0000707000
0000707000
0000707000
0000707000
0000e07000
0000e07000
0000e0f000
0000e0e000
0001c0e000
0001c0e000
0001c0e000
000380e000
000381e000
000701c000
000e07c000
000c3f8000
00180f8000
0010030000
0000000000
0000000000
0000000000
0000000000
0000000000
0000000000
ENDCHAR
STARTCHAR 254c
ENCODING 9548
SWIDTH 903 0
DWIDTH 40 0
BBX 40 40 0 -6
BITMAP
0000000000
0000000000
0000000000
0000000000
0000180000
00001e0000
00001c0000
00001c0000
00001c0000
00001c0000
00001c0000
00001c0000
00001c3000
000ffff800
0000380000
0000380000
0000380000
0000380000
0000380000
0000700000
0000700000
0000e00000
0000e00000
0000e00000
0000c18000
0001c0c000
0001c0e000
0003807000
0007007000
000707f800
000e7e3800
001ff03800
001f003800
000c001800
0000000000
0000000000
0000000000
0000000000
0000000000
0000000000
ENDCHAR
STARTCHAR 254d
ENCODING 9549
SWIDTH 903 0
DWIDTH 40 0
BBX 40 40 0 -6
BITMAP
0000000000
0000000000
0000000000
0000000000
0000040000
00000e0000
001fff0000
00000e0000
00000e0000
00000e0000
00001c0000
00001c0000
00001c0000
0000380000
0000383000
00007ff800
0000707000
0000007000
0000007000
0000007000
0000007000
000000f000
000000e000
000000e000
000000e000
000000e000
000001c000
000001c000
000001c000
0000038000
0000078000
0003ff0000
0000fe0000
0000380000
0000000000
0000000000
0000000000
0000000000
0000000000
0000000000
ENDCHAR
STARTCHAR 254e
ENCODING 9550
SWIDTH 903 0
DWIDTH 40 0
BBX 40 40 0 -6
BITMAP
0000000000
0000000000
0000000000
0000000000
0003c78000
0001c70000
0001c70000
0001c70000
00038f0000
00038e0000
00038e0000
00070e0000
00071c0000
00071c2000
000e1c7000
001ffff800
00001c7000
0000387000
0000387000
0000387000
0000387000
0000707000
0000707000
0000707000
0000707000
0000e07000
0000e0e000
0001c0e000
000380e000
000381e000
000703c000
00063fc000
000c0f8000
0018030000
0000000000
0000000000
0000000000
0000000000
0000000000
0000000000
ENDCHAR
STARTCHAR 254f
ENCODING 9551
SWIDTH 903 0
DWIDTH 40 0
BBX 40 40 0 -6
BITMAP
0000000000
0000000000
0000000000
0000000000
0000707000
0000787800
0000f0f000
0000e0e000
0000e0e000
0001c1c000
0001c1c000
0003838000
0003838000
0007070000
0007070000
000e0e0000
001c1c0000
0038380000
0038380000
001c1c0000
000e0e0000
000e0e0000
0007070000
0007070000
0003838000
0003838000
0003c3c000
0001c1c000
0001e1e000
0000e0e000
0000f0f000
0000707000
0000707000
0000000000
0000000000
0000000000
0000000000
0000000000
0000000000
0000000000
ENDCHAR
STARTCHAR 2550
ENCODING 9552
SWIDTH 903 0
DWIDTH 40 0
BBX 40 40 0 -6
BITMAP
0000000000
0000000000
0000000000
0000000000
0000006000
003ffff000
0001c00000
0001c00000
0001c00000
0001c00000
0003800000
0003800000
0003800000
0007000000
0007006000
000e3ff000
001ff0e000
000000e000
000000e000
000000e000
000000e000
000000e000
000001e000
000001c000
000001c000
000001c000
000001c000
000003c000
0000038000
0000038000
0000078000
0000ff0000
00003f0000
00000e0000
0000000000
0000000000
0000000000
0000000000
0000000000
0000000000
ENDCHAR
STARTCHAR 2551
ENCODING 9553
SWIDTH 903 0
DWIDTH 40 0
BBX 40 40 0 -6
BITMAP
0000000000
0000000000
0000000000
0000000000
0000003000
0007fff800
0003800000
0003800000
0003800000
0003800000
0003800000
0003800000
0003800000
0003800000
0003800000
0003800000
0003800000
0003800000
0003800000
0003800000
0003000000
0007000000
0007000000
0007000000
0007000000
0006000000
000e000000
000c000000
000c000000
0018000000
0018000000
0010000000
0010000000
0000000000
0000000000
0000000000
0000000000
0000000000
0000000000
0000000000
ENDCHAR
STARTCHAR 2552
ENCODING 9554
SWIDTH 903 0
DWIDTH 40 0
BBX 40 40 0 -6
BITMAP
0000000000
0000000000
0000000000
0000000000
0000006000
000c007800
000f007000
000e007000
000e007000
000e007000
000e007000
000e007000
000e007000
000e007000
000e007000
000e007000
000e007000
000e007000
000e007000
000e07f000
000e7c7000
000fe07000
000e007000
000c007000
0000007000
0000007000
0000007000
0000007000
0000007000
0000007000
0000007000
0000007000
0000007000
0000006000
0000000000
0000000000
0000000000
0000000000
0000000000
0000000000
ENDCHAR
STARTCHAR 2553
ENCODING 9555
SWIDTH 903 0
DWIDTH 40 0
BBX 40 40 0 -6
BITMAP
0000000000
0000000000
0000000000
0000000000
0000038000
000003c000
0000078000
0000070000
0000070000
00000e0000
00000e0000
00001c0000
00001c0000
0000380000
0000380000
0000700000
0000600000
0000c00000
0001800000
0007000000
0007000000
0003800000
0001c00000
0000e00000
0000700000
0000700000
0000380000
00001c0000
00000e0000
0000070000
0000078000
000003c000
000003c000
000001c000
0000000000
0000000000
0000000000
0000000000
0000000000
0000000000
ENDCHAR
STARTCHAR 2554
ENCODING 9556
SWIDTH 903 0
DWIDTH 40 0
BBX 40 40 0 -6
BITMAP
0000000000
0000000000
0000000000
0000000000
0000001000
0000003800
001ffff800
00001c0000
00001c0000
00001c0000
00001c0000
00001c0000
00001c0000
00001c0000
00001c0000
00001c0000
00001c0000
00001c0000
00001c0000
00001c0000
00001c0000
00001c0000
00001c0000
00001c0000
00001c0000
00001c0000
00001c0000
00001c0000
00001c0000
00001c0000
00001c0000
00001c0000
00001c0000
0000180000
0000000000
0000000000
0000000000
0000000000
0000000000
0000000000
ENDCHAR
ENDFONT
